<svg width="60" height="60" viewBox="0 0 60 60" fill="none" xmlns="http://www.w3.org/2000/svg">
<path d="M55.7812 42.2812C55.2656 42.2812 54.6562 42.375 54 42.5625L44.0156 46.0312C44.0156 45.9844 44.0156 45.9844 44.0156 45.9375C44.0156 45.8906 44.0156 45.8437 44.0156 45.7969C44.0156 45.7031 44.0156 45.6562 44.0156 45.5625C44.0156 45.5156 44.0156 45.4687 44.0156 45.4687V45.4219V45.375C44.0156 45.2813 43.9688 45.1406 43.9688 45.0469C43.9688 45.0469 43.9688 45.0469 43.9688 45C43.5469 43.1719 41.8594 41.8125 39.8906 41.8125H31.9687C28.3125 37.1719 19.8281 37.125 19.4531 37.125H13.3594V34.875H0.9375V55.5469H13.3594V53.5781L28.7344 58.4531C28.8281 58.5 31.125 59.1562 33.75 59.1562C35.3438 59.1562 36.75 58.9219 37.9688 58.4062C41.0625 57.1406 53.4844 50.4844 57.2344 48.4688C58.2656 47.9062 59.6719 46.3125 58.875 44.3906C58.2656 42.9844 57.2344 42.2812 55.7812 42.2812ZM11.4844 53.625H2.8125V36.7031H11.4844V37.0312V52.875V53.625ZM56.2969 46.7813C52.5938 48.7969 40.2188 55.3594 37.2188 56.625C36.2812 57 35.1094 57.2344 33.75 57.2344C31.3594 57.2344 29.25 56.625 29.25 56.625L13.3125 51.6094V38.9062H19.4062C19.5 38.9062 27.75 38.9531 30.6562 43.2187L30.9375 43.6406H39.7969C40.9688 43.6406 41.9531 44.4844 42.0938 45.6094V45.6562C42.0938 45.75 42.0938 45.7969 42.0938 45.8906C42.0938 45.9844 42.0938 46.0781 42.0469 46.1719C42.0469 46.2187 42.0469 46.2656 42.0469 46.3125C42.0469 46.4063 42 46.5 41.9531 46.5938C41.9531 46.6406 41.9531 46.6875 41.9062 46.6875C41.8594 46.8281 41.8125 46.9219 41.7188 47.0156C41.3438 47.5781 40.6875 47.9531 39.9375 47.9531H27.75V49.8281H39.9375C41.2031 49.8281 42.375 49.2187 43.125 48.2812L54.5156 44.3437C54.9844 44.2031 55.4062 44.1562 55.7812 44.1562C56.4844 44.1562 56.8125 44.3906 57.0938 45.0469C57.4688 45.9375 56.5781 46.6406 56.2969 46.7813Z" fill="#263238"/>
<path d="M49.4063 34.2188V16.5L51.6094 18.7031L52.9219 17.3906L49.4063 13.875V4.40625H43.7344V8.15625L37.0313 1.5L21.1406 17.3906L22.4531 18.7031L24.6562 16.5V34.2188H49.4063ZM45.6094 12.7031V6.28125H47.5313V14.5781V14.625V32.3438H26.5312V14.625L37.0313 4.125L45.6094 12.7031Z" fill="#263238"/>
</svg>
