<svg width="60" height="60" viewBox="0 0 60 60" fill="none" xmlns="http://www.w3.org/2000/svg">
<path d="M2.8125 48.75H0.9375C0.9375 53.1562 4.5 56.7188 8.90625 56.7188H59.0625V7.96875H9.84375V0.9375H8.90625C4.5 0.9375 0.9375 4.5 0.9375 8.90625V48.75H2.8125C2.8125 45.375 5.53125 42.6562 8.90625 42.6562H9.84375V9.84375H57.1875V54.8438H8.90625C5.53125 54.8438 2.8125 52.125 2.8125 48.75ZM7.96875 21.7969C7.96875 30 7.96875 38.2031 7.96875 40.8281C5.90625 41.0625 4.07812 42.0938 2.8125 43.5938V8.90625C2.8125 5.85938 5.0625 3.32812 7.96875 2.90625V21.7969Z" fill="#263238"/>
<path d="M22.5 13.5938L22.2656 13.7344C19.5469 15.2812 17.9062 18.1875 17.9062 21.3281C17.9062 21.6094 17.9062 21.8906 17.9531 22.2188C17.9531 22.3125 18 22.4062 18 22.5469C18.0469 22.7344 18.0469 22.9219 18.0937 23.0625C18.1406 23.2031 18.1406 23.2969 18.1875 23.4375C18.2344 23.5781 18.2812 23.7656 18.3281 23.9062C18.375 24.0469 18.4219 24.1875 18.4688 24.2812C18.5156 24.4219 18.5625 24.5625 18.6094 24.6562C18.6562 24.7969 18.75 24.9375 18.7969 25.0781C18.8437 25.1719 18.8906 25.2656 18.9375 25.3594C19.0313 25.5469 19.125 25.6875 19.2187 25.875C19.2656 25.9219 19.2656 26.0156 19.3125 26.0625C19.4531 26.2969 19.5938 26.4844 19.7812 26.6719C19.7812 26.6719 19.7812 26.6719 19.7812 26.7188C20.0156 27.0469 20.2969 27.3281 20.5781 27.6094L21 28.0781C22.0781 29.2031 22.9219 32.3438 22.9219 34.3594V48.2344C22.9219 50.2969 24.6094 51.9844 26.6719 51.9844C28.7344 51.9844 30.4219 50.2969 30.4219 48.2344V34.3125C30.4219 32.2969 31.2188 29.1562 32.3438 28.0312L32.7656 27.5625C33.0469 27.2812 33.3281 27 33.5625 26.6719C33.5625 26.6719 33.5625 26.6719 33.5625 26.625C33.7031 26.4375 33.8438 26.2031 33.9844 26.0156C34.0312 25.9688 34.0781 25.875 34.0781 25.8281C34.1719 25.6406 34.2656 25.5 34.3594 25.3125C34.4063 25.2188 34.4531 25.125 34.5 25.0313C34.5469 24.8906 34.6406 24.75 34.6875 24.6094C34.7344 24.4688 34.7813 24.3281 34.8281 24.2344C34.875 24.0938 34.9219 23.9531 34.9687 23.8594C35.0156 23.7188 35.0625 23.5781 35.1094 23.3906C35.1562 23.25 35.1562 23.1562 35.2031 23.0156C35.25 22.8281 35.25 22.6406 35.2969 22.4531C35.2969 22.3594 35.3438 22.2656 35.3438 22.125C35.3906 21.8438 35.3906 21.5625 35.3906 21.2344C35.3906 18.1406 33.7031 15.2344 31.0312 13.6406L30.7969 13.5938H29.2969V20.8594C27.7031 21.9844 25.5469 21.9844 24 20.8594V13.5938H22.5ZM28.5 34.3125V48.1875C28.5 49.2188 27.6562 50.0625 26.625 50.0625C25.5937 50.0625 24.75 49.2188 24.75 48.1875V34.3125C24.75 33.0937 24.4687 31.2656 23.9062 29.625C24.75 29.9062 25.6875 30.0469 26.625 30.0469C27.5625 30.0469 28.5 29.9062 29.3437 29.625C28.7812 31.2656 28.5 33.0937 28.5 34.3125ZM26.625 23.5781C28.0781 23.5781 29.5781 23.0625 30.75 22.0781L31.1719 21.8906V16.125C32.625 17.4375 33.5156 19.3125 33.5156 21.2813C33.5156 21.5156 33.5156 21.75 33.4688 21.9844C33.4688 22.0781 33.4219 22.1719 33.4219 22.2188C33.4219 22.3594 33.375 22.5 33.375 22.6406C33.375 22.7344 33.3281 22.8281 33.2812 22.9688C33.2344 23.0625 33.2344 23.2031 33.1875 23.2969C33.1406 23.4375 33.0938 23.5312 33.0469 23.6719C33 23.7656 33 23.8594 32.9531 23.9062C32.9063 24.0469 32.8125 24.1875 32.7656 24.3281C32.7188 24.375 32.7187 24.4219 32.6719 24.5156C32.5781 24.7031 32.4844 24.8438 32.3906 24.9844C32.3906 24.9844 32.3906 25.0313 32.3438 25.0313C32.1094 25.4063 31.8281 25.7344 31.5469 26.0625L31.4062 26.25C30.1875 27.4219 28.5 28.1719 26.6719 28.1719C24.8438 28.1719 23.1562 27.4219 21.9375 26.25L21.7031 26.0156C21.4219 25.6875 21.1406 25.3594 20.9062 24.9844C20.9062 24.9844 20.9062 24.9375 20.8594 24.9375C20.7656 24.7969 20.6719 24.6094 20.5781 24.4219C20.5313 24.375 20.5312 24.3281 20.4844 24.2344C20.4375 24.0938 20.3437 23.9531 20.2969 23.8125C20.25 23.7188 20.25 23.625 20.2031 23.5781C20.1562 23.4375 20.1094 23.3438 20.0625 23.2031C20.0156 23.1094 20.0156 22.9688 19.9687 22.875C19.9219 22.7812 19.9219 22.6875 19.875 22.5469C19.8281 22.4062 19.8281 22.2656 19.8281 22.125C19.8281 22.0312 19.7812 21.9375 19.7812 21.8906C19.7812 21.6562 19.7344 21.4219 19.7344 21.1875C19.7344 19.2188 20.625 17.2969 22.0781 16.0313V21.6094L22.4062 21.8906C23.625 23.0625 25.125 23.5781 26.625 23.5781Z" fill="#263238"/>
<path d="M38.7187 36.0938L38.2031 36.375V47.9062C38.2031 50.1562 40.0312 51.9844 42.2812 51.9844C44.5312 51.9844 46.3594 50.1562 46.3594 47.9062V36.3281L45.7969 36.0938C45.375 35.9062 45.3281 35.5312 45.3281 35.3906C45.3281 35.25 45.375 34.875 45.7969 34.6875L46.3125 34.4062V31.3125H43.1719V17.5312H41.2969V31.2656H38.1562V34.3594L38.6719 34.6406C39.0937 34.8281 39.1406 35.2031 39.1406 35.3438C39.1406 35.4844 39.1406 35.8594 38.7187 36.0938ZM40.0781 37.4062C40.6875 36.8906 41.0625 36.1406 41.0625 35.3438C41.0625 34.5469 40.6875 33.7969 40.0781 33.2812V33.1406H44.4375V33.2812C43.8281 33.7969 43.4531 34.5469 43.4531 35.3438C43.4531 36.1406 43.8281 36.8906 44.4375 37.4062V47.8594C44.4375 49.0781 43.4531 50.0625 42.2344 50.0625C41.0156 50.0625 40.0312 49.0781 40.0312 47.8594V37.4062H40.0781Z" fill="#263238"/>
<path d="M43.4531 13.5938H41.1094V16.125H43.4531V13.5938Z" fill="#263238"/>
</svg>
