<svg width="40" height="40" viewBox="0 0 40 40" fill="none" xmlns="http://www.w3.org/2000/svg">
<path d="M20 4C16.8355 4 13.7421 4.93838 11.1109 6.69649C8.4797 8.45459 6.42894 10.9534 5.21793 13.8771C4.00693 16.8007 3.69008 20.0177 4.30744 23.1214C4.92481 26.2251 6.44866 29.0761 8.6863 31.3137C10.9239 33.5513 13.7749 35.0752 16.8786 35.6926C19.9823 36.3099 23.1993 35.9931 26.1229 34.7821C29.0466 33.5711 31.5454 31.5203 33.3035 28.8891C35.0616 26.2579 36 23.1645 36 20C35.995 15.7581 34.3077 11.6913 31.3082 8.69179C28.3087 5.69229 24.2419 4.00498 20 4ZM20 34.1176C17.2078 34.1176 14.4783 33.2897 12.1567 31.7384C9.83503 30.1871 8.02553 27.9822 6.957 25.4026C5.88847 22.8229 5.60889 19.9843 6.15363 17.2458C6.69836 14.5072 8.04293 11.9917 10.0173 10.0173C11.9917 8.04293 14.5072 6.69835 17.2458 6.15362C19.9843 5.60889 22.8229 5.88846 25.4026 6.95699C27.9823 8.02553 30.1871 9.83502 31.7384 12.1567C33.2897 14.4783 34.1176 17.2078 34.1176 20C34.1135 23.743 32.6248 27.3314 29.9781 29.9781C27.3314 32.6248 23.743 34.1135 20 34.1176ZM29.7255 20C29.7255 20.2496 29.6263 20.489 29.4498 20.6655C29.2733 20.842 29.0339 20.9412 28.7843 20.9412H20C19.7504 20.9412 19.511 20.842 19.3345 20.6655C19.158 20.489 19.0588 20.2496 19.0588 20V11.2157C19.0588 10.9661 19.158 10.7267 19.3345 10.5502C19.511 10.3737 19.7504 10.2745 20 10.2745C20.2496 10.2745 20.489 10.3737 20.6655 10.5502C20.842 10.7267 20.9412 10.9661 20.9412 11.2157V19.0588H28.7843C29.0339 19.0588 29.2733 19.158 29.4498 19.3345C29.6263 19.511 29.7255 19.7504 29.7255 20Z" fill="#EFA35A"/>
</svg>
