<svg width="35" height="35" viewBox="0 0 35 35" fill="none" xmlns="http://www.w3.org/2000/svg">
<path d="M30.4022 21.6642L23.9613 18.778L23.9436 18.7698C23.6092 18.6268 23.2444 18.5694 22.8823 18.6029C22.5202 18.6363 22.1721 18.7595 21.8695 18.9612C21.8339 18.9848 21.7997 19.0103 21.767 19.0378L18.4393 21.8747C16.3311 20.8507 14.1545 18.6905 13.1305 16.6097L15.9715 13.2314C15.9988 13.1972 16.0248 13.163 16.0494 13.1261C16.2469 12.8244 16.3667 12.4785 16.3982 12.1193C16.4297 11.76 16.3719 11.3986 16.2299 11.0671V11.0507L13.3356 4.59894C13.1479 4.16591 12.8252 3.80517 12.4157 3.5706C12.0062 3.33602 11.5318 3.24018 11.0633 3.29738C9.21071 3.54116 7.51022 4.45097 6.27941 5.85688C5.04861 7.2628 4.37166 9.06868 4.37501 10.9372C4.37501 21.7927 13.207 30.6247 24.0625 30.6247C25.9311 30.6281 27.7369 29.9511 29.1429 28.7203C30.5488 27.4895 31.4586 25.789 31.7024 23.9364C31.7597 23.4681 31.664 22.9938 31.4297 22.5843C31.1954 22.1748 30.8349 21.8521 30.4022 21.6642ZM24.0625 28.4372C19.4228 28.4322 14.9745 26.5868 11.6937 23.306C8.41295 20.0252 6.56758 15.577 6.56251 10.9372C6.55737 9.60215 7.03836 8.31085 7.91567 7.30448C8.79297 6.29811 10.0066 5.64548 11.3299 5.46847C11.3294 5.47393 11.3294 5.47942 11.3299 5.48488L14.201 11.9107L11.375 15.2931C11.3463 15.3261 11.3203 15.3613 11.2971 15.3984C11.0913 15.7141 10.9706 16.0776 10.9467 16.4536C10.9227 16.8297 10.9963 17.2056 11.1604 17.5448C12.399 20.0782 14.9516 22.6116 17.5123 23.8489C17.8541 24.0114 18.2321 24.0825 18.6095 24.0552C18.987 24.0279 19.3509 23.9031 19.6656 23.6931C19.7007 23.6694 19.7345 23.6439 19.7668 23.6165L23.0904 20.781L29.5162 23.6589H29.5313C29.3564 24.9841 28.7048 26.2001 27.6982 27.0796C26.6917 27.9591 25.3992 28.4417 24.0625 28.4372Z" fill="#EFA35A"/>
</svg>
