<svg width="60" height="60" viewBox="0 0 60 60" fill="none" xmlns="http://www.w3.org/2000/svg">
<path fill-rule="evenodd" clip-rule="evenodd" d="M12.0497 21.9219C11.0747 21.6107 8.94187 21.1466 7.21406 22.3007C5.87625 23.1941 4.66969 25.101 4.66594 29.0619H3.75C3.2325 29.0619 2.8125 29.4819 2.8125 29.9994V45.9369C2.8125 46.4544 3.2325 46.8744 3.75 46.8744H5.625C6.37125 46.8744 7.08656 46.5782 7.61344 46.0504C8.14125 45.5235 8.4375 44.8082 8.4375 44.0619V40.7807H12.6562C13.5413 40.7807 14.3325 40.371 14.8472 39.7307C14.8959 39.6979 14.9419 39.6594 14.985 39.6163L25.3472 29.2541L42.0037 33.7175C42.5034 33.8516 43.0172 33.5544 43.1512 33.0547L43.5497 31.5697L46.8094 32.4425C48.3103 32.8447 49.8525 31.955 50.2537 30.4541L51.3009 26.5485L55.1709 22.9429C55.6716 22.476 55.8806 21.7738 55.7147 21.11C55.5497 20.4454 55.0369 19.9222 54.375 19.745L14.0672 8.91786C13.5872 8.78848 13.0753 8.85598 12.6441 9.10442C12.2128 9.35286 11.8988 9.76254 11.7703 10.2425L9.45 18.8994C9.31687 19.4 9.61312 19.9138 10.1128 20.0479L12.4219 20.6666L12.0497 21.9219ZM5.61937 30.9369H4.6875V44.9994H5.625C5.87344 44.9994 6.1125 44.901 6.28781 44.7247C6.46406 44.5494 6.5625 44.3104 6.5625 44.0619V31.8744C6.5625 31.626 6.46406 31.3869 6.28781 31.2116C6.1125 31.0363 5.87437 30.9369 5.62687 30.9369C5.62406 30.9369 5.62125 30.9369 5.61937 30.9369ZM8.4375 37.0307V38.9057H10.0041C9.9 38.6122 9.84375 38.2972 9.84375 37.9682C9.84375 37.6391 9.9 37.3241 10.0041 37.0307H8.4375ZM12.6562 37.0307C13.1737 37.0307 13.5938 37.4507 13.5938 37.9682C13.5938 38.4857 13.1737 38.9057 12.6562 38.9057C12.1388 38.9057 11.7188 38.4857 11.7188 37.9682C11.7188 37.4507 12.1388 37.0307 12.6562 37.0307ZM15.1941 36.756L23.2556 28.6944L21.165 28.1338L13.8684 35.4304C14.4478 35.7069 14.9175 36.1766 15.1941 36.756ZM11.5209 23.706C10.9209 23.4819 9.4425 23.0675 8.25469 23.8607C7.21313 24.5563 6.50531 26.1135 6.54 29.2147C6.94031 29.3525 7.30875 29.5804 7.61344 29.886C8.14125 30.4129 8.4375 31.1282 8.4375 31.8744V35.1557H11.4909L19.0734 27.5732L11.9447 25.6635C11.7009 25.5979 11.4928 25.4366 11.3691 25.2163C11.2463 24.995 11.2172 24.7344 11.2884 24.4916L11.5209 23.706ZM14.2331 21.1522L13.3594 24.1016L41.5828 31.6635L43.3397 25.1075L40.6209 24.3791L38.2519 27.051C38.0166 27.3163 37.6509 27.4269 37.3078 27.335L14.2331 21.1522ZM49.3162 26.7088L48.4434 29.9685C48.3094 30.4691 47.7947 30.7663 47.295 30.6322L44.0344 29.7585L45.1509 25.5922L49.3162 26.7088ZM50.2059 25.0063L53.8931 21.5713C53.895 21.5685 53.8959 21.5657 53.8959 21.5619C53.895 21.5591 53.8922 21.5563 53.8894 21.5554L13.5816 10.7282L11.5041 18.4794L12.6 18.7738C12.6103 18.7757 12.6206 18.7785 12.6309 18.7813L37.2337 25.3738L39.6028 22.701C39.8381 22.4357 40.2038 22.326 40.5469 22.4179L50.2059 25.0063ZM26.3016 17.0094C26.9616 17.1857 27.3534 17.8654 27.1772 18.5244C27 19.1844 26.3212 19.5763 25.6612 19.4C25.0012 19.2229 24.6094 18.5441 24.7866 17.8841C24.9628 17.2241 25.6416 16.8322 26.3016 17.0094ZM21.5203 15.7279C22.1803 15.905 22.5722 16.5838 22.395 17.2438C22.2188 17.9029 21.5391 18.2957 20.88 18.1185C20.22 17.9422 19.8281 17.2625 20.0044 16.6025C20.1816 15.9435 20.8603 15.5507 21.5203 15.7279ZM16.7391 14.4463C17.3991 14.6235 17.7909 15.3022 17.6138 15.9622C17.4375 16.6222 16.7578 17.0141 16.0988 16.8379C15.4388 16.6607 15.0469 15.9819 15.2231 15.3219C15.4003 14.6619 16.0791 14.27 16.7391 14.4463Z" fill="#263238"/>
</svg>
