<svg width="65" height="56" viewBox="0 0 65 56" fill="none" xmlns="http://www.w3.org/2000/svg">
<g clip-path="url(#clip0_379_1266)">
<path fill-rule="evenodd" clip-rule="evenodd" d="M0.0664062 20.2592L0.0766148 20.2711C0.252712 20.1755 0.405839 19.9619 0.550354 19.823C0.881492 19.5042 1.57599 18.872 1.85641 18.5749C2.11481 18.3013 2.43989 18.0287 2.67022 17.7936L3.1363 17.3285C3.1867 17.2791 3.21765 17.2633 3.2655 17.2178C3.31431 17.1713 3.28017 17.2005 3.31559 17.162C3.35865 17.1151 3.31846 17.1527 3.36886 17.1091C3.47414 17.0183 3.49487 16.9795 3.59441 16.8832L4.99967 15.5222C5.09282 15.4405 5.14355 15.3834 5.23 15.2996L7.45673 13.1637C7.51001 13.1127 7.50044 13.1066 7.56009 13.055L8.26735 12.3791C8.48971 12.1549 8.72163 11.9012 8.96951 11.6981L9.42092 11.2452C9.51056 11.1551 9.58234 11.1118 9.67358 11.0191L10.2545 10.4555C10.2835 10.4279 10.3164 10.3875 10.3595 10.3487L10.8268 9.88488C10.9123 9.8018 10.979 9.76011 11.0661 9.6719L12.925 7.86056C12.9728 7.81405 13.0067 7.7932 13.051 7.74605C13.3104 7.47116 13.6291 7.20461 13.8648 6.96468L14.7887 6.05404C14.8716 5.97353 14.9402 5.91547 15.0126 5.83047C15.1594 5.89269 17.3679 8.22847 17.6735 8.54057C18.1179 8.99413 18.5457 9.43838 19.0029 9.89771L20.3064 11.2545C20.5099 11.4961 20.7559 11.7132 20.9789 11.9384L22.2897 13.2875C23.1852 14.1834 24.0245 15.1091 24.9178 16.0063C25.1401 16.2295 25.3622 16.4525 25.5816 16.6722C25.7064 16.7973 25.7896 16.9095 25.9131 17.0324C26.0302 17.1482 26.1272 17.2521 26.2455 17.3653C26.4736 17.5831 26.7039 17.8183 26.8969 18.0437C27.0883 18.267 27.3365 18.4909 27.5576 18.7129C27.7876 18.9441 27.98 19.1629 28.2081 19.3925C28.5494 19.7354 29.251 20.4956 29.5349 20.7526C29.7729 20.9684 29.9831 21.202 30.185 21.4326C30.3433 21.6129 30.5286 21.7569 30.692 21.9359C30.7513 22.001 30.781 22.0395 30.8444 22.103C31.0359 22.2948 31.6302 22.9559 31.8414 23.1275C31.9441 23.2109 32.3126 23.1695 32.4689 23.1695H37.8006C38.4938 23.1695 39.8519 23.2077 40.4618 23.1644L42.1568 21.0355C42.3022 20.8456 42.4397 20.6881 42.5811 20.5017L43.4303 19.4355C43.5671 19.2575 43.7014 19.1096 43.8463 18.9207L51.0394 9.90926C51.1253 9.79892 51.1693 9.74503 51.2541 9.64527C51.7359 9.08041 52.2594 8.38789 52.7302 7.79545C52.8757 7.61261 53.0027 7.45448 53.1548 7.26202L53.7945 6.46493C53.8522 6.39276 53.9192 6.27376 54.0088 6.21634C54.2369 6.43799 55.1248 7.70114 55.3672 8.00811C55.833 8.59831 56.248 9.2023 56.7055 9.78288C57.3984 10.6618 58.0377 11.5631 58.715 12.4571L61.3906 16.0082C61.7488 16.4913 64.6716 20.3157 64.7106 20.4549L64.7555 20.4395C64.5645 20.0139 64.3319 19.5808 64.121 19.1571L55.8084 2.55005C55.5012 1.93162 54.7738 0.537274 54.5461 0L19.4441 4.32065L18.2376 3.22653C18.1833 3.17553 18.131 3.14506 18.0774 3.09277L16.7436 1.87356C16.5063 1.68175 16.2412 1.4014 16.0086 1.19997L15.717 0.932772C15.6551 0.881771 15.6159 0.852261 15.5569 0.799336L14.9734 0.265911C14.9048 0.193739 14.7539 0.0410574 14.6691 0.0144342L13.2912 1.90692C13.141 2.11157 12.9764 2.33065 12.8341 2.54075L11.9201 3.80839C11.6052 4.22666 11.3108 4.65295 11.0071 5.07828C10.3917 5.93985 9.78587 6.76163 9.17719 7.61261C8.86838 8.04436 8.54777 8.45493 8.26161 8.87865C7.72056 9.67959 7.01107 10.5723 6.44354 11.3982C5.92833 12.1475 5.15344 13.1919 4.61494 13.9345C3.40427 15.6037 2.1298 17.3365 0.95359 19.0012C0.826622 19.1808 0.0922466 20.1572 0.0664062 20.2592Z" fill="#17170A"/>
<path fill-rule="evenodd" clip-rule="evenodd" d="M59.7816 38.1618C59.6595 37.8513 58.9554 35.928 58.876 35.8154L56.1378 35.8202L56.1315 35.972L56.9928 35.9797C57.0196 36.1975 56.9985 41.3453 56.9989 41.8342C56.9992 42.1726 57.0212 42.4302 56.8212 42.6361C56.5542 42.911 56.2897 42.8205 56.1308 42.901L56.1289 43.0335C56.4189 43.039 57.9313 43.0839 58.0755 43.0078L58.073 42.8882C57.3756 42.8167 57.1702 42.6813 57.1708 41.941L57.1692 36.4271C57.3013 36.6558 58.3569 39.527 58.4868 39.865C58.7066 40.4379 58.9193 41.0069 59.1385 41.584C59.3535 42.1498 59.5957 42.7416 59.7852 43.3039L59.9482 43.2956C60.1584 42.7496 60.3489 42.1232 60.5323 41.5667C60.7218 40.9925 60.9199 40.427 61.1097 39.8532L62.2623 36.447L62.2936 42.8815C62.1098 42.8863 61.5404 42.8532 61.4061 42.9007L61.4032 43.0078C61.4999 43.0617 64.645 43.0489 64.9928 43.0322L64.9755 42.884H64.1056V35.9761L64.9803 35.972L64.9778 35.8154H62.3165C62.2259 35.9643 61.6179 37.8295 61.5024 38.1676C61.3981 38.4729 60.7722 40.4321 60.6924 40.521C60.6165 40.4251 59.899 38.4601 59.7816 38.1618Z" fill="#17180A"/>
<path fill-rule="evenodd" clip-rule="evenodd" d="M4.96307 35.9681C5.19212 35.9568 6.54634 35.9408 6.66151 35.9851C6.76391 36.0354 7.09473 36.9499 7.16236 37.1141C7.32315 37.5048 7.47532 37.8942 7.64344 38.2846C7.75797 38.5511 7.64918 38.6759 7.55986 38.9226C7.46032 39.1975 6.95724 40.663 6.87142 40.7083L5.90703 38.3497C5.78039 38.0437 4.95381 36.1182 4.96307 35.9681ZM10.6904 40.6335L10.6451 40.7204C10.5688 40.69 10.5829 40.7063 10.5427 40.613C10.505 40.3548 8.68471 36.2128 8.67897 35.9693C8.87644 35.9549 9.24235 36.0104 9.38814 35.9434C9.38495 35.7823 9.41494 35.8205 9.02031 35.8221C8.03041 35.826 2.31364 35.7817 2.08203 35.8398C2.09511 35.9825 2.08299 35.9697 2.25334 35.9687C2.96315 35.9632 2.9405 35.8798 3.07194 36.2118L3.35905 36.9105C3.48794 37.2264 3.61267 37.5254 3.73677 37.8371C3.98528 38.4591 4.24081 39.0663 4.49443 39.6892L5.83239 42.9584C5.86524 43.0379 5.89236 43.1079 5.92522 43.1874C5.96701 43.2891 5.98073 43.3122 6.1179 43.2881C6.19989 43.1691 7.2284 40.265 7.37866 39.8618C7.44788 39.6757 7.72447 38.843 7.80008 38.7452C7.94363 38.8533 9.52595 43.0883 9.70843 43.2946C9.89761 43.3045 9.87017 43.2217 9.99331 42.8952C10.683 41.0685 11.3549 39.1564 12.0325 37.3143C12.169 36.9428 12.2561 36.6247 12.4816 36.3783C12.8533 35.9725 13.2827 36.0175 13.4218 35.944L13.4157 35.8359C13.2476 35.7977 11.6063 35.8045 11.4729 35.8404C11.4962 36.1191 11.708 35.8516 11.9798 36.2176C12.1345 36.4261 12.1345 36.6227 12.0366 36.8902C11.8803 37.3172 11.7355 37.7085 11.5782 38.138C11.4767 38.4151 10.675 40.5344 10.6904 40.6335Z" fill="#EFA35A"/>
<path fill-rule="evenodd" clip-rule="evenodd" d="M37.3811 42.8724L37.3818 35.9805C37.6628 35.943 38.4546 35.9632 38.6987 36.0475C39.0292 36.1621 39.3057 36.4347 39.4474 36.7109C39.6831 37.1696 39.5868 38.7782 39.5868 39.4072C39.5868 39.8784 39.5868 40.3496 39.5868 40.8208C39.5868 41.2824 39.6375 41.7135 39.4589 42.1154C39.3332 42.398 39.0387 42.6809 38.7296 42.796C38.4635 42.8951 37.6858 42.9214 37.3811 42.8724ZM37.2691 35.8153C36.9422 35.8156 34.7965 35.7868 34.6685 35.8326L34.6653 35.9398C34.8255 36.0398 35.3321 35.9536 35.5656 35.9799L35.5653 42.872C35.341 42.907 34.8344 42.8409 34.6673 42.9009L34.6641 43.0081C34.7847 43.0751 36.9718 43.0334 37.2956 43.0344C38.1369 43.0369 38.9188 43.0956 39.6452 42.7556C39.8021 42.6822 39.9419 42.6071 40.0755 42.5218C40.184 42.4525 40.3898 42.303 40.4539 42.2353L40.7697 41.887C41.2763 41.2397 41.5822 40.3092 41.5733 39.4072C41.5637 38.4128 41.1085 37.1744 40.4182 36.5883C39.4423 35.7605 38.5459 35.8131 37.2691 35.8153Z" fill="#17180A"/>
<path fill-rule="evenodd" clip-rule="evenodd" d="M48.9156 35.8473C49.6327 35.7507 50.2162 36.2864 50.3496 36.8426C50.4635 37.3183 50.3984 38.6773 50.3984 39.247C50.3984 39.7394 50.422 41.3547 50.3914 41.7181C50.2545 43.3399 48.1184 43.4352 47.7636 42.0052C47.6631 41.5998 47.7263 40.1105 47.7263 39.5937C47.7263 38.7803 47.6998 37.9213 47.7276 37.1133C47.7336 36.9407 47.7764 36.7634 47.8383 36.619C47.9397 36.3836 48.2102 36.1064 48.4336 35.9897C48.5825 35.9117 48.7216 35.8732 48.9156 35.8473ZM52.4206 39.5937C52.4621 39.1463 52.3447 38.4759 52.2107 38.065C51.975 37.3433 51.6783 36.8711 51.1682 36.4201C49.9304 35.3254 47.7422 35.4742 46.6857 36.6604C46.6359 36.7162 46.6152 36.7261 46.5708 36.7842C46.5364 36.8301 46.5252 36.8484 46.4802 36.9061C45.4013 38.2844 45.4495 40.5589 46.5003 41.9674C47.6398 43.4945 50.1802 43.5779 51.4374 42.1842C51.5759 42.0312 51.7067 41.866 51.8225 41.6655C52.2547 40.9188 52.3396 40.463 52.4206 39.5937Z" fill="#17180A"/>
<path fill-rule="evenodd" clip-rule="evenodd" d="M15.2524 15.6784C15.1835 15.8445 15.2304 17.4342 15.2304 17.7486C15.2304 18.442 15.2103 19.1663 15.2304 19.8556L19.7368 19.8588L19.733 15.1064L19.5882 15.1212C19.4207 15.1087 17.6888 15.3473 17.3924 15.3926C17.0338 15.4474 16.6673 15.4859 16.3103 15.5318C16.0072 15.5709 15.5274 15.6075 15.2524 15.6784Z" fill="#17170A"/>
<path fill-rule="evenodd" clip-rule="evenodd" d="M15.2377 24.6818L19.7381 25.1126L19.7333 20.5244H15.2266L15.2377 24.6818Z" fill="#17180A"/>
<path fill-rule="evenodd" clip-rule="evenodd" d="M9.71724 24.1508L14.3972 24.6111L14.4071 20.5166L9.70703 20.5243L9.71724 24.1508Z" fill="#17180A"/>
<path fill-rule="evenodd" clip-rule="evenodd" d="M9.69906 19.8735L14.4215 19.8649L14.4122 15.7822L9.69141 16.4051L9.69906 19.8735Z" fill="#17180A"/>
<path fill-rule="evenodd" clip-rule="evenodd" d="M28.5988 35.859C28.5988 36.0017 28.6189 35.9693 28.7662 35.985C29.5564 36.0694 29.4703 36.691 29.4703 37.2726C29.4703 37.9808 29.515 38.8478 29.469 39.5358C29.3737 39.4932 28.6922 38.3445 28.5812 38.1662C28.2954 37.7062 28.0153 37.2568 27.725 36.7869C27.0145 35.6354 27.2924 35.8198 26.4202 35.8198C26.0875 35.8198 24.3724 35.7817 24.2148 35.8481C24.2266 35.9783 24.219 35.9667 24.3747 35.968C24.5195 35.9693 25.0271 35.9356 25.0755 35.9924C25.124 36.0492 25.0941 41.1291 25.0925 41.914C25.0899 43.2009 24.1951 42.6415 24.2206 43.0071C24.3338 43.0568 25.9615 43.0556 26.0808 43.0155C26.1114 42.9446 26.1057 43.0029 26.0958 42.9003C25.733 42.7463 25.2367 42.9898 25.2414 41.8867L25.2408 36.2933C25.3489 36.3331 25.2829 36.2744 25.3595 36.3946L29.2588 42.6867C29.4017 42.9221 29.4365 43.0472 29.589 43.0235C29.6049 42.9917 29.5989 43.0183 29.6107 42.9529L29.6148 42.7672C29.5915 40.8779 29.6139 38.8776 29.6113 36.9787C29.611 36.6641 29.6365 36.3799 29.8257 36.189C29.9208 36.0931 30.0085 36.0485 30.1511 36.0113C30.4816 35.9247 30.4733 36.0546 30.4886 35.8429C30.3916 35.8073 28.7037 35.7769 28.5988 35.859Z" fill="#EFA35A"/>
<path fill-rule="evenodd" clip-rule="evenodd" d="M20.1863 35.9657C20.312 35.9654 20.4906 35.9856 20.5806 35.9442C20.5771 35.7825 20.5624 35.8181 20.3735 35.8213C19.3546 35.8396 17.9177 35.7771 16.9888 35.8412C17.0034 36.0048 17.029 35.9715 17.2143 35.9673C17.9615 35.9493 17.8763 35.9051 17.8753 36.2332C17.8689 38.4416 17.8938 40.6802 17.8721 42.8813L17.5337 42.8851C17.3521 42.8861 16.954 42.8428 16.9862 42.973C17.0082 43.0616 17.1614 43.033 17.2682 43.033C18.1982 43.0324 19.7856 43.0712 20.5614 43.0157C20.5933 42.9474 20.5892 43.0109 20.5771 42.9053C20.3821 42.8399 19.9346 42.9159 19.6813 42.8755L19.6806 36.5001C19.6806 36.4035 19.642 36.0071 19.7243 35.983C19.7294 35.9817 19.7384 35.9776 19.7448 35.9759L19.814 35.9644C19.8446 35.9618 19.9132 35.9641 19.947 35.9644C20.0268 35.9654 20.1065 35.9657 20.1863 35.9657Z" fill="#EFA359"/>
<path fill-rule="evenodd" clip-rule="evenodd" d="M53.5254 23.4606L53.5295 20.2588L49.6602 20.2639V24.028L53.5254 23.4606Z" fill="#17170A"/>
<path fill-rule="evenodd" clip-rule="evenodd" d="M49.6572 19.6347L53.5297 19.6447C53.5163 19.1417 53.5859 16.7084 53.5036 16.4521L49.6562 15.9033L49.6572 19.6347Z" fill="#17170A"/>
<path fill-rule="evenodd" clip-rule="evenodd" d="M57.7677 22.848L57.7725 20.2578L54.168 20.2626L54.1743 23.3711L57.7677 22.848Z" fill="#17170A"/>
<path fill-rule="evenodd" clip-rule="evenodd" d="M54.1689 19.6345L57.7764 19.6444C57.7652 19.2326 57.822 17.2637 57.7575 17.0568L54.168 16.5439L54.1689 19.6345Z" fill="#17170A"/>
<path fill-rule="evenodd" clip-rule="evenodd" d="M13.9633 55.0954C13.9129 55.2211 13.8906 55.1185 13.89 55.1175C13.8185 54.9199 13.3429 53.6966 13.2628 53.6084L12.9795 53.6074C12.9489 53.7479 12.9495 55.4004 12.9817 55.5336L13.1751 55.5262L13.177 53.9699C13.3078 54.1148 13.7378 55.4033 13.8657 55.5377C14.0055 55.5342 13.978 55.5281 14.0249 55.4024L14.2814 54.7801C14.3927 54.5023 14.5057 54.2361 14.6093 53.9654C14.6135 53.9715 14.6173 53.9801 14.6189 53.9853C14.6208 53.9904 14.6256 53.9994 14.6275 54.0058C14.6719 54.1549 14.6129 55.2712 14.6515 55.5348L14.8566 55.5313L14.8451 53.6055L14.5519 53.6122C14.4763 53.7075 13.9646 54.9912 13.9633 55.0954Z" fill="#19190E"/>
<path fill-rule="evenodd" clip-rule="evenodd" d="M40.9773 53.8024L41.7356 53.8018L41.7363 55.3363L40.7295 55.3398C40.8099 55.0874 40.9049 54.9831 40.9426 54.6566C40.9767 54.3621 40.9732 54.0981 40.9773 53.8024ZM40.4854 55.5345L41.9653 55.5416L41.9663 55.9999L42.1708 55.9849L42.1612 55.3446L41.9471 55.3283L41.9328 53.6045L40.7808 53.6077C40.7212 53.8678 40.7846 54.339 40.7237 54.6669C40.6947 54.8247 40.6574 54.9607 40.5952 55.097C40.3419 55.6532 40.2101 54.9235 40.2806 55.9909L40.4813 55.9945L40.4854 55.5345Z" fill="#191710"/>
<path fill-rule="evenodd" clip-rule="evenodd" d="M7.5514 53.8031L8.31002 53.8022L8.31034 55.3367L7.30863 55.3405C7.38615 55.0948 7.48632 54.988 7.52301 54.6586C7.55618 54.3577 7.54629 54.1056 7.5514 53.8031ZM8.5362 55.3437C8.51387 55.295 8.53237 55.3996 8.51451 55.278L8.51132 53.6209C8.20538 53.6293 7.60723 53.5873 7.34404 53.6418C7.31565 53.9991 7.37179 54.3337 7.29842 54.6987C7.26779 54.8517 7.23015 55.0015 7.16698 55.1224C7.15167 55.1519 7.07798 55.2748 7.06522 55.2876C6.97238 55.3832 6.99886 55.3113 6.86328 55.3569L6.86902 55.9968L7.05533 55.9949L7.05852 55.5349L8.53907 55.5423L8.54035 56.0003L8.74484 55.9853L8.73527 55.3428L8.5362 55.3437Z" fill="#19190E"/>
<path fill-rule="evenodd" clip-rule="evenodd" d="M20.7773 53.8155L21.5363 53.8005L21.5372 55.3337L20.5311 55.3398C20.615 55.0967 20.6998 54.9796 20.739 54.6636C20.7767 54.358 20.7662 54.1203 20.7773 53.8155ZM20.5511 54.3371C20.5537 54.5527 20.5132 54.7897 20.4456 54.9777C20.2841 55.4264 20.2194 55.3074 20.0742 55.3568L20.078 55.9986L20.2835 55.9877L20.2838 55.5348L21.7596 55.5351L21.7628 55.9909L21.9657 55.9945L21.951 55.3408L21.7526 55.3331L21.7494 53.634L20.5859 53.626C20.5872 53.7475 20.6169 54.2861 20.5511 54.3371Z" fill="#16190D"/>
<path fill-rule="evenodd" clip-rule="evenodd" d="M55.9638 53.6145C55.9208 53.8946 55.9546 54.4832 55.9546 54.7962C55.954 55.4397 55.8771 55.5548 56.102 55.5388C56.2251 55.5301 56.2168 55.507 56.2723 55.4185C56.3578 55.2819 57.127 54.045 57.2265 53.9677C57.2409 54.2586 57.2278 54.5816 57.2278 54.8764C57.2281 55.6071 57.1662 55.5413 57.4233 55.532C57.454 55.3989 57.4543 53.7326 57.4233 53.6065C57.1024 53.5972 57.1755 53.6546 57.016 53.8984C56.9241 54.0389 56.8296 54.1784 56.7403 54.3141C56.6389 54.4684 56.2838 55.0682 56.1798 55.1452C56.1604 54.8629 56.1757 54.5249 56.1757 54.2362C56.1763 53.5574 56.236 53.5648 55.9638 53.6145Z" fill="#191710"/>
<path fill-rule="evenodd" clip-rule="evenodd" d="M32.6625 54.6904C32.5572 53.5292 34.0652 53.4365 34.19 54.4521C34.2483 54.9297 33.9529 55.3242 33.5516 55.3797C33.0686 55.4467 32.7011 55.1148 32.6625 54.6904ZM32.4347 54.7436C32.6099 55.9648 34.5638 55.8323 34.4168 54.4296C34.3606 53.8936 33.8837 53.4798 33.2645 53.5687C32.7413 53.6441 32.3444 54.1137 32.4347 54.7436Z" fill="#151710"/>
<path fill-rule="evenodd" clip-rule="evenodd" d="M10.0148 54.6901C9.89102 53.5377 11.4411 53.4334 11.5426 54.4499C11.6574 55.6005 10.1239 55.7054 10.0148 54.6901ZM9.79117 54.7434C9.96376 55.9706 11.9085 55.8426 11.7697 54.4265C11.645 53.1576 9.59019 53.3144 9.79117 54.7434Z" fill="#151710"/>
<path fill-rule="evenodd" clip-rule="evenodd" d="M43.3072 55.5266C43.6052 55.5629 43.5777 55.4625 43.719 55.253C43.8505 55.058 44.493 54.0146 44.5625 53.9751L44.5734 55.534L44.7779 55.5305L44.7645 53.6094C44.6298 53.5972 44.5651 53.5818 44.493 53.6829C44.3175 53.9283 43.602 55.1151 43.5059 55.1651L43.4922 53.6082C43.2201 53.5876 43.2995 53.6611 43.3008 53.9427C43.3027 54.3318 43.2782 55.2569 43.3072 55.5266Z" fill="#15160E"/>
<path fill-rule="evenodd" clip-rule="evenodd" d="M26.8128 53.8091C26.8469 53.8636 26.8252 53.7594 26.8418 53.8893L26.8204 54.5305C26.6954 54.5626 26.5113 54.5549 26.4108 54.5061C26.1393 54.501 25.9227 54.244 26.081 53.973C26.2 53.7693 26.5659 53.7818 26.8128 53.8091ZM27.0418 53.6131C26.9136 53.5929 26.4941 53.5974 26.3582 53.6134C26.1352 53.6394 25.9923 53.7212 25.9017 53.8466C25.8041 53.9817 25.7878 54.2283 25.8643 54.3983C25.9483 54.5847 26.0615 54.6107 26.259 54.6883C26.1977 54.9141 25.8139 55.3426 25.7891 55.5351C26.0966 55.5406 26.0018 55.5707 26.281 55.1082C26.5595 54.6469 26.4411 54.7063 26.8287 54.7085C26.8306 54.8105 26.8185 55.4443 26.8322 55.4841C26.8568 55.555 27.0291 55.5867 27.0514 55.4632C27.0776 55.3195 27.0514 53.6824 27.0418 53.6131Z" fill="#161911"/>
<path fill-rule="evenodd" clip-rule="evenodd" d="M51.114 54.38C51.1086 54.6106 51.092 54.8384 51.0272 55.0539C50.9341 55.3635 50.8451 55.3192 50.5624 55.3529L50.543 55.5335C51.4455 55.7051 51.3105 54.4958 51.3357 53.803L52.0637 53.8129C52.0688 54.169 52.0168 55.2679 52.0797 55.5325H52.2883L52.2873 53.6346L51.1437 53.6211L51.144 54.1831C51.144 54.2052 51.1459 54.2738 51.1437 54.2912L51.114 54.38Z" fill="#191710"/>
<path fill-rule="evenodd" clip-rule="evenodd" d="M35.8145 54.6334C36.1702 54.5985 36.6896 54.5921 36.6672 55.0094C36.6468 55.394 36.1578 55.3641 35.8126 55.3542L35.8145 54.6334ZM36.3559 55.504C36.747 55.5329 37.014 55.1043 36.8338 54.7297C36.6688 54.3868 36.2094 54.4583 35.8119 54.4278L35.8167 53.8075C35.9797 53.787 36.2225 53.8011 36.3951 53.8011C36.6044 53.8014 36.8398 53.8729 36.7409 53.6227C36.6127 53.5666 35.8164 53.5906 35.6272 53.6099L35.625 55.511C35.8646 55.5245 36.1252 55.5152 36.3559 55.504Z" fill="#151710"/>
<path fill-rule="evenodd" clip-rule="evenodd" d="M16.4423 54.8343C16.4665 54.7063 16.7782 53.9452 16.8468 53.8971L17.2213 54.8308L16.4423 54.8343ZM15.9258 55.531C16.182 55.5499 16.1414 55.5477 16.2241 55.3459C16.396 54.9254 16.2139 55.0242 17.3176 55.0393C17.3837 55.1958 17.4446 55.4187 17.5381 55.5339L17.7397 55.5329C17.7343 55.43 17.0012 53.7043 16.924 53.6064L16.7476 53.6068C16.671 53.7271 15.9347 55.4345 15.9258 55.531Z" fill="#151710"/>
<path fill-rule="evenodd" clip-rule="evenodd" d="M24.4029 53.8056C24.4061 53.8116 24.4122 53.8132 24.4131 53.8235L24.4304 53.8889C24.4505 54.0923 24.4083 55.1694 24.4326 55.5142L24.6154 55.5136L24.6157 53.6214C24.3286 53.6208 23.7244 53.5903 23.4727 53.6384C23.4497 54.0006 23.4934 54.3727 23.4427 54.7374C23.3849 55.1515 23.3422 55.3503 22.9134 55.3455L22.8984 55.5361C23.7942 55.6785 23.6682 54.5279 23.6803 53.8017L24.4029 53.8056Z" fill="#19190E"/>
<path fill-rule="evenodd" clip-rule="evenodd" d="M48.6165 55.3293L48.6168 54.6284L49.5286 54.6255L49.519 54.4321L48.6155 54.4325L48.6168 53.8025C48.8226 53.7999 49.029 53.8015 49.2348 53.8015C49.4453 53.8015 49.6788 53.8737 49.5806 53.6225C49.4606 53.5702 48.6372 53.5985 48.4388 53.6078C48.36 53.7566 48.3993 55.2372 48.4091 55.5163L49.6077 55.5173L49.6064 55.3582C49.4386 55.3543 49.2702 55.3569 49.102 55.3569C48.8925 55.3572 48.7074 55.3813 48.6165 55.3293Z" fill="#19190E"/>
<path fill-rule="evenodd" clip-rule="evenodd" d="M54.7924 55.4901L54.785 55.3393L53.7852 55.3406L53.7881 54.6272L54.6951 54.626L54.6858 54.4313L53.7852 54.4338L53.7903 53.8026C54.007 53.7968 54.6045 53.8427 54.763 53.7843L54.7659 53.6492C54.6281 53.5816 53.7884 53.6117 53.582 53.6226L53.5827 55.5141C53.8015 55.5202 54.6459 55.5584 54.7924 55.4901Z" fill="#19190E"/>
<path fill-rule="evenodd" clip-rule="evenodd" d="M29.8203 55.5267C30.0704 55.5681 30.0245 55.5123 30.0216 55.2769L30.0248 53.8007L31.037 53.8055L31.0469 55.5348L31.223 55.5274L31.2224 53.6211L29.8209 53.6256L29.8203 55.5267Z" fill="#151710"/>
<path fill-rule="evenodd" clip-rule="evenodd" d="M38.3076 55.3234L38.308 54.628L39.2353 54.6255L39.2258 54.4321L38.3054 54.4279L38.3102 53.8018L39.2896 53.7998L39.2784 53.6045L38.1201 53.6099L38.1172 55.5117L39.3109 55.5143L39.3135 55.3607L38.5434 55.3587C38.3488 55.3578 38.3632 55.377 38.3076 55.3234Z" fill="#19190E"/>
<path fill-rule="evenodd" clip-rule="evenodd" d="M46.4852 53.8023L46.4912 55.5309L46.6842 55.5315L46.6925 53.802L47.322 53.7988L47.314 53.6057H45.9984C45.918 53.6057 45.8902 53.5838 45.8551 53.6409C45.8341 53.6756 45.8452 53.7625 45.8644 53.7818C45.9052 53.8231 46.3895 53.802 46.4852 53.8023Z" fill="#191710"/>
<path fill-rule="evenodd" clip-rule="evenodd" d="M15.2401 24.6813L15.229 20.5239H19.7357L19.7405 25.1121C19.7874 25.0322 19.7654 24.6444 19.7654 24.5501C19.7654 23.9801 19.7915 20.7164 19.7532 20.5072C19.565 20.4729 15.3853 20.4748 15.2136 20.5091C15.1741 20.6945 15.1993 23.694 15.1996 24.2033C15.1996 24.3663 15.1687 24.6412 15.2401 24.6813Z" fill="#655A43"/>
<path fill-rule="evenodd" clip-rule="evenodd" d="M9.71714 24.1508L9.70693 20.5243L14.407 20.5166L14.3971 24.6111C14.4472 24.5351 14.4319 24.4671 14.4306 24.3638C14.4239 23.7348 14.458 20.7283 14.4185 20.5079C14.2459 20.4698 9.89324 20.4698 9.69385 20.5095C9.64058 20.7604 9.68747 23.2617 9.67886 23.9644C9.67599 24.1925 9.68684 24.1306 9.71714 24.1508Z" fill="#655A43"/>
<path fill-rule="evenodd" clip-rule="evenodd" d="M15.2518 15.6784C15.1931 15.7117 15.2176 15.6354 15.1969 15.773C15.1953 15.782 15.1982 15.8898 15.1982 15.9081C15.2062 16.5643 15.1711 19.6456 15.2106 19.8826L19.7509 19.8714C19.7904 19.6664 19.7882 15.2861 19.7483 15.0927C19.6615 15.0789 19.644 15.0734 19.5875 15.1212L19.7324 15.1065L19.7362 19.8589L15.2298 19.8557C15.2097 19.1663 15.2298 18.4421 15.2298 17.7486C15.2298 17.4342 15.1829 15.8445 15.2518 15.6784Z" fill="#61533D"/>
<path fill-rule="evenodd" clip-rule="evenodd" d="M53.5254 23.4609C53.5633 23.4153 53.5391 23.5164 53.5604 23.3784L53.5595 23.0573C53.5601 22.4983 53.5908 20.4794 53.5477 20.2414C53.3272 20.2016 50.4743 20.2356 49.8707 20.2282C49.7833 20.2273 49.6988 20.2064 49.6602 20.2642L53.5295 20.259L53.5254 23.4609Z" fill="#665A3D"/>
<path fill-rule="evenodd" clip-rule="evenodd" d="M57.7677 22.8485C57.8067 22.802 57.7891 22.8572 57.8035 22.7648L57.8022 22.5239C57.8019 22.0617 57.829 20.4524 57.7904 20.2414C57.6003 20.2064 55.4243 20.2282 55.0421 20.2282C54.9489 20.2282 54.2187 20.1888 54.168 20.2632L57.7725 20.2584L57.7677 22.8485Z" fill="#655A43"/>
<path fill-rule="evenodd" clip-rule="evenodd" d="M49.6602 19.6347C49.7195 19.6938 49.6984 19.6707 49.8988 19.6687C50.488 19.663 53.3445 19.6947 53.5483 19.6582C53.5923 19.4269 53.5592 17.6951 53.5592 17.2156C53.5592 17.0379 53.5994 16.4836 53.5065 16.4521C53.5888 16.7084 53.5193 19.1417 53.5327 19.6447L49.6602 19.6347Z" fill="#61533D"/>
<path fill-rule="evenodd" clip-rule="evenodd" d="M54.168 19.6343C54.2098 19.6757 54.1498 19.6635 54.272 19.6718C54.6162 19.6959 57.7333 19.668 57.7907 19.6577C57.8284 19.4617 57.8012 17.8072 57.8016 17.3485C57.8016 17.2436 57.8331 17.098 57.7566 17.0566C57.821 17.2635 57.7642 19.2324 57.7754 19.6442L54.168 19.6343Z" fill="#5C513C"/>
<path fill-rule="evenodd" clip-rule="evenodd" d="M56.7376 53.2732C56.5347 53.3027 56.4945 53.1751 56.4355 53.0625C56.2562 53.075 56.2645 53.1395 56.3592 53.2877C56.5136 53.5289 57.1025 53.5145 57.0901 53.0705C56.8384 53.0526 56.98 53.2383 56.7376 53.2732Z" fill="#151710"/>
<path fill-rule="evenodd" clip-rule="evenodd" d="M29.8197 55.527L29.8204 53.6259L31.2218 53.6214L31.2225 55.5276C31.2403 55.493 31.2288 55.5623 31.248 55.4635L31.2505 55.2765C31.2477 54.9099 31.2729 53.7933 31.2365 53.5957L29.8031 53.6095C29.7633 53.8263 29.7907 54.3351 29.7907 54.583C29.7907 54.7745 29.7559 55.4115 29.8197 55.527Z" fill="#61533D"/>
<path fill-rule="evenodd" clip-rule="evenodd" d="M24.4029 53.8056L24.4147 55.5396L24.631 55.5313C24.6584 55.386 24.6584 53.7405 24.6294 53.609C24.4938 53.5794 23.9525 53.5971 23.7413 53.5964C23.7001 53.5964 23.6156 53.5907 23.5805 53.5939C23.464 53.6041 23.5093 53.582 23.4727 53.6385C23.7244 53.5904 24.3286 53.6208 24.6157 53.6215L24.6154 55.5136L24.4326 55.5143C24.4083 55.1695 24.4504 54.0923 24.4303 53.889L24.4131 53.8235C24.4122 53.8133 24.4061 53.8117 24.4029 53.8056Z" fill="#61533D"/>
<path fill-rule="evenodd" clip-rule="evenodd" d="M38.3069 55.3239C38.3624 55.3774 38.348 55.3582 38.5426 55.3591L39.3127 55.3611L39.3102 55.5147L38.1164 55.5121L38.1193 53.6104C38.1033 53.6411 38.1116 53.5796 38.0941 53.6761C38.0644 53.8381 38.0985 55.5205 38.1014 55.5426L39.3335 55.5314L39.3261 55.3322L38.3069 55.3239Z" fill="#61533D"/>
<path fill-rule="evenodd" clip-rule="evenodd" d="M48.6156 55.3289C48.7065 55.3809 48.8916 55.3569 49.1012 55.3565C49.2693 55.3565 49.4377 55.354 49.6055 55.3578L49.6068 55.5169L48.4083 55.5159C48.3984 55.2369 48.3591 53.7563 48.4379 53.6074C48.3869 53.6344 48.3802 53.5446 48.3837 53.8358C48.3847 53.9157 48.384 53.9962 48.384 54.0761C48.3843 54.2361 48.3843 54.3962 48.3843 54.5562C48.384 54.8266 48.3582 55.2853 48.3939 55.5432L49.6279 55.5313L49.6202 55.3299L48.6156 55.3289Z" fill="#655A43"/>
<path fill-rule="evenodd" clip-rule="evenodd" d="M54.7951 55.4907C54.6487 55.559 53.8042 55.5208 53.5854 55.5148L53.5848 53.6232C53.7912 53.6123 54.6308 53.5822 54.7686 53.6499C54.7329 53.5806 54.7929 53.5995 54.6493 53.5918L53.5586 53.6094L53.5717 55.5318C53.7356 55.5622 54.0186 55.5449 54.1963 55.5452C54.3794 55.5452 54.7693 55.5844 54.7951 55.4907Z" fill="#655A43"/>
<path fill-rule="evenodd" clip-rule="evenodd" d="M36.3553 55.5044C36.1246 55.5157 35.864 55.525 35.6244 55.5115L35.6266 53.6104C35.5619 53.7358 35.6008 55.4794 35.6081 55.5333C35.7166 55.5468 36.3215 55.5747 36.3553 55.5044Z" fill="#61533D"/>
<path fill-rule="evenodd" clip-rule="evenodd" d="M8.53591 55.3438L8.52698 53.6091C8.37226 53.5761 8.10014 53.5979 7.93042 53.5976C7.82419 53.5976 7.71796 53.5982 7.61204 53.5979C7.57217 53.5976 7.48412 53.5918 7.45094 53.595C7.3278 53.6062 7.37916 53.5832 7.34375 53.6419C7.60694 53.5873 8.20509 53.6293 8.51103 53.621L8.51422 55.2781C8.53208 55.3996 8.51358 55.2951 8.53591 55.3438Z" fill="#5D5233"/>
<path fill-rule="evenodd" clip-rule="evenodd" d="M51.1172 54.3804L51.1469 54.2915C51.1491 54.2742 51.1472 54.2055 51.1472 54.1834L51.1469 53.6214L52.2905 53.6349C52.2258 53.5717 52.1262 53.5948 51.9942 53.5955C51.783 53.5971 51.2687 53.5823 51.1217 53.6096L51.1172 54.3804Z" fill="#5D5442"/>
<path fill-rule="evenodd" clip-rule="evenodd" d="M20.5508 54.3373C20.6165 54.2863 20.5868 53.7477 20.5856 53.6261L21.749 53.6342C21.7063 53.5848 21.765 53.6184 21.6954 53.5986C21.6948 53.5982 21.624 53.5941 21.6198 53.5938L20.561 53.6098L20.5508 54.3373Z" fill="#5D5442"/>
<path fill-rule="evenodd" clip-rule="evenodd" d="M26.4102 54.5056C26.5106 54.5544 26.6947 54.5621 26.8198 54.53L26.8411 53.8888C26.8246 53.7589 26.8463 53.8631 26.8121 53.8086L26.8131 54.5107L26.4102 54.5056Z" fill="#776A55"/>
<path fill-rule="evenodd" clip-rule="evenodd" d="M10.6907 40.6337C10.6674 40.6474 10.6425 40.6691 10.6387 40.6621C10.6345 40.6551 10.6202 40.6666 10.6096 40.6733L10.543 40.6133C10.5832 40.7061 10.5691 40.6898 10.6454 40.7202L10.6907 40.6337Z" fill="#E7B888"/>
<path fill-rule="evenodd" clip-rule="evenodd" d="M64.7542 20.4395L64.7093 20.4548C64.744 20.4921 64.6509 20.5068 64.7517 20.4879C64.8423 20.3776 64.7581 20.4442 64.7542 20.4395Z" fill="#8E846F"/>
<path fill-rule="evenodd" clip-rule="evenodd" d="M0.0766419 20.2706L0.0664334 20.2588C0.00326822 20.3015 0.0294275 20.2515 0.00390625 20.3389C0.0750469 20.3111 0.0431452 20.3312 0.0766419 20.2706Z" fill="#504732"/>
<path fill-rule="evenodd" clip-rule="evenodd" d="M13.8906 55.1167C13.8913 55.1177 13.9136 55.2198 13.964 55.0947L13.8906 55.1167Z" fill="#675A46"/>
</g>
<defs>
<clipPath id="clip0_379_1266">
<rect width="65" height="56" fill="white"/>
</clipPath>
</defs>
</svg>
