<svg width="577" height="227" viewBox="0 0 577 227" fill="none" xmlns="http://www.w3.org/2000/svg">
<g filter="url(#filter0_d_366_4544)">
<mask id="path-1-outside-1_366_4544" maskUnits="userSpaceOnUse" x="0.0351562" y="66" width="567" height="131" fill="black">
<rect fill="white" x="0.0351562" y="66" width="567" height="131"/>
<path d="M31.1852 177.1C23.5352 177.1 17.3852 175.75 12.4352 173.05V149.95C16.4852 152.2 21.1352 153.25 26.2352 153.25C33.8852 153.25 37.7852 150.55 42.1352 142.15L2.68516 70H32.5352L55.4852 115.6L75.5852 70H104.235L65.6852 151.9C60.8852 162.25 54.1352 169.75 47.5352 172.9C40.9352 176.05 36.1352 177.1 31.1852 177.1ZM161.793 177.1C144.993 177.1 131.043 172 119.943 161.8C108.843 151.6 103.293 138.55 103.293 122.5C103.293 106.45 108.843 93.4 119.793 83.2C130.893 73 144.843 67.9 161.643 67.9C171.543 67.9 180.543 69.85 188.793 73.9V100.45C180.543 95.35 171.693 92.8 161.943 92.8C153.093 92.8 145.743 95.65 139.893 101.2C134.043 106.75 131.043 113.95 131.043 122.5C131.043 131.2 134.043 138.4 140.043 143.95C146.193 149.5 153.843 152.2 162.993 152.2C174.093 152.2 183.243 149.35 190.593 143.8V170.5C182.043 174.85 172.443 177.1 161.793 177.1ZM227.324 175H198.824L242.924 69.4H268.874L312.974 175H284.024L275.174 152.8H236.174L227.324 175ZM255.674 103.15L244.724 131.2H266.624L255.674 103.15ZM340.612 195.4H315.262V151.3H325.312C333.262 138.4 337.312 117.55 337.312 88.9V70H415.612V151.3H429.412V195.4H403.912V175H340.612V195.4ZM354.712 151.3H388.612V93.7H364.162C363.862 115.75 360.712 134.95 354.712 151.3ZM485.811 175H443.361V70H470.361V102.4H485.811C498.561 102.4 508.761 105.85 516.411 112.6C524.061 119.35 527.961 128.2 527.961 138.85C527.961 149.5 524.211 158.2 516.561 164.95C508.911 171.7 498.711 175 485.811 175ZM470.361 124.3V151.9H484.161C494.361 151.9 500.661 146.65 500.661 138.25C500.661 129.7 494.361 124.3 484.161 124.3H470.361ZM565.761 175H538.761V70H565.761V175Z"/>
</mask>
<path d="M31.1852 177.1C23.5352 177.1 17.3852 175.75 12.4352 173.05V149.95C16.4852 152.2 21.1352 153.25 26.2352 153.25C33.8852 153.25 37.7852 150.55 42.1352 142.15L2.68516 70H32.5352L55.4852 115.6L75.5852 70H104.235L65.6852 151.9C60.8852 162.25 54.1352 169.75 47.5352 172.9C40.9352 176.05 36.1352 177.1 31.1852 177.1ZM161.793 177.1C144.993 177.1 131.043 172 119.943 161.8C108.843 151.6 103.293 138.55 103.293 122.5C103.293 106.45 108.843 93.4 119.793 83.2C130.893 73 144.843 67.9 161.643 67.9C171.543 67.9 180.543 69.85 188.793 73.9V100.45C180.543 95.35 171.693 92.8 161.943 92.8C153.093 92.8 145.743 95.65 139.893 101.2C134.043 106.75 131.043 113.95 131.043 122.5C131.043 131.2 134.043 138.4 140.043 143.95C146.193 149.5 153.843 152.2 162.993 152.2C174.093 152.2 183.243 149.35 190.593 143.8V170.5C182.043 174.85 172.443 177.1 161.793 177.1ZM227.324 175H198.824L242.924 69.4H268.874L312.974 175H284.024L275.174 152.8H236.174L227.324 175ZM255.674 103.15L244.724 131.2H266.624L255.674 103.15ZM340.612 195.4H315.262V151.3H325.312C333.262 138.4 337.312 117.55 337.312 88.9V70H415.612V151.3H429.412V195.4H403.912V175H340.612V195.4ZM354.712 151.3H388.612V93.7H364.162C363.862 115.75 360.712 134.95 354.712 151.3ZM485.811 175H443.361V70H470.361V102.4H485.811C498.561 102.4 508.761 105.85 516.411 112.6C524.061 119.35 527.961 128.2 527.961 138.85C527.961 149.5 524.211 158.2 516.561 164.95C508.911 171.7 498.711 175 485.811 175ZM470.361 124.3V151.9H484.161C494.361 151.9 500.661 146.65 500.661 138.25C500.661 129.7 494.361 124.3 484.161 124.3H470.361ZM565.761 175H538.761V70H565.761V175Z" fill="#EFA35A"/>
<path d="M12.4352 173.05H11.4352V173.644L11.9563 173.928L12.4352 173.05ZM12.4352 149.95L12.9208 149.076L11.4352 148.25V149.95H12.4352ZM42.1352 142.15L43.0232 142.61L43.2679 142.137L43.0126 141.67L42.1352 142.15ZM2.68516 70V69H0.998657L1.80775 70.4797L2.68516 70ZM32.5352 70L33.4284 69.5504L33.1514 69H32.5352V70ZM55.4852 115.6L54.5919 116.05L55.5451 117.943L56.4002 116.003L55.4852 115.6ZM75.5852 70V69H74.9331L74.6701 69.5966L75.5852 70ZM104.235 70L105.14 70.4259L105.811 69H104.235V70ZM65.6852 151.9L64.7804 151.474L64.778 151.479L65.6852 151.9ZM47.5352 172.9L47.1044 171.998V171.998L47.5352 172.9ZM31.1852 176.1C23.6493 176.1 17.6766 174.77 12.914 172.172L11.9563 173.928C17.0937 176.73 23.421 178.1 31.1852 178.1V176.1ZM13.4352 173.05V149.95H11.4352V173.05H13.4352ZM11.9495 150.824C16.1734 153.171 20.9968 154.25 26.2352 154.25V152.25C21.2735 152.25 16.7969 151.229 12.9208 149.076L11.9495 150.824ZM26.2352 154.25C30.1811 154.25 33.2942 153.552 35.9944 151.67C38.6678 149.807 40.8217 146.861 43.0232 142.61L41.2472 141.69C39.0986 145.839 37.1275 148.443 34.8509 150.03C32.6011 151.598 29.9392 152.25 26.2352 152.25V154.25ZM43.0126 141.67L3.56256 69.5202L1.80775 70.4797L41.2578 142.63L43.0126 141.67ZM2.68516 71H32.5352V69H2.68516V71ZM31.6419 70.4496L54.5919 116.05L56.3784 115.15L33.4284 69.5504L31.6419 70.4496ZM56.4002 116.003L76.5002 70.4033L74.6701 69.5966L54.5701 115.197L56.4002 116.003ZM75.5852 71H104.235V69H75.5852V71ZM103.33 69.5741L64.7804 151.474L66.5899 152.326L105.14 70.4259L103.33 69.5741ZM64.778 151.479C60.0359 161.704 53.4222 168.982 47.1044 171.998L47.9659 173.802C54.8481 170.518 61.7344 162.796 66.5923 152.321L64.778 151.479ZM47.1044 171.998C40.6123 175.096 35.9592 176.1 31.1852 176.1V178.1C36.3112 178.1 41.258 177.004 47.9659 173.802L47.1044 171.998ZM119.943 161.8L120.62 161.064V161.064L119.943 161.8ZM119.793 83.2L119.116 82.4636L119.111 82.4683L119.793 83.2ZM188.793 73.9H189.793V73.2769L189.234 73.0023L188.793 73.9ZM188.793 100.45L188.267 101.301L189.793 102.244V100.45H188.793ZM139.893 101.2L140.581 101.925V101.925L139.893 101.2ZM140.043 143.95L139.364 144.684L139.373 144.692L140.043 143.95ZM190.593 143.8H191.593V141.792L189.99 143.002L190.593 143.8ZM190.593 170.5L191.046 171.391L191.593 171.113V170.5H190.593ZM161.793 176.1C145.213 176.1 131.513 171.074 120.62 161.064L119.266 162.536C130.572 172.926 144.773 178.1 161.793 178.1V176.1ZM120.62 161.064C109.739 151.065 104.293 138.289 104.293 122.5H102.293C102.293 138.811 107.947 152.135 119.266 162.536L120.62 161.064ZM104.293 122.5C104.293 106.71 109.74 93.931 120.475 83.9317L119.111 82.4683C107.946 92.8689 102.293 106.19 102.293 122.5H104.293ZM120.47 83.9363C131.363 73.9258 145.063 68.9 161.643 68.9V66.9C144.623 66.9 130.423 72.0742 119.116 82.4637L120.47 83.9363ZM161.643 68.9C171.407 68.9 180.253 70.8219 188.352 74.7977L189.234 73.0023C180.832 68.8781 171.679 66.9 161.643 66.9V68.9ZM187.793 73.9V100.45H189.793V73.9H187.793ZM189.319 99.5994C180.913 94.4028 171.881 91.8 161.943 91.8V93.8C171.505 93.8 180.173 96.2972 188.267 101.301L189.319 99.5994ZM161.943 91.8C152.857 91.8 145.255 94.7346 139.205 100.475L140.581 101.925C146.231 96.5654 153.329 93.8 161.943 93.8V91.8ZM139.205 100.475C133.143 106.225 130.043 113.693 130.043 122.5H132.043C132.043 114.207 134.943 107.275 140.581 101.925L139.205 100.475ZM130.043 122.5C130.043 131.456 133.143 138.93 139.364 144.684L140.722 143.216C134.943 137.87 132.043 130.944 132.043 122.5H130.043ZM139.373 144.692C145.731 150.43 153.63 153.2 162.993 153.2V151.2C154.056 151.2 146.655 148.57 140.713 143.208L139.373 144.692ZM162.993 153.2C174.272 153.2 183.644 150.301 191.196 144.598L189.99 143.002C182.842 148.399 173.914 151.2 162.993 151.2V153.2ZM189.593 143.8V170.5H191.593V143.8H189.593ZM190.14 169.609C181.741 173.882 172.298 176.1 161.793 176.1V178.1C172.588 178.1 182.345 175.818 191.046 171.391L190.14 169.609ZM227.324 175V176H228.002L228.253 175.37L227.324 175ZM198.824 175L197.901 174.615L197.323 176H198.824V175ZM242.924 69.4V68.4H242.258L242.001 69.0146L242.924 69.4ZM268.874 69.4L269.797 69.0146L269.54 68.4H268.874V69.4ZM312.974 175V176H314.476L313.897 174.615L312.974 175ZM284.024 175L283.095 175.37L283.346 176H284.024V175ZM275.174 152.8L276.103 152.43L275.852 151.8H275.174V152.8ZM236.174 152.8V151.8H235.496L235.245 152.43L236.174 152.8ZM255.674 103.15L256.606 102.786L255.674 100.4L254.743 102.786L255.674 103.15ZM244.724 131.2L243.793 130.836L243.26 132.2H244.724V131.2ZM266.624 131.2V132.2H268.088L267.556 130.836L266.624 131.2ZM227.324 174H198.824V176H227.324V174ZM199.747 175.385L243.847 69.7854L242.001 69.0146L197.901 174.615L199.747 175.385ZM242.924 70.4H268.874V68.4H242.924V70.4ZM267.951 69.7854L312.051 175.385L313.897 174.615L269.797 69.0146L267.951 69.7854ZM312.974 174H284.024V176H312.974V174ZM284.953 174.63L276.103 152.43L274.245 153.17L283.095 175.37L284.953 174.63ZM275.174 151.8H236.174V153.8H275.174V151.8ZM235.245 152.43L226.395 174.63L228.253 175.37L237.103 153.17L235.245 152.43ZM254.743 102.786L243.793 130.836L245.656 131.564L256.606 103.514L254.743 102.786ZM244.724 132.2H266.624V130.2H244.724V132.2ZM267.556 130.836L256.606 102.786L254.743 103.514L265.693 131.564L267.556 130.836ZM340.612 195.4V196.4H341.612V195.4H340.612ZM315.262 195.4H314.262V196.4H315.262V195.4ZM315.262 151.3V150.3H314.262V151.3H315.262ZM325.312 151.3V152.3H325.87L326.163 151.825L325.312 151.3ZM337.312 70V69H336.312V70H337.312ZM415.612 70H416.612V69H415.612V70ZM415.612 151.3H414.612V152.3H415.612V151.3ZM429.412 151.3H430.412V150.3H429.412V151.3ZM429.412 195.4V196.4H430.412V195.4H429.412ZM403.912 195.4H402.912V196.4H403.912V195.4ZM403.912 175H404.912V174H403.912V175ZM340.612 175V174H339.612V175H340.612ZM354.712 151.3L353.773 150.955L353.28 152.3H354.712V151.3ZM388.612 151.3V152.3H389.612V151.3H388.612ZM388.612 93.7H389.612V92.7H388.612V93.7ZM364.162 93.7V92.7H363.175L363.162 93.6864L364.162 93.7ZM340.612 194.4H315.262V196.4H340.612V194.4ZM316.262 195.4V151.3H314.262V195.4H316.262ZM315.262 152.3H325.312V150.3H315.262V152.3ZM326.163 151.825C334.263 138.681 338.312 117.599 338.312 88.9H336.312C336.312 117.501 332.26 138.119 324.46 150.775L326.163 151.825ZM338.312 88.9V70H336.312V88.9H338.312ZM337.312 71H415.612V69H337.312V71ZM414.612 70V151.3H416.612V70H414.612ZM415.612 152.3H429.412V150.3H415.612V152.3ZM428.412 151.3V195.4H430.412V151.3H428.412ZM429.412 194.4H403.912V196.4H429.412V194.4ZM404.912 195.4V175H402.912V195.4H404.912ZM403.912 174H340.612V176H403.912V174ZM339.612 175V195.4H341.612V175H339.612ZM354.712 152.3H388.612V150.3H354.712V152.3ZM389.612 151.3V93.7H387.612V151.3H389.612ZM388.612 92.7H364.162V94.7H388.612V92.7ZM363.162 93.6864C362.863 115.652 359.725 134.736 353.773 150.955L355.651 151.645C361.698 135.164 364.86 115.848 365.162 93.7136L363.162 93.6864ZM443.361 175H442.361V176H443.361V175ZM443.361 70V69H442.361V70H443.361ZM470.361 70H471.361V69H470.361V70ZM470.361 102.4H469.361V103.4H470.361V102.4ZM516.411 112.6L515.749 113.35V113.35L516.411 112.6ZM516.561 164.95L517.222 165.7V165.7L516.561 164.95ZM470.361 124.3V123.3H469.361V124.3H470.361ZM470.361 151.9H469.361V152.9H470.361V151.9ZM565.761 175V176H566.761V175H565.761ZM538.761 175H537.761V176H538.761V175ZM538.761 70V69H537.761V70H538.761ZM565.761 70H566.761V69H565.761V70ZM485.811 174H443.361V176H485.811V174ZM444.361 175V70H442.361V175H444.361ZM443.361 71H470.361V69H443.361V71ZM469.361 70V102.4H471.361V70H469.361ZM470.361 103.4H485.811V101.4H470.361V103.4ZM485.811 103.4C498.375 103.4 508.321 106.796 515.749 113.35L517.072 111.85C509.2 104.904 498.746 101.4 485.811 101.4V103.4ZM515.749 113.35C523.174 119.901 526.961 128.473 526.961 138.85H528.961C528.961 127.927 524.947 118.799 517.072 111.85L515.749 113.35ZM526.961 138.85C526.961 149.233 523.319 157.653 515.899 164.2L517.222 165.7C525.102 158.747 528.961 149.767 528.961 138.85H526.961ZM515.899 164.2C508.478 170.748 498.537 174 485.811 174V176C498.884 176 509.343 172.652 517.222 165.7L515.899 164.2ZM469.361 124.3V151.9H471.361V124.3H469.361ZM470.361 152.9H484.161V150.9H470.361V152.9ZM484.161 152.9C489.422 152.9 493.796 151.546 496.874 148.995C499.973 146.426 501.661 142.721 501.661 138.25H499.661C499.661 142.179 498.198 145.299 495.597 147.455C492.975 149.629 489.099 150.9 484.161 150.9V152.9ZM501.661 138.25C501.661 133.711 499.978 129.934 496.883 127.306C493.805 124.695 489.428 123.3 484.161 123.3V125.3C489.093 125.3 492.966 126.605 495.588 128.831C498.193 131.041 499.661 134.239 499.661 138.25H501.661ZM484.161 123.3H470.361V125.3H484.161V123.3ZM565.761 174H538.761V176H565.761V174ZM539.761 175V70H537.761V175H539.761ZM538.761 71H565.761V69H538.761V71ZM564.761 70V175H566.761V70H564.761Z" fill="#ED8929" mask="url(#path-1-outside-1_366_4544)"/>
</g>
<path d="M26.7998 6.67188V28H23.9873V8.98633H13.4697V28H10.6426V6.67188H26.7998ZM30.7988 20.251V19.9141C30.7988 18.7715 30.9648 17.7119 31.2969 16.7354C31.6289 15.749 32.1074 14.8945 32.7324 14.1719C33.3574 13.4395 34.1143 12.873 35.0029 12.4727C35.8916 12.0625 36.8877 11.8574 37.9912 11.8574C39.1045 11.8574 40.1055 12.0625 40.9941 12.4727C41.8926 12.873 42.6543 13.4395 43.2793 14.1719C43.9141 14.8945 44.3975 15.749 44.7295 16.7354C45.0615 17.7119 45.2275 18.7715 45.2275 19.9141V20.251C45.2275 21.3936 45.0615 22.4531 44.7295 23.4297C44.3975 24.4062 43.9141 25.2607 43.2793 25.9932C42.6543 26.7158 41.8975 27.2822 41.0088 27.6924C40.1299 28.0928 39.1338 28.293 38.0205 28.293C36.9072 28.293 35.9062 28.0928 35.0176 27.6924C34.1289 27.2822 33.3672 26.7158 32.7324 25.9932C32.1074 25.2607 31.6289 24.4062 31.2969 23.4297C30.9648 22.4531 30.7988 21.3936 30.7988 20.251ZM33.5088 19.9141V20.251C33.5088 21.042 33.6016 21.7891 33.7871 22.4922C33.9727 23.1855 34.251 23.8008 34.6221 24.3379C35.0029 24.875 35.4766 25.2998 36.043 25.6123C36.6094 25.915 37.2686 26.0664 38.0205 26.0664C38.7627 26.0664 39.4121 25.915 39.9688 25.6123C40.5352 25.2998 41.0039 24.875 41.375 24.3379C41.7461 23.8008 42.0244 23.1855 42.21 22.4922C42.4053 21.7891 42.5029 21.042 42.5029 20.251V19.9141C42.5029 19.1328 42.4053 18.3955 42.21 17.7021C42.0244 16.999 41.7412 16.3789 41.3604 15.8418C40.9893 15.2949 40.5205 14.8652 39.9541 14.5527C39.3975 14.2402 38.7432 14.084 37.9912 14.084C37.249 14.084 36.5947 14.2402 36.0283 14.5527C35.4717 14.8652 35.0029 15.2949 34.6221 15.8418C34.251 16.3789 33.9727 16.999 33.7871 17.7021C33.6016 18.3955 33.5088 19.1328 33.5088 19.9141ZM54.9688 26.0664C55.6133 26.0664 56.209 25.9346 56.7559 25.6709C57.3027 25.4072 57.752 25.0459 58.1035 24.5869C58.4551 24.1182 58.6553 23.5859 58.7041 22.9902H61.2822C61.2334 23.9277 60.916 24.8018 60.3301 25.6123C59.7539 26.4131 58.9971 27.0625 58.0596 27.5605C57.1221 28.0488 56.0918 28.293 54.9688 28.293C53.7773 28.293 52.7373 28.083 51.8486 27.6631C50.9697 27.2432 50.2373 26.667 49.6514 25.9346C49.0752 25.2021 48.6406 24.3623 48.3477 23.415C48.0645 22.458 47.9229 21.4473 47.9229 20.3828V19.7676C47.9229 18.7031 48.0645 17.6973 48.3477 16.75C48.6406 15.793 49.0752 14.9482 49.6514 14.2158C50.2373 13.4834 50.9697 12.9072 51.8486 12.4873C52.7373 12.0674 53.7773 11.8574 54.9688 11.8574C56.209 11.8574 57.293 12.1113 58.2207 12.6191C59.1484 13.1172 59.876 13.8008 60.4033 14.6699C60.9404 15.5293 61.2334 16.5059 61.2822 17.5996H58.7041C58.6553 16.9453 58.4697 16.3545 58.1475 15.8271C57.835 15.2998 57.4053 14.8799 56.8584 14.5674C56.3213 14.2451 55.6914 14.084 54.9688 14.084C54.1387 14.084 53.4404 14.25 52.874 14.582C52.3174 14.9043 51.873 15.3438 51.541 15.9004C51.2188 16.4473 50.9844 17.0576 50.8379 17.7314C50.7012 18.3955 50.6328 19.0742 50.6328 19.7676V20.3828C50.6328 21.0762 50.7012 21.7598 50.8379 22.4336C50.9746 23.1074 51.2041 23.7178 51.5264 24.2646C51.8584 24.8115 52.3027 25.251 52.8594 25.583C53.4258 25.9053 54.1289 26.0664 54.9688 26.0664ZM70.7891 12.1504V28H68.0645V12.1504H70.7891ZM76.1064 12.1504V14.3477H62.8496V12.1504H76.1064ZM81.4824 15.1973V34.0938H78.7578V12.1504H81.248L81.4824 15.1973ZM92.1611 19.9434V20.251C92.1611 21.4033 92.0244 22.4727 91.751 23.459C91.4775 24.4355 91.0771 25.2852 90.5498 26.0078C90.0322 26.7305 89.3926 27.292 88.6309 27.6924C87.8691 28.0928 86.9951 28.293 86.0088 28.293C85.0029 28.293 84.1143 28.127 83.3428 27.7949C82.5713 27.4629 81.917 26.9795 81.3799 26.3447C80.8428 25.71 80.4131 24.9482 80.0908 24.0596C79.7783 23.1709 79.5635 22.1699 79.4463 21.0566V19.416C79.5635 18.2441 79.7832 17.1943 80.1055 16.2666C80.4277 15.3389 80.8525 14.5479 81.3799 13.8936C81.917 13.2295 82.5664 12.7266 83.3281 12.3848C84.0898 12.0332 84.9688 11.8574 85.9648 11.8574C86.9609 11.8574 87.8447 12.0527 88.6162 12.4434C89.3877 12.8242 90.0371 13.3711 90.5645 14.084C91.0918 14.7969 91.4873 15.6514 91.751 16.6475C92.0244 17.6338 92.1611 18.7324 92.1611 19.9434ZM89.4365 20.251V19.9434C89.4365 19.1523 89.3535 18.4102 89.1875 17.7168C89.0215 17.0137 88.7627 16.3984 88.4111 15.8711C88.0693 15.334 87.6299 14.9141 87.0928 14.6113C86.5557 14.2988 85.916 14.1426 85.1738 14.1426C84.4902 14.1426 83.8945 14.2598 83.3867 14.4941C82.8887 14.7285 82.4639 15.0459 82.1123 15.4463C81.7607 15.8369 81.4727 16.2861 81.248 16.7939C81.0332 17.292 80.8721 17.8096 80.7646 18.3467V22.1406C80.96 22.8242 81.2334 23.4688 81.585 24.0742C81.9365 24.6699 82.4053 25.1533 82.9912 25.5244C83.5771 25.8857 84.3145 26.0664 85.2031 26.0664C85.9355 26.0664 86.5654 25.915 87.0928 25.6123C87.6299 25.2998 88.0693 24.875 88.4111 24.3379C88.7627 23.8008 89.0215 23.1855 89.1875 22.4922C89.3535 21.7891 89.4365 21.042 89.4365 20.251ZM94.9004 20.251V19.9141C94.9004 18.7715 95.0664 17.7119 95.3984 16.7354C95.7305 15.749 96.209 14.8945 96.834 14.1719C97.459 13.4395 98.2158 12.873 99.1045 12.4727C99.9932 12.0625 100.989 11.8574 102.093 11.8574C103.206 11.8574 104.207 12.0625 105.096 12.4727C105.994 12.873 106.756 13.4395 107.381 14.1719C108.016 14.8945 108.499 15.749 108.831 16.7354C109.163 17.7119 109.329 18.7715 109.329 19.9141V20.251C109.329 21.3936 109.163 22.4531 108.831 23.4297C108.499 24.4062 108.016 25.2607 107.381 25.9932C106.756 26.7158 105.999 27.2822 105.11 27.6924C104.231 28.0928 103.235 28.293 102.122 28.293C101.009 28.293 100.008 28.0928 99.1191 27.6924C98.2305 27.2822 97.4688 26.7158 96.834 25.9932C96.209 25.2607 95.7305 24.4062 95.3984 23.4297C95.0664 22.4531 94.9004 21.3936 94.9004 20.251ZM97.6104 19.9141V20.251C97.6104 21.042 97.7031 21.7891 97.8887 22.4922C98.0742 23.1855 98.3525 23.8008 98.7236 24.3379C99.1045 24.875 99.5781 25.2998 100.145 25.6123C100.711 25.915 101.37 26.0664 102.122 26.0664C102.864 26.0664 103.514 25.915 104.07 25.6123C104.637 25.2998 105.105 24.875 105.477 24.3379C105.848 23.8008 106.126 23.1855 106.312 22.4922C106.507 21.7891 106.604 21.042 106.604 20.251V19.9141C106.604 19.1328 106.507 18.3955 106.312 17.7021C106.126 16.999 105.843 16.3789 105.462 15.8418C105.091 15.2949 104.622 14.8652 104.056 14.5527C103.499 14.2402 102.845 14.084 102.093 14.084C101.351 14.084 100.696 14.2402 100.13 14.5527C99.5732 14.8652 99.1045 15.2949 98.7236 15.8418C98.3525 16.3789 98.0742 16.999 97.8887 17.7021C97.7031 18.3955 97.6104 19.1328 97.6104 19.9141ZM119.305 28.293C118.201 28.293 117.2 28.1074 116.302 27.7363C115.413 27.3555 114.646 26.8232 114.002 26.1396C113.367 25.4561 112.879 24.6455 112.537 23.708C112.195 22.7705 112.024 21.7451 112.024 20.6318V20.0166C112.024 18.7275 112.215 17.5801 112.596 16.5742C112.977 15.5586 113.494 14.6992 114.148 13.9961C114.803 13.293 115.545 12.7607 116.375 12.3994C117.205 12.0381 118.064 11.8574 118.953 11.8574C120.086 11.8574 121.062 12.0527 121.883 12.4434C122.713 12.834 123.392 13.3809 123.919 14.084C124.446 14.7773 124.837 15.5977 125.091 16.5449C125.345 17.4824 125.472 18.5078 125.472 19.6211V20.8369H113.636V18.625H122.762V18.4199C122.723 17.7168 122.576 17.0332 122.322 16.3691C122.078 15.7051 121.688 15.1582 121.15 14.7285C120.613 14.2988 119.881 14.084 118.953 14.084C118.338 14.084 117.771 14.2158 117.254 14.4795C116.736 14.7334 116.292 15.1143 115.921 15.6221C115.55 16.1299 115.262 16.75 115.057 17.4824C114.852 18.2148 114.749 19.0596 114.749 20.0166V20.6318C114.749 21.3838 114.852 22.0918 115.057 22.7559C115.271 23.4102 115.579 23.9863 115.979 24.4844C116.39 24.9824 116.883 25.373 117.459 25.6562C118.045 25.9395 118.709 26.0811 119.451 26.0811C120.408 26.0811 121.219 25.8857 121.883 25.4951C122.547 25.1045 123.128 24.582 123.626 23.9277L125.267 25.2314C124.925 25.749 124.49 26.2422 123.963 26.7109C123.436 27.1797 122.786 27.5605 122.015 27.8535C121.253 28.1465 120.35 28.293 119.305 28.293ZM139.388 19.0205V21.2178H131.009V19.0205H139.388ZM131.58 12.1504V28H128.87V12.1504H131.58ZM141.585 12.1504V28H138.86V12.1504H141.585ZM156.702 19.0205V21.2178H148.323V19.0205H156.702ZM148.895 12.1504V28H146.185V12.1504H148.895ZM158.899 12.1504V28H156.175V12.1504H158.899ZM165.491 17.5996H170.252C171.531 17.5996 172.61 17.8242 173.489 18.2734C174.368 18.7129 175.032 19.3232 175.481 20.1045C175.94 20.876 176.17 21.7549 176.17 22.7412C176.17 23.4736 176.043 24.1621 175.789 24.8066C175.535 25.4414 175.154 25.998 174.646 26.4766C174.148 26.9551 173.528 27.3311 172.786 27.6045C172.054 27.8682 171.209 28 170.252 28H163.514V12.1504H166.224V25.7734H170.252C171.033 25.7734 171.658 25.6318 172.127 25.3486C172.596 25.0654 172.933 24.6992 173.138 24.25C173.343 23.8008 173.445 23.332 173.445 22.8438C173.445 22.3652 173.343 21.8965 173.138 21.4375C172.933 20.9785 172.596 20.5977 172.127 20.2949C171.658 19.9824 171.033 19.8262 170.252 19.8262H165.491V17.5996ZM181.81 12.1504V28H179.1V12.1504H181.81ZM193.133 28.293C192.029 28.293 191.028 28.1074 190.13 27.7363C189.241 27.3555 188.475 26.8232 187.83 26.1396C187.195 25.4561 186.707 24.6455 186.365 23.708C186.023 22.7705 185.853 21.7451 185.853 20.6318V20.0166C185.853 18.7275 186.043 17.5801 186.424 16.5742C186.805 15.5586 187.322 14.6992 187.977 13.9961C188.631 13.293 189.373 12.7607 190.203 12.3994C191.033 12.0381 191.893 11.8574 192.781 11.8574C193.914 11.8574 194.891 12.0527 195.711 12.4434C196.541 12.834 197.22 13.3809 197.747 14.084C198.274 14.7773 198.665 15.5977 198.919 16.5449C199.173 17.4824 199.3 18.5078 199.3 19.6211V20.8369H187.464V18.625H196.59V18.4199C196.551 17.7168 196.404 17.0332 196.15 16.3691C195.906 15.7051 195.516 15.1582 194.979 14.7285C194.441 14.2988 193.709 14.084 192.781 14.084C192.166 14.084 191.6 14.2158 191.082 14.4795C190.564 14.7334 190.12 15.1143 189.749 15.6221C189.378 16.1299 189.09 16.75 188.885 17.4824C188.68 18.2148 188.577 19.0596 188.577 20.0166V20.6318C188.577 21.3838 188.68 22.0918 188.885 22.7559C189.1 23.4102 189.407 23.9863 189.808 24.4844C190.218 24.9824 190.711 25.373 191.287 25.6562C191.873 25.9395 192.537 26.0811 193.279 26.0811C194.236 26.0811 195.047 25.8857 195.711 25.4951C196.375 25.1045 196.956 24.582 197.454 23.9277L199.095 25.2314C198.753 25.749 198.318 26.2422 197.791 26.7109C197.264 27.1797 196.614 27.5605 195.843 27.8535C195.081 28.1465 194.178 28.293 193.133 28.293ZM209.378 12.2822V10.5098C209.378 9.91406 209.476 9.29395 209.671 8.64941C209.876 7.99512 210.169 7.37012 210.55 6.77441C210.931 6.16895 211.39 5.64648 211.927 5.20703L213.465 6.27637C213.016 6.9209 212.669 7.58496 212.425 8.26855C212.181 8.94238 212.059 9.6748 212.059 10.4658V12.2822H209.378ZM213.992 12.2822V10.5098C213.992 9.91406 214.09 9.29395 214.285 8.64941C214.49 7.99512 214.783 7.37012 215.164 6.77441C215.545 6.16895 216.004 5.64648 216.541 5.20703L218.079 6.27637C217.63 6.9209 217.283 7.58496 217.039 8.26855C216.795 8.94238 216.673 9.6748 216.673 10.4658V12.2822H213.992ZM223.162 12.1504V28H220.452V12.1504H223.162ZM233.562 12.1504L226.048 21.2324H222.254L221.844 18.8594H224.949L230.267 12.1504H233.562ZM230.647 28L224.817 20.8223L226.561 18.8594L234.09 28H230.647ZM235.408 20.251V19.9141C235.408 18.7715 235.574 17.7119 235.906 16.7354C236.238 15.749 236.717 14.8945 237.342 14.1719C237.967 13.4395 238.724 12.873 239.612 12.4727C240.501 12.0625 241.497 11.8574 242.601 11.8574C243.714 11.8574 244.715 12.0625 245.604 12.4727C246.502 12.873 247.264 13.4395 247.889 14.1719C248.523 14.8945 249.007 15.749 249.339 16.7354C249.671 17.7119 249.837 18.7715 249.837 19.9141V20.251C249.837 21.3936 249.671 22.4531 249.339 23.4297C249.007 24.4062 248.523 25.2607 247.889 25.9932C247.264 26.7158 246.507 27.2822 245.618 27.6924C244.739 28.0928 243.743 28.293 242.63 28.293C241.517 28.293 240.516 28.0928 239.627 27.6924C238.738 27.2822 237.977 26.7158 237.342 25.9932C236.717 25.2607 236.238 24.4062 235.906 23.4297C235.574 22.4531 235.408 21.3936 235.408 20.251ZM238.118 19.9141V20.251C238.118 21.042 238.211 21.7891 238.396 22.4922C238.582 23.1855 238.86 23.8008 239.231 24.3379C239.612 24.875 240.086 25.2998 240.652 25.6123C241.219 25.915 241.878 26.0664 242.63 26.0664C243.372 26.0664 244.021 25.915 244.578 25.6123C245.145 25.2998 245.613 24.875 245.984 24.3379C246.355 23.8008 246.634 23.1855 246.819 22.4922C247.015 21.7891 247.112 21.042 247.112 20.251V19.9141C247.112 19.1328 247.015 18.3955 246.819 17.7021C246.634 16.999 246.351 16.3789 245.97 15.8418C245.599 15.2949 245.13 14.8652 244.563 14.5527C244.007 14.2402 243.353 14.084 242.601 14.084C241.858 14.084 241.204 14.2402 240.638 14.5527C240.081 14.8652 239.612 15.2949 239.231 15.8418C238.86 16.3789 238.582 16.999 238.396 17.7021C238.211 18.3955 238.118 19.1328 238.118 19.9141ZM255.037 12.1504H257.747L257.513 18.083C257.454 19.5869 257.283 20.8857 257 21.9795C256.717 23.0732 256.355 24.0059 255.916 24.7773C255.477 25.5391 254.983 26.1787 254.437 26.6963C253.899 27.2139 253.343 27.6484 252.767 28H251.419L251.492 25.7881L252.049 25.7734C252.371 25.3926 252.684 25.002 252.986 24.6016C253.289 24.1914 253.567 23.708 253.821 23.1514C254.075 22.585 254.285 21.8965 254.451 21.0859C254.627 20.2656 254.739 19.2646 254.788 18.083L255.037 12.1504ZM255.711 12.1504H265.247V28H262.537V14.6553H255.711V12.1504ZM250.804 25.7734H267.283V32.6729H264.573V28H253.514V32.6729H250.789L250.804 25.7734ZM280.672 12.1504V28H277.962V12.1504H280.672ZM291.072 12.1504L283.558 21.2324H279.764L279.354 18.8594H282.459L287.776 12.1504H291.072ZM288.157 28L282.327 20.8223L284.07 18.8594L291.6 28H288.157ZM304.549 12.1504V14.3916H296.888V12.1504H304.549ZM306.937 12.1504V28H304.227V12.1504H306.937ZM296.229 12.1504H298.953L298.543 19.7969C298.475 20.9785 298.362 22.0234 298.206 22.9316C298.06 23.8301 297.854 24.6016 297.591 25.2461C297.337 25.8906 297.015 26.418 296.624 26.8281C296.243 27.2285 295.784 27.5264 295.247 27.7217C294.71 27.9072 294.09 28 293.387 28H292.537V25.6123L293.123 25.5684C293.543 25.5391 293.899 25.4414 294.192 25.2754C294.495 25.1094 294.749 24.8652 294.954 24.543C295.159 24.2109 295.325 23.7861 295.452 23.2686C295.589 22.751 295.691 22.1357 295.76 21.4229C295.838 20.71 295.896 19.8799 295.936 18.9326L296.229 12.1504ZM320.325 18.874V21.0859H311.902V18.874H320.325ZM314.261 12.1504V28H311.551V12.1504H314.261ZM318.011 20.251V19.9141C318.011 18.7715 318.177 17.7119 318.509 16.7354C318.841 15.749 319.319 14.8945 319.944 14.1719C320.579 13.4395 321.336 12.873 322.215 12.4727C323.104 12.0625 324.1 11.8574 325.203 11.8574C326.326 11.8574 327.332 12.0625 328.221 12.4727C329.109 12.873 329.866 13.4395 330.491 14.1719C331.126 14.8945 331.609 15.749 331.941 16.7354C332.273 17.7119 332.439 18.7715 332.439 19.9141V20.251C332.439 21.3936 332.273 22.4531 331.941 23.4297C331.609 24.4062 331.131 25.2607 330.506 25.9932C329.881 26.7158 329.124 27.2822 328.235 27.6924C327.347 28.0928 326.346 28.293 325.232 28.293C324.119 28.293 323.118 28.0928 322.229 27.6924C321.341 27.2822 320.579 26.7158 319.944 25.9932C319.319 25.2607 318.841 24.4062 318.509 23.4297C318.177 22.4531 318.011 21.3936 318.011 20.251ZM320.735 19.9141V20.251C320.735 21.042 320.828 21.7891 321.014 22.4922C321.199 23.1855 321.478 23.8008 321.849 24.3379C322.229 24.875 322.698 25.2998 323.255 25.6123C323.821 25.915 324.48 26.0664 325.232 26.0664C325.984 26.0664 326.639 25.915 327.195 25.6123C327.762 25.2998 328.23 24.875 328.602 24.3379C328.973 23.8008 329.251 23.1855 329.437 22.4922C329.632 21.7891 329.729 21.042 329.729 20.251V19.9141C329.729 19.1328 329.632 18.3955 329.437 17.7021C329.251 16.999 328.968 16.3789 328.587 15.8418C328.216 15.2949 327.747 14.8652 327.181 14.5527C326.614 14.2402 325.955 14.084 325.203 14.084C324.461 14.084 323.812 14.2402 323.255 14.5527C322.698 14.8652 322.229 15.2949 321.849 15.8418C321.478 16.3789 321.199 16.999 321.014 17.7021C320.828 18.3955 320.735 19.1328 320.735 19.9141ZM347.747 12.1504V28H345.037V12.1504H347.747ZM346.824 19.4307V21.6572C346.277 21.8623 345.721 22.0479 345.154 22.2139C344.598 22.3701 344.007 22.4971 343.382 22.5947C342.767 22.6826 342.098 22.7266 341.375 22.7266C340.125 22.7266 339.041 22.5117 338.123 22.082C337.205 21.6426 336.497 20.9834 335.999 20.1045C335.501 19.2158 335.252 18.0977 335.252 16.75V12.1211H337.962V16.75C337.962 17.6289 338.094 18.3418 338.357 18.8887C338.621 19.4355 339.007 19.8408 339.515 20.1045C340.022 20.3584 340.643 20.4854 341.375 20.4854C342.078 20.4854 342.737 20.4414 343.353 20.3535C343.978 20.2559 344.573 20.1289 345.14 19.9727C345.716 19.8164 346.277 19.6357 346.824 19.4307ZM355.027 5.5V7.375C355.027 7.96094 354.925 8.58105 354.72 9.23535C354.524 9.87988 354.236 10.5049 353.855 11.1104C353.475 11.7061 353.016 12.2285 352.479 12.6777L350.926 11.6084C351.385 10.9639 351.731 10.3047 351.966 9.63086C352.21 8.94727 352.332 8.20996 352.332 7.41895V5.5H355.027ZM359.524 5.5V7.375C359.524 7.96094 359.422 8.58105 359.217 9.23535C359.021 9.87988 358.733 10.5049 358.353 11.1104C357.972 11.7061 357.513 12.2285 356.976 12.6777L355.423 11.6084C355.882 10.9639 356.229 10.3047 356.463 9.63086C356.707 8.94727 356.829 8.20996 356.829 7.41895V5.5H359.524ZM373.133 12.1504H375.843L375.608 18.083C375.55 19.5869 375.379 20.8857 375.096 21.9795C374.812 23.0732 374.451 24.0059 374.012 24.7773C373.572 25.5391 373.079 26.1787 372.532 26.6963C371.995 27.2139 371.438 27.6484 370.862 28H369.515L369.588 25.7881L370.145 25.7734C370.467 25.3926 370.779 25.002 371.082 24.6016C371.385 24.1914 371.663 23.708 371.917 23.1514C372.171 22.585 372.381 21.8965 372.547 21.0859C372.723 20.2656 372.835 19.2646 372.884 18.083L373.133 12.1504ZM373.807 12.1504H383.343V28H380.633V14.6553H373.807V12.1504ZM368.899 25.7734H385.379V32.6729H382.669V28H371.609V32.6729H368.885L368.899 25.7734ZM387.664 20.251V19.9141C387.664 18.7715 387.83 17.7119 388.162 16.7354C388.494 15.749 388.973 14.8945 389.598 14.1719C390.223 13.4395 390.979 12.873 391.868 12.4727C392.757 12.0625 393.753 11.8574 394.856 11.8574C395.97 11.8574 396.971 12.0625 397.859 12.4727C398.758 12.873 399.52 13.4395 400.145 14.1719C400.779 14.8945 401.263 15.749 401.595 16.7354C401.927 17.7119 402.093 18.7715 402.093 19.9141V20.251C402.093 21.3936 401.927 22.4531 401.595 23.4297C401.263 24.4062 400.779 25.2607 400.145 25.9932C399.52 26.7158 398.763 27.2822 397.874 27.6924C396.995 28.0928 395.999 28.293 394.886 28.293C393.772 28.293 392.771 28.0928 391.883 27.6924C390.994 27.2822 390.232 26.7158 389.598 25.9932C388.973 25.2607 388.494 24.4062 388.162 23.4297C387.83 22.4531 387.664 21.3936 387.664 20.251ZM390.374 19.9141V20.251C390.374 21.042 390.467 21.7891 390.652 22.4922C390.838 23.1855 391.116 23.8008 391.487 24.3379C391.868 24.875 392.342 25.2998 392.908 25.6123C393.475 25.915 394.134 26.0664 394.886 26.0664C395.628 26.0664 396.277 25.915 396.834 25.6123C397.4 25.2998 397.869 24.875 398.24 24.3379C398.611 23.8008 398.89 23.1855 399.075 22.4922C399.271 21.7891 399.368 21.042 399.368 20.251V19.9141C399.368 19.1328 399.271 18.3955 399.075 17.7021C398.89 16.999 398.606 16.3789 398.226 15.8418C397.854 15.2949 397.386 14.8652 396.819 14.5527C396.263 14.2402 395.608 14.084 394.856 14.084C394.114 14.084 393.46 14.2402 392.894 14.5527C392.337 14.8652 391.868 15.2949 391.487 15.8418C391.116 16.3789 390.838 16.999 390.652 17.7021C390.467 18.3955 390.374 19.1328 390.374 19.9141ZM414.603 24.3965L419.993 12.1504H422.601L415.54 28H413.665L406.634 12.1504H409.241L414.603 24.3965ZM408.45 12.1504V28H405.74V12.1504H408.45ZM420.667 28V12.1504H423.392V28H420.667ZM437.103 25.29V17.1309C437.103 16.5059 436.976 15.9639 436.722 15.5049C436.478 15.0361 436.106 14.6748 435.608 14.4209C435.11 14.167 434.495 14.04 433.763 14.04C433.079 14.04 432.479 14.1572 431.961 14.3916C431.453 14.626 431.053 14.9336 430.76 15.3145C430.477 15.6953 430.335 16.1055 430.335 16.5449H427.625C427.625 15.9785 427.771 15.417 428.064 14.8604C428.357 14.3037 428.777 13.8008 429.324 13.3516C429.881 12.8926 430.545 12.5312 431.316 12.2676C432.098 11.9941 432.967 11.8574 433.924 11.8574C435.076 11.8574 436.092 12.0527 436.971 12.4434C437.859 12.834 438.553 13.4248 439.051 14.2158C439.559 14.9971 439.812 15.9785 439.812 17.1602V24.543C439.812 25.0703 439.856 25.6318 439.944 26.2275C440.042 26.8232 440.184 27.3359 440.369 27.7656V28H437.542C437.405 27.6875 437.298 27.2725 437.22 26.7549C437.142 26.2275 437.103 25.7393 437.103 25.29ZM437.571 18.3906L437.601 20.2949H434.861C434.09 20.2949 433.401 20.3584 432.796 20.4854C432.19 20.6025 431.683 20.7832 431.272 21.0273C430.862 21.2715 430.55 21.5791 430.335 21.9502C430.12 22.3115 430.013 22.7363 430.013 23.2246C430.013 23.7227 430.125 24.1768 430.35 24.5869C430.574 24.9971 430.911 25.3242 431.36 25.5684C431.819 25.8027 432.381 25.9199 433.045 25.9199C433.875 25.9199 434.607 25.7441 435.242 25.3926C435.877 25.041 436.38 24.6113 436.751 24.1035C437.132 23.5957 437.337 23.1025 437.366 22.624L438.523 23.9277C438.455 24.3379 438.27 24.792 437.967 25.29C437.664 25.7881 437.259 26.2666 436.751 26.7256C436.253 27.1748 435.657 27.5508 434.964 27.8535C434.28 28.1465 433.509 28.293 432.649 28.293C431.575 28.293 430.633 28.083 429.822 27.6631C429.021 27.2432 428.396 26.6816 427.947 25.9785C427.508 25.2656 427.288 24.4697 427.288 23.5908C427.288 22.7412 427.454 21.9941 427.786 21.3496C428.118 20.6953 428.597 20.1533 429.222 19.7236C429.847 19.2842 430.599 18.9521 431.478 18.7275C432.356 18.5029 433.338 18.3906 434.422 18.3906H437.571Z" fill="white"/>
<defs>
<filter id="filter0_d_366_4544" x="0" y="66.9004" width="567.762" height="131.5" filterUnits="userSpaceOnUse" color-interpolation-filters="sRGB">
<feFlood flood-opacity="0" result="BackgroundImageFix"/>
<feColorMatrix in="SourceAlpha" type="matrix" values="0 0 0 0 0 0 0 0 0 0 0 0 0 0 0 0 0 0 127 0" result="hardAlpha"/>
<feOffset dy="1"/>
<feGaussianBlur stdDeviation="0.5"/>
<feComposite in2="hardAlpha" operator="out"/>
<feColorMatrix type="matrix" values="0 0 0 0 0.0823529 0 0 0 0 0.0901961 0 0 0 0 0.0627451 0 0 0 1 0"/>
<feBlend mode="normal" in2="BackgroundImageFix" result="effect1_dropShadow_366_4544"/>
<feBlend mode="normal" in="SourceGraphic" in2="effect1_dropShadow_366_4544" result="shape"/>
</filter>
</defs>
</svg>
