<svg width="1680" height="105" viewBox="0 0 1680 105" fill="none" xmlns="http://www.w3.org/2000/svg">
<mask id="path-1-inside-1_379_1246" fill="white">
<path d="M0 0H1680V105H0V0Z"/>
</mask>
<path d="M0 0H1680V105H0V0Z" fill="white" fill-opacity="0.7"/>
<path d="M1680 104H0V106H1680V104Z" fill="#E3E3E3" mask="url(#path-1-inside-1_379_1246)"/>
<path d="M328.848 51.7051V53.085H321.922V51.7051H328.848ZM322.186 46.2031V59H320.489V46.2031H322.186ZM330.324 46.2031V59H328.637V46.2031H330.324ZM338.7 57.374V52.4785C338.7 52.1035 338.624 51.7783 338.472 51.5029C338.325 51.2217 338.103 51.0049 337.804 50.8525C337.505 50.7002 337.136 50.624 336.696 50.624C336.286 50.624 335.926 50.6943 335.615 50.835C335.311 50.9756 335.07 51.1602 334.895 51.3887C334.725 51.6172 334.64 51.8633 334.64 52.127H333.014C333.014 51.7871 333.102 51.4502 333.277 51.1162C333.453 50.7822 333.705 50.4805 334.033 50.2109C334.367 49.9355 334.766 49.7188 335.229 49.5605C335.697 49.3965 336.219 49.3145 336.793 49.3145C337.484 49.3145 338.094 49.4316 338.621 49.666C339.154 49.9004 339.57 50.2549 339.869 50.7295C340.174 51.1982 340.326 51.7871 340.326 52.4961V56.9258C340.326 57.2422 340.353 57.5791 340.405 57.9365C340.464 58.2939 340.549 58.6016 340.66 58.8594V59H338.964C338.882 58.8125 338.817 58.5635 338.771 58.2529C338.724 57.9365 338.7 57.6436 338.7 57.374ZM338.981 53.2344L338.999 54.377H337.355C336.893 54.377 336.479 54.415 336.116 54.4912C335.753 54.5615 335.448 54.6699 335.202 54.8164C334.956 54.9629 334.769 55.1475 334.64 55.3701C334.511 55.5869 334.446 55.8418 334.446 56.1348C334.446 56.4336 334.514 56.7061 334.648 56.9521C334.783 57.1982 334.985 57.3945 335.255 57.541C335.53 57.6816 335.867 57.752 336.266 57.752C336.764 57.752 337.203 57.6465 337.584 57.4355C337.965 57.2246 338.267 56.9668 338.489 56.6621C338.718 56.3574 338.841 56.0615 338.858 55.7744L339.553 56.5566C339.512 56.8027 339.4 57.0752 339.219 57.374C339.037 57.6729 338.794 57.96 338.489 58.2354C338.19 58.5049 337.833 58.7305 337.417 58.9121C337.007 59.0879 336.544 59.1758 336.028 59.1758C335.384 59.1758 334.818 59.0498 334.332 58.7979C333.852 58.5459 333.477 58.209 333.207 57.7871C332.943 57.3594 332.812 56.8818 332.812 56.3545C332.812 55.8447 332.911 55.3965 333.11 55.0098C333.31 54.6172 333.597 54.292 333.972 54.0342C334.347 53.7705 334.798 53.5713 335.325 53.4365C335.853 53.3018 336.441 53.2344 337.092 53.2344H338.981ZM343.024 49.4902H344.65V57.6641H348.131V49.4902H349.766V57.6641H353.237V49.4902H354.863V59H343.024V49.4902ZM359.214 56.4248L363.6 49.4902H365.234V59H363.6V52.0654L359.214 59H357.597V49.4902H359.214V56.4248ZM378.646 49.4902V50.835H373.839V49.4902H378.646ZM374.076 49.4902V59H372.45V49.4902H374.076ZM380.088 49.4902V59H378.453V49.4902H380.088ZM384.324 51.3184V62.6562H382.689V49.4902H384.184L384.324 51.3184ZM390.731 54.166V54.3506C390.731 55.042 390.649 55.6836 390.485 56.2754C390.321 56.8613 390.081 57.3711 389.765 57.8047C389.454 58.2383 389.07 58.5752 388.613 58.8154C388.156 59.0557 387.632 59.1758 387.04 59.1758C386.437 59.1758 385.903 59.0762 385.44 58.877C384.978 58.6777 384.585 58.3877 384.263 58.0068C383.94 57.626 383.683 57.1689 383.489 56.6357C383.302 56.1025 383.173 55.502 383.103 54.834V53.8496C383.173 53.1465 383.305 52.5166 383.498 51.96C383.691 51.4033 383.946 50.9287 384.263 50.5361C384.585 50.1377 384.975 49.8359 385.432 49.6309C385.889 49.4199 386.416 49.3145 387.014 49.3145C387.611 49.3145 388.142 49.4316 388.604 49.666C389.067 49.8945 389.457 50.2227 389.773 50.6504C390.09 51.0781 390.327 51.5908 390.485 52.1885C390.649 52.7803 390.731 53.4395 390.731 54.166ZM389.097 54.3506V54.166C389.097 53.6914 389.047 53.2461 388.947 52.8301C388.848 52.4082 388.692 52.0391 388.481 51.7227C388.276 51.4004 388.013 51.1484 387.69 50.9668C387.368 50.7793 386.984 50.6855 386.539 50.6855C386.129 50.6855 385.771 50.7559 385.467 50.8965C385.168 51.0371 384.913 51.2275 384.702 51.4678C384.491 51.7021 384.318 51.9717 384.184 52.2764C384.055 52.5752 383.958 52.8857 383.894 53.208V55.4844C384.011 55.8945 384.175 56.2812 384.386 56.6445C384.597 57.002 384.878 57.292 385.229 57.5146C385.581 57.7314 386.023 57.8398 386.557 57.8398C386.996 57.8398 387.374 57.749 387.69 57.5674C388.013 57.3799 388.276 57.125 388.481 56.8027C388.692 56.4805 388.848 56.1113 388.947 55.6953C389.047 55.2734 389.097 54.8252 389.097 54.3506ZM392.375 54.3506V54.1484C392.375 53.4629 392.475 52.8271 392.674 52.2412C392.873 51.6494 393.16 51.1367 393.535 50.7031C393.91 50.2637 394.364 49.9238 394.897 49.6836C395.431 49.4375 396.028 49.3145 396.69 49.3145C397.358 49.3145 397.959 49.4375 398.492 49.6836C399.031 49.9238 399.488 50.2637 399.863 50.7031C400.244 51.1367 400.534 51.6494 400.733 52.2412C400.933 52.8271 401.032 53.4629 401.032 54.1484V54.3506C401.032 55.0361 400.933 55.6719 400.733 56.2578C400.534 56.8438 400.244 57.3564 399.863 57.7959C399.488 58.2295 399.034 58.5693 398.501 58.8154C397.974 59.0557 397.376 59.1758 396.708 59.1758C396.04 59.1758 395.439 59.0557 394.906 58.8154C394.373 58.5693 393.916 58.2295 393.535 57.7959C393.16 57.3564 392.873 56.8438 392.674 56.2578C392.475 55.6719 392.375 55.0361 392.375 54.3506ZM394.001 54.1484V54.3506C394.001 54.8252 394.057 55.2734 394.168 55.6953C394.279 56.1113 394.446 56.4805 394.669 56.8027C394.897 57.125 395.182 57.3799 395.521 57.5674C395.861 57.749 396.257 57.8398 396.708 57.8398C397.153 57.8398 397.543 57.749 397.877 57.5674C398.217 57.3799 398.498 57.125 398.721 56.8027C398.943 56.4805 399.11 56.1113 399.222 55.6953C399.339 55.2734 399.397 54.8252 399.397 54.3506V54.1484C399.397 53.6797 399.339 53.2373 399.222 52.8213C399.11 52.3994 398.94 52.0273 398.712 51.7051C398.489 51.377 398.208 51.1191 397.868 50.9316C397.534 50.7441 397.142 50.6504 396.69 50.6504C396.245 50.6504 395.853 50.7441 395.513 50.9316C395.179 51.1191 394.897 51.377 394.669 51.7051C394.446 52.0273 394.279 52.3994 394.168 52.8213C394.057 53.2373 394.001 53.6797 394.001 54.1484ZM407.018 59.1758C406.355 59.1758 405.755 59.0645 405.216 58.8418C404.683 58.6133 404.223 58.2939 403.836 57.8838C403.455 57.4736 403.162 56.9873 402.957 56.4248C402.752 55.8623 402.649 55.2471 402.649 54.5791V54.21C402.649 53.4365 402.764 52.748 402.992 52.1445C403.221 51.5352 403.531 51.0195 403.924 50.5977C404.316 50.1758 404.762 49.8564 405.26 49.6396C405.758 49.4229 406.273 49.3145 406.807 49.3145C407.486 49.3145 408.072 49.4316 408.564 49.666C409.062 49.9004 409.47 50.2285 409.786 50.6504C410.103 51.0664 410.337 51.5586 410.489 52.127C410.642 52.6895 410.718 53.3047 410.718 53.9727V54.7021H403.616V53.375H409.092V53.252C409.068 52.8301 408.98 52.4199 408.828 52.0215C408.682 51.623 408.447 51.2949 408.125 51.0371C407.803 50.7793 407.363 50.6504 406.807 50.6504C406.438 50.6504 406.098 50.7295 405.787 50.8877C405.477 51.04 405.21 51.2686 404.987 51.5732C404.765 51.8779 404.592 52.25 404.469 52.6895C404.346 53.1289 404.284 53.6357 404.284 54.21V54.5791C404.284 55.0303 404.346 55.4551 404.469 55.8535C404.598 56.2461 404.782 56.5918 405.022 56.8906C405.269 57.1895 405.564 57.4238 405.91 57.5938C406.262 57.7637 406.66 57.8486 407.105 57.8486C407.68 57.8486 408.166 57.7314 408.564 57.4971C408.963 57.2627 409.312 56.9492 409.61 56.5566L410.595 57.3389C410.39 57.6494 410.129 57.9453 409.812 58.2266C409.496 58.5078 409.106 58.7363 408.644 58.9121C408.187 59.0879 407.645 59.1758 407.018 59.1758ZM414.383 49.4902V59H412.757V49.4902H414.383ZM420.623 49.4902L416.114 54.9395H413.838L413.592 53.5156H415.455L418.646 49.4902H420.623ZM418.874 59L415.376 54.6934L416.422 53.5156L420.939 59H418.874ZM426.23 49.4902V59H424.596V49.4902H426.23ZM429.421 49.4902V50.8086H421.467V49.4902H429.421ZM432.356 52.7598H435.213C435.98 52.7598 436.628 52.8945 437.155 53.1641C437.683 53.4277 438.081 53.7939 438.351 54.2627C438.626 54.7256 438.764 55.2529 438.764 55.8447C438.764 56.2842 438.688 56.6973 438.535 57.084C438.383 57.4648 438.154 57.7988 437.85 58.0859C437.551 58.373 437.179 58.5986 436.733 58.7627C436.294 58.9209 435.787 59 435.213 59H431.17V49.4902H432.796V57.6641H435.213C435.682 57.6641 436.057 57.5791 436.338 57.4092C436.619 57.2393 436.821 57.0195 436.944 56.75C437.067 56.4805 437.129 56.1992 437.129 55.9062C437.129 55.6191 437.067 55.3379 436.944 55.0625C436.821 54.7871 436.619 54.5586 436.338 54.377C436.057 54.1895 435.682 54.0957 435.213 54.0957H432.356V52.7598ZM442.147 49.4902V59H440.521V49.4902H442.147Z" fill="black"/>
<path d="M449.004 51L454.004 56L459.004 51H449.004Z" fill="black"/>
<path d="M505.553 57.6201V59H495.867V57.6201H505.553ZM496.14 57.6201V62.1465H494.461L494.452 57.6201H496.14ZM507.029 57.6201L507.012 62.1377H505.333V57.6201H507.029ZM503.892 46.2031V47.5918H498.284V46.2031H503.892ZM505.351 46.2031V59H503.663V46.2031H505.351ZM497.704 46.2031H499.4L499.137 51.3535C499.102 52.127 499.028 52.8418 498.917 53.498C498.806 54.1484 498.668 54.7432 498.504 55.2822C498.34 55.8213 498.152 56.3047 497.941 56.7324C497.73 57.1543 497.505 57.5205 497.265 57.8311C497.024 58.1357 496.772 58.3877 496.509 58.5869C496.251 58.7803 495.99 58.918 495.727 59H494.953V57.6201H495.498C495.65 57.4561 495.823 57.2188 496.017 56.9082C496.216 56.5977 496.412 56.1963 496.605 55.7041C496.805 55.2061 496.978 54.5996 497.124 53.8848C497.276 53.1699 497.379 52.3262 497.432 51.3535L497.704 46.2031ZM508.348 54.3506V54.1484C508.348 53.4629 508.447 52.8271 508.646 52.2412C508.846 51.6494 509.133 51.1367 509.508 50.7031C509.883 50.2637 510.337 49.9238 510.87 49.6836C511.403 49.4375 512.001 49.3145 512.663 49.3145C513.331 49.3145 513.932 49.4375 514.465 49.6836C515.004 49.9238 515.461 50.2637 515.836 50.7031C516.217 51.1367 516.507 51.6494 516.706 52.2412C516.905 52.8271 517.005 53.4629 517.005 54.1484V54.3506C517.005 55.0361 516.905 55.6719 516.706 56.2578C516.507 56.8438 516.217 57.3564 515.836 57.7959C515.461 58.2295 515.007 58.5693 514.474 58.8154C513.946 59.0557 513.349 59.1758 512.681 59.1758C512.013 59.1758 511.412 59.0557 510.879 58.8154C510.346 58.5693 509.889 58.2295 509.508 57.7959C509.133 57.3564 508.846 56.8438 508.646 56.2578C508.447 55.6719 508.348 55.0361 508.348 54.3506ZM509.974 54.1484V54.3506C509.974 54.8252 510.029 55.2734 510.141 55.6953C510.252 56.1113 510.419 56.4805 510.642 56.8027C510.87 57.125 511.154 57.3799 511.494 57.5674C511.834 57.749 512.229 57.8398 512.681 57.8398C513.126 57.8398 513.516 57.749 513.85 57.5674C514.189 57.3799 514.471 57.125 514.693 56.8027C514.916 56.4805 515.083 56.1113 515.194 55.6953C515.312 55.2734 515.37 54.8252 515.37 54.3506V54.1484C515.37 53.6797 515.312 53.2373 515.194 52.8213C515.083 52.3994 514.913 52.0273 514.685 51.7051C514.462 51.377 514.181 51.1191 513.841 50.9316C513.507 50.7441 513.114 50.6504 512.663 50.6504C512.218 50.6504 511.825 50.7441 511.485 50.9316C511.151 51.1191 510.87 51.377 510.642 51.7051C510.419 52.0273 510.252 52.3994 510.141 52.8213C510.029 53.2373 509.974 53.6797 509.974 54.1484ZM524.511 56.8379L527.745 49.4902H529.31L525.073 59H523.948L519.729 49.4902H521.294L524.511 56.8379ZM520.819 49.4902V59H519.193V49.4902H520.819ZM528.149 59V49.4902H529.784V59H528.149ZM538.011 57.374V52.4785C538.011 52.1035 537.935 51.7783 537.782 51.5029C537.636 51.2217 537.413 51.0049 537.114 50.8525C536.815 50.7002 536.446 50.624 536.007 50.624C535.597 50.624 535.236 50.6943 534.926 50.835C534.621 50.9756 534.381 51.1602 534.205 51.3887C534.035 51.6172 533.95 51.8633 533.95 52.127H532.324C532.324 51.7871 532.412 51.4502 532.588 51.1162C532.764 50.7822 533.016 50.4805 533.344 50.2109C533.678 49.9355 534.076 49.7188 534.539 49.5605C535.008 49.3965 535.529 49.3145 536.104 49.3145C536.795 49.3145 537.404 49.4316 537.932 49.666C538.465 49.9004 538.881 50.2549 539.18 50.7295C539.484 51.1982 539.637 51.7871 539.637 52.4961V56.9258C539.637 57.2422 539.663 57.5791 539.716 57.9365C539.774 58.2939 539.859 58.6016 539.971 58.8594V59H538.274C538.192 58.8125 538.128 58.5635 538.081 58.2529C538.034 57.9365 538.011 57.6436 538.011 57.374ZM538.292 53.2344L538.31 54.377H536.666C536.203 54.377 535.79 54.415 535.427 54.4912C535.063 54.5615 534.759 54.6699 534.513 54.8164C534.267 54.9629 534.079 55.1475 533.95 55.3701C533.821 55.5869 533.757 55.8418 533.757 56.1348C533.757 56.4336 533.824 56.7061 533.959 56.9521C534.094 57.1982 534.296 57.3945 534.565 57.541C534.841 57.6816 535.178 57.752 535.576 57.752C536.074 57.752 536.514 57.6465 536.895 57.4355C537.275 57.2246 537.577 56.9668 537.8 56.6621C538.028 56.3574 538.151 56.0615 538.169 55.7744L538.863 56.5566C538.822 56.8027 538.711 57.0752 538.529 57.374C538.348 57.6729 538.104 57.96 537.8 58.2354C537.501 58.5049 537.144 58.7305 536.728 58.9121C536.317 59.0879 535.854 59.1758 535.339 59.1758C534.694 59.1758 534.129 59.0498 533.643 58.7979C533.162 58.5459 532.787 58.209 532.518 57.7871C532.254 57.3594 532.122 56.8818 532.122 56.3545C532.122 55.8447 532.222 55.3965 532.421 55.0098C532.62 54.6172 532.907 54.292 533.282 54.0342C533.657 53.7705 534.108 53.5713 534.636 53.4365C535.163 53.3018 535.752 53.2344 536.402 53.2344H538.292Z" fill="black"/>
<path d="M546.004 51L551.004 56L556.004 51H546.004Z" fill="black"/>
<path d="M594.256 56.0645L600.558 46.2031H602.254V59H600.558V49.1299L594.256 59H592.568V46.2031H594.256V56.0645ZM611.43 49.4902V50.835H606.622V49.4902H611.43ZM606.859 49.4902V59H605.233V49.4902H606.859ZM612.871 49.4902V59H611.236V49.4902H612.871ZM615.051 54.3506V54.1484C615.051 53.4629 615.15 52.8271 615.35 52.2412C615.549 51.6494 615.836 51.1367 616.211 50.7031C616.586 50.2637 617.04 49.9238 617.573 49.6836C618.106 49.4375 618.704 49.3145 619.366 49.3145C620.034 49.3145 620.635 49.4375 621.168 49.6836C621.707 49.9238 622.164 50.2637 622.539 50.7031C622.92 51.1367 623.21 51.6494 623.409 52.2412C623.608 52.8271 623.708 53.4629 623.708 54.1484V54.3506C623.708 55.0361 623.608 55.6719 623.409 56.2578C623.21 56.8438 622.92 57.3564 622.539 57.7959C622.164 58.2295 621.71 58.5693 621.177 58.8154C620.649 59.0557 620.052 59.1758 619.384 59.1758C618.716 59.1758 618.115 59.0557 617.582 58.8154C617.049 58.5693 616.592 58.2295 616.211 57.7959C615.836 57.3564 615.549 56.8438 615.35 56.2578C615.15 55.6719 615.051 55.0361 615.051 54.3506ZM616.677 54.1484V54.3506C616.677 54.8252 616.732 55.2734 616.844 55.6953C616.955 56.1113 617.122 56.4805 617.345 56.8027C617.573 57.125 617.857 57.3799 618.197 57.5674C618.537 57.749 618.933 57.8398 619.384 57.8398C619.829 57.8398 620.219 57.749 620.553 57.5674C620.893 57.3799 621.174 57.125 621.396 56.8027C621.619 56.4805 621.786 56.1113 621.897 55.6953C622.015 55.2734 622.073 54.8252 622.073 54.3506V54.1484C622.073 53.6797 622.015 53.2373 621.897 52.8213C621.786 52.3994 621.616 52.0273 621.388 51.7051C621.165 51.377 620.884 51.1191 620.544 50.9316C620.21 50.7441 619.817 50.6504 619.366 50.6504C618.921 50.6504 618.528 50.7441 618.188 50.9316C617.854 51.1191 617.573 51.377 617.345 51.7051C617.122 52.0273 616.955 52.3994 616.844 52.8213C616.732 53.2373 616.677 53.6797 616.677 54.1484ZM629.43 49.4902V59H627.795V49.4902H629.43ZM632.62 49.4902V50.8086H624.666V49.4902H632.62ZM637.463 59.1758C636.801 59.1758 636.2 59.0645 635.661 58.8418C635.128 58.6133 634.668 58.2939 634.281 57.8838C633.9 57.4736 633.607 56.9873 633.402 56.4248C633.197 55.8623 633.095 55.2471 633.095 54.5791V54.21C633.095 53.4365 633.209 52.748 633.438 52.1445C633.666 51.5352 633.977 51.0195 634.369 50.5977C634.762 50.1758 635.207 49.8564 635.705 49.6396C636.203 49.4229 636.719 49.3145 637.252 49.3145C637.932 49.3145 638.518 49.4316 639.01 49.666C639.508 49.9004 639.915 50.2285 640.231 50.6504C640.548 51.0664 640.782 51.5586 640.935 52.127C641.087 52.6895 641.163 53.3047 641.163 53.9727V54.7021H634.062V53.375H639.537V53.252C639.514 52.8301 639.426 52.4199 639.273 52.0215C639.127 51.623 638.893 51.2949 638.57 51.0371C638.248 50.7793 637.809 50.6504 637.252 50.6504C636.883 50.6504 636.543 50.7295 636.232 50.8877C635.922 51.04 635.655 51.2686 635.433 51.5732C635.21 51.8779 635.037 52.25 634.914 52.6895C634.791 53.1289 634.729 53.6357 634.729 54.21V54.5791C634.729 55.0303 634.791 55.4551 634.914 55.8535C635.043 56.2461 635.228 56.5918 635.468 56.8906C635.714 57.1895 636.01 57.4238 636.355 57.5938C636.707 57.7637 637.105 57.8486 637.551 57.8486C638.125 57.8486 638.611 57.7314 639.01 57.4971C639.408 57.2627 639.757 56.9492 640.056 56.5566L641.04 57.3389C640.835 57.6494 640.574 57.9453 640.258 58.2266C639.941 58.5078 639.552 58.7363 639.089 58.9121C638.632 59.0879 638.09 59.1758 637.463 59.1758ZM644.828 49.4902V59H643.202V49.4902H644.828ZM651.068 49.4902L646.56 54.9395H644.283L644.037 53.5156H645.9L649.091 49.4902H651.068ZM649.319 59L645.821 54.6934L646.867 53.5156L651.385 59H649.319ZM658.407 57.374V52.4785C658.407 52.1035 658.331 51.7783 658.179 51.5029C658.032 51.2217 657.81 51.0049 657.511 50.8525C657.212 50.7002 656.843 50.624 656.403 50.624C655.993 50.624 655.633 50.6943 655.322 50.835C655.018 50.9756 654.777 51.1602 654.602 51.3887C654.432 51.6172 654.347 51.8633 654.347 52.127H652.721C652.721 51.7871 652.809 51.4502 652.984 51.1162C653.16 50.7822 653.412 50.4805 653.74 50.2109C654.074 49.9355 654.473 49.7188 654.936 49.5605C655.404 49.3965 655.926 49.3145 656.5 49.3145C657.191 49.3145 657.801 49.4316 658.328 49.666C658.861 49.9004 659.277 50.2549 659.576 50.7295C659.881 51.1982 660.033 51.7871 660.033 52.4961V56.9258C660.033 57.2422 660.06 57.5791 660.112 57.9365C660.171 58.2939 660.256 58.6016 660.367 58.8594V59H658.671C658.589 58.8125 658.524 58.5635 658.478 58.2529C658.431 57.9365 658.407 57.6436 658.407 57.374ZM658.688 53.2344L658.706 54.377H657.062C656.6 54.377 656.187 54.415 655.823 54.4912C655.46 54.5615 655.155 54.6699 654.909 54.8164C654.663 54.9629 654.476 55.1475 654.347 55.3701C654.218 55.5869 654.153 55.8418 654.153 56.1348C654.153 56.4336 654.221 56.7061 654.355 56.9521C654.49 57.1982 654.692 57.3945 654.962 57.541C655.237 57.6816 655.574 57.752 655.973 57.752C656.471 57.752 656.91 57.6465 657.291 57.4355C657.672 57.2246 657.974 56.9668 658.196 56.6621C658.425 56.3574 658.548 56.0615 658.565 55.7744L659.26 56.5566C659.219 56.8027 659.107 57.0752 658.926 57.374C658.744 57.6729 658.501 57.96 658.196 58.2354C657.897 58.5049 657.54 58.7305 657.124 58.9121C656.714 59.0879 656.251 59.1758 655.735 59.1758C655.091 59.1758 654.525 59.0498 654.039 58.7979C653.559 58.5459 653.184 58.209 652.914 57.7871C652.65 57.3594 652.519 56.8818 652.519 56.3545C652.519 55.8447 652.618 55.3965 652.817 55.0098C653.017 54.6172 653.304 54.292 653.679 54.0342C654.054 53.7705 654.505 53.5713 655.032 53.4365C655.56 53.3018 656.148 53.2344 656.799 53.2344H658.688Z" fill="black"/>
<path d="M808.996 51L812.496 56L815.996 51H808.996Z" fill="black"/>
<path d="M708.342 52.1973V53.0059C708.342 53.9668 708.222 54.8281 707.981 55.5898C707.741 56.3516 707.396 56.999 706.944 57.5322C706.493 58.0654 705.951 58.4727 705.318 58.7539C704.691 59.0352 703.988 59.1758 703.209 59.1758C702.453 59.1758 701.759 59.0352 701.126 58.7539C700.499 58.4727 699.954 58.0654 699.491 57.5322C699.034 56.999 698.68 56.3516 698.428 55.5898C698.176 54.8281 698.05 53.9668 698.05 53.0059V52.1973C698.05 51.2363 698.173 50.3779 698.419 49.6221C698.671 48.8604 699.025 48.2129 699.482 47.6797C699.939 47.1406 700.481 46.7305 701.108 46.4492C701.741 46.168 702.436 46.0273 703.191 46.0273C703.971 46.0273 704.674 46.168 705.301 46.4492C705.934 46.7305 706.476 47.1406 706.927 47.6797C707.384 48.2129 707.732 48.8604 707.973 49.6221C708.219 50.3779 708.342 51.2363 708.342 52.1973ZM706.663 53.0059V52.1797C706.663 51.418 706.584 50.7441 706.426 50.1582C706.273 49.5723 706.048 49.0801 705.749 48.6816C705.45 48.2832 705.084 47.9814 704.65 47.7764C704.223 47.5713 703.736 47.4688 703.191 47.4688C702.664 47.4688 702.187 47.5713 701.759 47.7764C701.337 47.9814 700.974 48.2832 700.669 48.6816C700.37 49.0801 700.139 49.5723 699.975 50.1582C699.811 50.7441 699.729 51.418 699.729 52.1797V53.0059C699.729 53.7734 699.811 54.4531 699.975 55.0449C700.139 55.6309 700.373 56.126 700.678 56.5303C700.988 56.9287 701.354 57.2305 701.776 57.4355C702.204 57.6406 702.682 57.7432 703.209 57.7432C703.76 57.7432 704.249 57.6406 704.677 57.4355C705.104 57.2305 705.465 56.9287 705.758 56.5303C706.057 56.126 706.282 55.6309 706.435 55.0449C706.587 54.4531 706.663 53.7734 706.663 53.0059ZM716.867 49.4902V59H715.241V49.4902H716.867ZM723.107 49.4902L718.599 54.9395H716.322L716.076 53.5156H717.939L721.13 49.4902H723.107ZM721.358 59L717.86 54.6934L718.906 53.5156L723.424 59H721.358ZM724.215 54.3506V54.1484C724.215 53.4629 724.314 52.8271 724.514 52.2412C724.713 51.6494 725 51.1367 725.375 50.7031C725.75 50.2637 726.204 49.9238 726.737 49.6836C727.271 49.4375 727.868 49.3145 728.53 49.3145C729.198 49.3145 729.799 49.4375 730.332 49.6836C730.871 49.9238 731.328 50.2637 731.703 50.7031C732.084 51.1367 732.374 51.6494 732.573 52.2412C732.772 52.8271 732.872 53.4629 732.872 54.1484V54.3506C732.872 55.0361 732.772 55.6719 732.573 56.2578C732.374 56.8438 732.084 57.3564 731.703 57.7959C731.328 58.2295 730.874 58.5693 730.341 58.8154C729.813 59.0557 729.216 59.1758 728.548 59.1758C727.88 59.1758 727.279 59.0557 726.746 58.8154C726.213 58.5693 725.756 58.2295 725.375 57.7959C725 57.3564 724.713 56.8438 724.514 56.2578C724.314 55.6719 724.215 55.0361 724.215 54.3506ZM725.841 54.1484V54.3506C725.841 54.8252 725.896 55.2734 726.008 55.6953C726.119 56.1113 726.286 56.4805 726.509 56.8027C726.737 57.125 727.021 57.3799 727.361 57.5674C727.701 57.749 728.097 57.8398 728.548 57.8398C728.993 57.8398 729.383 57.749 729.717 57.5674C730.057 57.3799 730.338 57.125 730.561 56.8027C730.783 56.4805 730.95 56.1113 731.062 55.6953C731.179 55.2734 731.237 54.8252 731.237 54.3506V54.1484C731.237 53.6797 731.179 53.2373 731.062 52.8213C730.95 52.3994 730.78 52.0273 730.552 51.7051C730.329 51.377 730.048 51.1191 729.708 50.9316C729.374 50.7441 728.981 50.6504 728.53 50.6504C728.085 50.6504 727.692 50.7441 727.353 50.9316C727.019 51.1191 726.737 51.377 726.509 51.7051C726.286 52.0273 726.119 52.3994 726.008 52.8213C725.896 53.2373 725.841 53.6797 725.841 54.1484ZM740.378 56.8379L743.612 49.4902H745.177L740.94 59H739.815L735.597 49.4902H737.161L740.378 56.8379ZM736.687 49.4902V59H735.061V49.4902H736.687ZM744.017 59V49.4902H745.651V59H744.017ZM754.607 49.4902V50.835H749.8V49.4902H754.607ZM750.037 49.4902V59H748.411V49.4902H750.037ZM756.049 49.4902V59H754.414V49.4902H756.049ZM764.267 57.374V52.4785C764.267 52.1035 764.19 51.7783 764.038 51.5029C763.892 51.2217 763.669 51.0049 763.37 50.8525C763.071 50.7002 762.702 50.624 762.263 50.624C761.853 50.624 761.492 50.6943 761.182 50.835C760.877 50.9756 760.637 51.1602 760.461 51.3887C760.291 51.6172 760.206 51.8633 760.206 52.127H758.58C758.58 51.7871 758.668 51.4502 758.844 51.1162C759.02 50.7822 759.271 50.4805 759.6 50.2109C759.934 49.9355 760.332 49.7188 760.795 49.5605C761.264 49.3965 761.785 49.3145 762.359 49.3145C763.051 49.3145 763.66 49.4316 764.188 49.666C764.721 49.9004 765.137 50.2549 765.436 50.7295C765.74 51.1982 765.893 51.7871 765.893 52.4961V56.9258C765.893 57.2422 765.919 57.5791 765.972 57.9365C766.03 58.2939 766.115 58.6016 766.227 58.8594V59H764.53C764.448 58.8125 764.384 58.5635 764.337 58.2529C764.29 57.9365 764.267 57.6436 764.267 57.374ZM764.548 53.2344L764.565 54.377H762.922C762.459 54.377 762.046 54.415 761.683 54.4912C761.319 54.5615 761.015 54.6699 760.769 54.8164C760.522 54.9629 760.335 55.1475 760.206 55.3701C760.077 55.5869 760.013 55.8418 760.013 56.1348C760.013 56.4336 760.08 56.7061 760.215 56.9521C760.35 57.1982 760.552 57.3945 760.821 57.541C761.097 57.6816 761.434 57.752 761.832 57.752C762.33 57.752 762.77 57.6465 763.15 57.4355C763.531 57.2246 763.833 56.9668 764.056 56.6621C764.284 56.3574 764.407 56.0615 764.425 55.7744L765.119 56.5566C765.078 56.8027 764.967 57.0752 764.785 57.374C764.604 57.6729 764.36 57.96 764.056 58.2354C763.757 58.5049 763.399 58.7305 762.983 58.9121C762.573 59.0879 762.11 59.1758 761.595 59.1758C760.95 59.1758 760.385 59.0498 759.898 58.7979C759.418 58.5459 759.043 58.209 758.773 57.7871C758.51 57.3594 758.378 56.8818 758.378 56.3545C758.378 55.8447 758.478 55.3965 758.677 55.0098C758.876 54.6172 759.163 54.292 759.538 54.0342C759.913 53.7705 760.364 53.5713 760.892 53.4365C761.419 53.3018 762.008 53.2344 762.658 53.2344H764.548ZM774.901 53.6123V54.9307H769.874V53.6123H774.901ZM770.217 49.4902V59H768.591V49.4902H770.217ZM776.22 49.4902V59H774.585V49.4902H776.22ZM780.597 56.4248L784.982 49.4902H786.617V59H784.982V52.0654L780.597 59H778.979V49.4902H780.597V56.4248ZM790.985 56.4248L795.371 49.4902H797.006V59H795.371V52.0654L790.985 59H789.368V49.4902H790.985V56.4248Z" fill="black"/>
<path d="M854.257 46.2031V59H852.561V46.2031H854.257ZM862.141 46.2031L856.586 53.2432H853.58L853.316 51.8369H855.575L860.04 46.2031H862.141ZM860.436 59L855.628 53.0234L856.577 51.5381L862.51 59H860.436ZM863.125 54.3506V54.1484C863.125 53.4629 863.225 52.8271 863.424 52.2412C863.623 51.6494 863.91 51.1367 864.285 50.7031C864.66 50.2637 865.114 49.9238 865.647 49.6836C866.181 49.4375 866.778 49.3145 867.44 49.3145C868.108 49.3145 868.709 49.4375 869.242 49.6836C869.781 49.9238 870.238 50.2637 870.613 50.7031C870.994 51.1367 871.284 51.6494 871.483 52.2412C871.683 52.8271 871.782 53.4629 871.782 54.1484V54.3506C871.782 55.0361 871.683 55.6719 871.483 56.2578C871.284 56.8438 870.994 57.3564 870.613 57.7959C870.238 58.2295 869.784 58.5693 869.251 58.8154C868.724 59.0557 868.126 59.1758 867.458 59.1758C866.79 59.1758 866.189 59.0557 865.656 58.8154C865.123 58.5693 864.666 58.2295 864.285 57.7959C863.91 57.3564 863.623 56.8438 863.424 56.2578C863.225 55.6719 863.125 55.0361 863.125 54.3506ZM864.751 54.1484V54.3506C864.751 54.8252 864.807 55.2734 864.918 55.6953C865.029 56.1113 865.196 56.4805 865.419 56.8027C865.647 57.125 865.932 57.3799 866.271 57.5674C866.611 57.749 867.007 57.8398 867.458 57.8398C867.903 57.8398 868.293 57.749 868.627 57.5674C868.967 57.3799 869.248 57.125 869.471 56.8027C869.693 56.4805 869.86 56.1113 869.972 55.6953C870.089 55.2734 870.147 54.8252 870.147 54.3506V54.1484C870.147 53.6797 870.089 53.2373 869.972 52.8213C869.86 52.3994 869.69 52.0273 869.462 51.7051C869.239 51.377 868.958 51.1191 868.618 50.9316C868.284 50.7441 867.892 50.6504 867.44 50.6504C866.995 50.6504 866.603 50.7441 866.263 50.9316C865.929 51.1191 865.647 51.377 865.419 51.7051C865.196 52.0273 865.029 52.3994 864.918 52.8213C864.807 53.2373 864.751 53.6797 864.751 54.1484ZM880.272 53.6123V54.9307H875.245V53.6123H880.272ZM875.588 49.4902V59H873.962V49.4902H875.588ZM881.591 49.4902V59H879.956V49.4902H881.591ZM888.086 49.4902V59H886.451V49.4902H888.086ZM891.276 49.4902V50.8086H883.322V49.4902H891.276ZM898.343 57.374V52.4785C898.343 52.1035 898.267 51.7783 898.114 51.5029C897.968 51.2217 897.745 51.0049 897.446 50.8525C897.147 50.7002 896.778 50.624 896.339 50.624C895.929 50.624 895.568 50.6943 895.258 50.835C894.953 50.9756 894.713 51.1602 894.537 51.3887C894.367 51.6172 894.282 51.8633 894.282 52.127H892.656C892.656 51.7871 892.744 51.4502 892.92 51.1162C893.096 50.7822 893.348 50.4805 893.676 50.2109C894.01 49.9355 894.408 49.7188 894.871 49.5605C895.34 49.3965 895.861 49.3145 896.436 49.3145C897.127 49.3145 897.736 49.4316 898.264 49.666C898.797 49.9004 899.213 50.2549 899.512 50.7295C899.816 51.1982 899.969 51.7871 899.969 52.4961V56.9258C899.969 57.2422 899.995 57.5791 900.048 57.9365C900.106 58.2939 900.191 58.6016 900.303 58.8594V59H898.606C898.524 58.8125 898.46 58.5635 898.413 58.2529C898.366 57.9365 898.343 57.6436 898.343 57.374ZM898.624 53.2344L898.642 54.377H896.998C896.535 54.377 896.122 54.415 895.759 54.4912C895.396 54.5615 895.091 54.6699 894.845 54.8164C894.599 54.9629 894.411 55.1475 894.282 55.3701C894.153 55.5869 894.089 55.8418 894.089 56.1348C894.089 56.4336 894.156 56.7061 894.291 56.9521C894.426 57.1982 894.628 57.3945 894.897 57.541C895.173 57.6816 895.51 57.752 895.908 57.752C896.406 57.752 896.846 57.6465 897.227 57.4355C897.607 57.2246 897.909 56.9668 898.132 56.6621C898.36 56.3574 898.483 56.0615 898.501 55.7744L899.195 56.5566C899.154 56.8027 899.043 57.0752 898.861 57.374C898.68 57.6729 898.437 57.96 898.132 58.2354C897.833 58.5049 897.476 58.7305 897.06 58.9121C896.649 59.0879 896.187 59.1758 895.671 59.1758C895.026 59.1758 894.461 59.0498 893.975 58.7979C893.494 58.5459 893.119 58.209 892.85 57.7871C892.586 57.3594 892.454 56.8818 892.454 56.3545C892.454 55.8447 892.554 55.3965 892.753 55.0098C892.952 54.6172 893.239 54.292 893.614 54.0342C893.989 53.7705 894.44 53.5713 894.968 53.4365C895.495 53.3018 896.084 53.2344 896.734 53.2344H898.624ZM904.293 49.4902V59H902.667V49.4902H904.293ZM910.533 49.4902L906.024 54.9395H903.748L903.502 53.5156H905.365L908.556 49.4902H910.533ZM908.784 59L905.286 54.6934L906.332 53.5156L910.85 59H908.784ZM916.141 49.4902V59H914.506V49.4902H916.141ZM919.331 49.4902V50.8086H911.377V49.4902H919.331ZM922.267 52.7598H925.123C925.891 52.7598 926.538 52.8945 927.065 53.1641C927.593 53.4277 927.991 53.7939 928.261 54.2627C928.536 54.7256 928.674 55.2529 928.674 55.8447C928.674 56.2842 928.598 56.6973 928.445 57.084C928.293 57.4648 928.064 57.7988 927.76 58.0859C927.461 58.373 927.089 58.5986 926.644 58.7627C926.204 58.9209 925.697 59 925.123 59H921.08V49.4902H922.706V57.6641H925.123C925.592 57.6641 925.967 57.5791 926.248 57.4092C926.529 57.2393 926.731 57.0195 926.854 56.75C926.978 56.4805 927.039 56.1992 927.039 55.9062C927.039 55.6191 926.978 55.3379 926.854 55.0625C926.731 54.7871 926.529 54.5586 926.248 54.377C925.967 54.1895 925.592 54.0957 925.123 54.0957H922.267V52.7598ZM932.058 49.4902V59H930.432V49.4902H932.058Z" fill="black"/>
<rect x="1398.5" y="26.5" width="201" height="52" stroke="#EFA35A"/>
<path d="M1433.41 52.8564H1431.88V51.7754H1433.34C1433.99 51.7754 1434.51 51.6846 1434.91 51.5029C1435.31 51.3213 1435.6 51.0693 1435.78 50.7471C1435.96 50.4248 1436.05 50.0527 1436.05 49.6309C1436.05 49.2266 1435.95 48.8574 1435.75 48.5234C1435.55 48.1836 1435.25 47.9141 1434.83 47.7148C1434.41 47.5098 1433.88 47.4072 1433.22 47.4072C1432.73 47.4072 1432.28 47.501 1431.88 47.6885C1431.49 47.8701 1431.17 48.125 1430.94 48.4531C1430.7 48.7754 1430.58 49.1475 1430.58 49.5693H1428.89C1428.89 49.0244 1429 48.5352 1429.23 48.1016C1429.46 47.6621 1429.77 47.29 1430.17 46.9854C1430.57 46.6748 1431.03 46.4375 1431.55 46.2734C1432.08 46.1094 1432.63 46.0273 1433.22 46.0273C1433.91 46.0273 1434.53 46.1064 1435.08 46.2646C1435.64 46.417 1436.12 46.6455 1436.52 46.9502C1436.92 47.2549 1437.22 47.6328 1437.43 48.084C1437.64 48.5352 1437.75 49.0596 1437.75 49.6572C1437.75 50.0967 1437.64 50.5098 1437.44 50.8965C1437.23 51.2832 1436.94 51.623 1436.56 51.916C1436.18 52.209 1435.72 52.4404 1435.19 52.6104C1434.66 52.7744 1434.06 52.8564 1433.41 52.8564ZM1431.88 52.1094H1433.41C1434.13 52.1094 1434.77 52.1826 1435.33 52.3291C1435.89 52.4756 1436.37 52.6895 1436.75 52.9707C1437.14 53.252 1437.43 53.6006 1437.63 54.0166C1437.84 54.4268 1437.94 54.8984 1437.94 55.4316C1437.94 56.0293 1437.82 56.5596 1437.59 57.0225C1437.36 57.4854 1437.04 57.8779 1436.61 58.2002C1436.19 58.5225 1435.69 58.7656 1435.11 58.9297C1434.54 59.0938 1433.91 59.1758 1433.22 59.1758C1432.67 59.1758 1432.12 59.1055 1431.59 58.9648C1431.05 58.8184 1430.57 58.5957 1430.14 58.2969C1429.7 57.9922 1429.35 57.6055 1429.09 57.1367C1428.83 56.668 1428.7 56.1055 1428.7 55.4492H1430.4C1430.4 55.877 1430.52 56.2695 1430.75 56.627C1430.99 56.9844 1431.32 57.2715 1431.74 57.4883C1432.17 57.6992 1432.66 57.8047 1433.22 57.8047C1433.87 57.8047 1434.41 57.7051 1434.86 57.5059C1435.31 57.3008 1435.65 57.0225 1435.88 56.6709C1436.12 56.3135 1436.24 55.9121 1436.24 55.4668C1436.24 55.0742 1436.18 54.7344 1436.05 54.4473C1435.93 54.1543 1435.74 53.9141 1435.5 53.7266C1435.26 53.5391 1434.96 53.4014 1434.59 53.3135C1434.23 53.2197 1433.82 53.1729 1433.34 53.1729H1431.88V52.1094ZM1445.53 57.374V52.4785C1445.53 52.1035 1445.46 51.7783 1445.31 51.5029C1445.16 51.2217 1444.94 51.0049 1444.64 50.8525C1444.34 50.7002 1443.97 50.624 1443.53 50.624C1443.12 50.624 1442.76 50.6943 1442.45 50.835C1442.14 50.9756 1441.9 51.1602 1441.73 51.3887C1441.56 51.6172 1441.47 51.8633 1441.47 52.127H1439.85C1439.85 51.7871 1439.94 51.4502 1440.11 51.1162C1440.29 50.7822 1440.54 50.4805 1440.87 50.2109C1441.2 49.9355 1441.6 49.7188 1442.06 49.5605C1442.53 49.3965 1443.05 49.3145 1443.63 49.3145C1444.32 49.3145 1444.93 49.4316 1445.46 49.666C1445.99 49.9004 1446.4 50.2549 1446.7 50.7295C1447.01 51.1982 1447.16 51.7871 1447.16 52.4961V56.9258C1447.16 57.2422 1447.19 57.5791 1447.24 57.9365C1447.3 58.2939 1447.38 58.6016 1447.49 58.8594V59H1445.8C1445.72 58.8125 1445.65 58.5635 1445.6 58.2529C1445.56 57.9365 1445.53 57.6436 1445.53 57.374ZM1445.82 53.2344L1445.83 54.377H1444.19C1443.73 54.377 1443.31 54.415 1442.95 54.4912C1442.59 54.5615 1442.28 54.6699 1442.04 54.8164C1441.79 54.9629 1441.6 55.1475 1441.47 55.3701C1441.34 55.5869 1441.28 55.8418 1441.28 56.1348C1441.28 56.4336 1441.35 56.7061 1441.48 56.9521C1441.62 57.1982 1441.82 57.3945 1442.09 57.541C1442.36 57.6816 1442.7 57.752 1443.1 57.752C1443.6 57.752 1444.04 57.6465 1444.42 57.4355C1444.8 57.2246 1445.1 56.9668 1445.32 56.6621C1445.55 56.3574 1445.67 56.0615 1445.69 55.7744L1446.39 56.5566C1446.35 56.8027 1446.23 57.0752 1446.05 57.374C1445.87 57.6729 1445.63 57.96 1445.32 58.2354C1445.02 58.5049 1444.67 58.7305 1444.25 58.9121C1443.84 59.0879 1443.38 59.1758 1442.86 59.1758C1442.22 59.1758 1441.65 59.0498 1441.17 58.7979C1440.69 58.5459 1440.31 58.209 1440.04 57.7871C1439.78 57.3594 1439.65 56.8818 1439.65 56.3545C1439.65 55.8447 1439.75 55.3965 1439.94 55.0098C1440.14 54.6172 1440.43 54.292 1440.81 54.0342C1441.18 53.7705 1441.63 53.5713 1442.16 53.4365C1442.69 53.3018 1443.28 53.2344 1443.93 53.2344H1445.82ZM1451.48 49.4902V59H1449.86V49.4902H1451.48ZM1457.72 49.4902L1453.22 54.9395H1450.94L1450.69 53.5156H1452.56L1455.75 49.4902H1457.72ZM1455.98 59L1452.48 54.6934L1453.52 53.5156L1458.04 59H1455.98ZM1465.06 57.374V52.4785C1465.06 52.1035 1464.99 51.7783 1464.83 51.5029C1464.69 51.2217 1464.47 51.0049 1464.17 50.8525C1463.87 50.7002 1463.5 50.624 1463.06 50.624C1462.65 50.624 1462.29 50.6943 1461.98 50.835C1461.67 50.9756 1461.43 51.1602 1461.26 51.3887C1461.09 51.6172 1461 51.8633 1461 52.127H1459.38C1459.38 51.7871 1459.46 51.4502 1459.64 51.1162C1459.82 50.7822 1460.07 50.4805 1460.4 50.2109C1460.73 49.9355 1461.13 49.7188 1461.59 49.5605C1462.06 49.3965 1462.58 49.3145 1463.16 49.3145C1463.85 49.3145 1464.46 49.4316 1464.98 49.666C1465.52 49.9004 1465.93 50.2549 1466.23 50.7295C1466.54 51.1982 1466.69 51.7871 1466.69 52.4961V56.9258C1466.69 57.2422 1466.72 57.5791 1466.77 57.9365C1466.83 58.2939 1466.91 58.6016 1467.02 58.8594V59H1465.33C1465.25 58.8125 1465.18 58.5635 1465.13 58.2529C1465.09 57.9365 1465.06 57.6436 1465.06 57.374ZM1465.34 53.2344L1465.36 54.377H1463.72C1463.26 54.377 1462.84 54.415 1462.48 54.4912C1462.12 54.5615 1461.81 54.6699 1461.57 54.8164C1461.32 54.9629 1461.13 55.1475 1461 55.3701C1460.87 55.5869 1460.81 55.8418 1460.81 56.1348C1460.81 56.4336 1460.88 56.7061 1461.01 56.9521C1461.15 57.1982 1461.35 57.3945 1461.62 57.541C1461.89 57.6816 1462.23 57.752 1462.63 57.752C1463.13 57.752 1463.57 57.6465 1463.95 57.4355C1464.33 57.2246 1464.63 56.9668 1464.85 56.6621C1465.08 56.3574 1465.2 56.0615 1465.22 55.7744L1465.92 56.5566C1465.88 56.8027 1465.76 57.0752 1465.58 57.374C1465.4 57.6729 1465.16 57.96 1464.85 58.2354C1464.55 58.5049 1464.2 58.7305 1463.78 58.9121C1463.37 59.0879 1462.91 59.1758 1462.39 59.1758C1461.75 59.1758 1461.18 59.0498 1460.7 58.7979C1460.21 58.5459 1459.84 58.209 1459.57 57.7871C1459.31 57.3594 1459.17 56.8818 1459.17 56.3545C1459.17 55.8447 1459.27 55.3965 1459.47 55.0098C1459.67 54.6172 1459.96 54.292 1460.33 54.0342C1460.71 53.7705 1461.16 53.5713 1461.69 53.4365C1462.22 53.3018 1462.8 53.2344 1463.46 53.2344H1465.34ZM1472.8 54.4561H1471.05V53.4541H1472.67C1473.12 53.4541 1473.47 53.3984 1473.74 53.2871C1474 53.1699 1474.19 53.0088 1474.3 52.8037C1474.41 52.5986 1474.47 52.3584 1474.47 52.083C1474.47 51.8369 1474.4 51.6055 1474.27 51.3887C1474.15 51.166 1473.95 50.9873 1473.68 50.8525C1473.4 50.7119 1473.03 50.6416 1472.57 50.6416C1472.19 50.6416 1471.85 50.709 1471.55 50.8438C1471.25 50.9727 1471 51.1514 1470.82 51.3799C1470.64 51.6025 1470.56 51.8545 1470.56 52.1357H1468.93C1468.93 51.5557 1469.09 51.0576 1469.42 50.6416C1469.76 50.2197 1470.2 49.8945 1470.75 49.666C1471.31 49.4375 1471.91 49.3232 1472.57 49.3232C1473.12 49.3232 1473.61 49.3848 1474.05 49.5078C1474.49 49.625 1474.86 49.8008 1475.16 50.0352C1475.47 50.2637 1475.7 50.5508 1475.86 50.8965C1476.02 51.2363 1476.1 51.6318 1476.1 52.083C1476.1 52.4053 1476.03 52.71 1475.87 52.9971C1475.72 53.2842 1475.5 53.5391 1475.21 53.7617C1474.93 53.9785 1474.58 54.1484 1474.17 54.2715C1473.76 54.3945 1473.31 54.4561 1472.8 54.4561ZM1471.05 53.8408H1472.8C1473.37 53.8408 1473.87 53.8965 1474.3 54.0078C1474.73 54.1133 1475.1 54.2715 1475.39 54.4824C1475.68 54.6934 1475.9 54.9541 1476.05 55.2646C1476.2 55.5693 1476.28 55.9209 1476.28 56.3193C1476.28 56.7646 1476.19 57.166 1476.01 57.5234C1475.83 57.875 1475.58 58.1738 1475.25 58.4199C1474.92 58.666 1474.53 58.8535 1474.07 58.9824C1473.62 59.1113 1473.12 59.1758 1472.57 59.1758C1471.95 59.1758 1471.36 59.0703 1470.78 58.8594C1470.2 58.6484 1469.72 58.3232 1469.34 57.8838C1468.97 57.4385 1468.78 56.873 1468.78 56.1875H1470.41C1470.41 56.4746 1470.5 56.7471 1470.68 57.0049C1470.86 57.2627 1471.11 57.4707 1471.44 57.6289C1471.76 57.7871 1472.14 57.8662 1472.57 57.8662C1473.03 57.8662 1473.41 57.7959 1473.71 57.6553C1474.02 57.5146 1474.25 57.3271 1474.4 57.0928C1474.56 56.8584 1474.63 56.6035 1474.63 56.3281C1474.63 55.9707 1474.56 55.6836 1474.42 55.4668C1474.28 55.25 1474.07 55.0918 1473.77 54.9922C1473.49 54.8867 1473.12 54.834 1472.67 54.834H1471.05V53.8408ZM1484 57.374V52.4785C1484 52.1035 1483.92 51.7783 1483.77 51.5029C1483.62 51.2217 1483.4 51.0049 1483.1 50.8525C1482.8 50.7002 1482.43 50.624 1481.99 50.624C1481.58 50.624 1481.22 50.6943 1480.91 50.835C1480.61 50.9756 1480.37 51.1602 1480.19 51.3887C1480.02 51.6172 1479.93 51.8633 1479.93 52.127H1478.31C1478.31 51.7871 1478.4 51.4502 1478.57 51.1162C1478.75 50.7822 1479 50.4805 1479.33 50.2109C1479.66 49.9355 1480.06 49.7188 1480.52 49.5605C1480.99 49.3965 1481.51 49.3145 1482.09 49.3145C1482.78 49.3145 1483.39 49.4316 1483.92 49.666C1484.45 49.9004 1484.87 50.2549 1485.16 50.7295C1485.47 51.1982 1485.62 51.7871 1485.62 52.4961V56.9258C1485.62 57.2422 1485.65 57.5791 1485.7 57.9365C1485.76 58.2939 1485.84 58.6016 1485.96 58.8594V59H1484.26C1484.18 58.8125 1484.11 58.5635 1484.07 58.2529C1484.02 57.9365 1484 57.6436 1484 57.374ZM1484.28 53.2344L1484.29 54.377H1482.65C1482.19 54.377 1481.77 54.415 1481.41 54.4912C1481.05 54.5615 1480.74 54.6699 1480.5 54.8164C1480.25 54.9629 1480.06 55.1475 1479.93 55.3701C1479.81 55.5869 1479.74 55.8418 1479.74 56.1348C1479.74 56.4336 1479.81 56.7061 1479.94 56.9521C1480.08 57.1982 1480.28 57.3945 1480.55 57.541C1480.83 57.6816 1481.16 57.752 1481.56 57.752C1482.06 57.752 1482.5 57.6465 1482.88 57.4355C1483.26 57.2246 1483.56 56.9668 1483.78 56.6621C1484.01 56.3574 1484.14 56.0615 1484.15 55.7744L1484.85 56.5566C1484.81 56.8027 1484.7 57.0752 1484.51 57.374C1484.33 57.6729 1484.09 57.96 1483.78 58.2354C1483.49 58.5049 1483.13 58.7305 1482.71 58.9121C1482.3 59.0879 1481.84 59.1758 1481.32 59.1758C1480.68 59.1758 1480.11 59.0498 1479.63 58.7979C1479.15 58.5459 1478.77 58.209 1478.5 57.7871C1478.24 57.3594 1478.11 56.8818 1478.11 56.3545C1478.11 55.8447 1478.21 55.3965 1478.41 55.0098C1478.6 54.6172 1478.89 54.292 1479.27 54.0342C1479.64 53.7705 1480.09 53.5713 1480.62 53.4365C1481.15 53.3018 1481.74 53.2344 1482.39 53.2344H1484.28ZM1491.91 49.4902V59H1490.28V49.4902H1491.91ZM1495.1 49.4902V50.8086H1487.15V49.4902H1495.1ZM1498.04 52.7598H1500.9C1501.66 52.7598 1502.31 52.8945 1502.84 53.1641C1503.37 53.4277 1503.76 53.7939 1504.03 54.2627C1504.31 54.7256 1504.45 55.2529 1504.45 55.8447C1504.45 56.2842 1504.37 56.6973 1504.22 57.084C1504.07 57.4648 1503.84 57.7988 1503.53 58.0859C1503.23 58.373 1502.86 58.5986 1502.42 58.7627C1501.98 58.9209 1501.47 59 1500.9 59H1496.85V49.4902H1498.48V57.6641H1500.9C1501.37 57.6641 1501.74 57.5791 1502.02 57.4092C1502.3 57.2393 1502.5 57.0195 1502.63 56.75C1502.75 56.4805 1502.81 56.1992 1502.81 55.9062C1502.81 55.6191 1502.75 55.3379 1502.63 55.0625C1502.5 54.7871 1502.3 54.5586 1502.02 54.377C1501.74 54.1895 1501.37 54.0957 1500.9 54.0957H1498.04V52.7598ZM1514.49 54.4561H1512.74V53.4541H1514.36C1514.81 53.4541 1515.17 53.3984 1515.43 53.2871C1515.7 53.1699 1515.88 53.0088 1516 52.8037C1516.11 52.5986 1516.16 52.3584 1516.16 52.083C1516.16 51.8369 1516.1 51.6055 1515.97 51.3887C1515.85 51.166 1515.65 50.9873 1515.37 50.8525C1515.1 50.7119 1514.73 50.6416 1514.26 50.6416C1513.89 50.6416 1513.55 50.709 1513.25 50.8438C1512.94 50.9727 1512.7 51.1514 1512.52 51.3799C1512.34 51.6025 1512.25 51.8545 1512.25 52.1357H1510.63C1510.63 51.5557 1510.79 51.0576 1511.12 50.6416C1511.45 50.2197 1511.89 49.8945 1512.45 49.666C1513 49.4375 1513.61 49.3232 1514.26 49.3232C1514.82 49.3232 1515.31 49.3848 1515.74 49.5078C1516.18 49.625 1516.55 49.8008 1516.86 50.0352C1517.16 50.2637 1517.39 50.5508 1517.55 50.8965C1517.72 51.2363 1517.8 51.6318 1517.8 52.083C1517.8 52.4053 1517.72 52.71 1517.57 52.9971C1517.42 53.2842 1517.2 53.5391 1516.91 53.7617C1516.62 53.9785 1516.27 54.1484 1515.86 54.2715C1515.46 54.3945 1515 54.4561 1514.49 54.4561ZM1512.74 53.8408H1514.49C1515.06 53.8408 1515.56 53.8965 1516 54.0078C1516.43 54.1133 1516.79 54.2715 1517.09 54.4824C1517.38 54.6934 1517.6 54.9541 1517.75 55.2646C1517.9 55.5693 1517.97 55.9209 1517.97 56.3193C1517.97 56.7646 1517.88 57.166 1517.7 57.5234C1517.53 57.875 1517.27 58.1738 1516.95 58.4199C1516.62 58.666 1516.22 58.8535 1515.77 58.9824C1515.32 59.1113 1514.82 59.1758 1514.26 59.1758C1513.65 59.1758 1513.05 59.0703 1512.47 58.8594C1511.89 58.6484 1511.41 58.3232 1511.04 57.8838C1510.66 57.4385 1510.48 56.873 1510.48 56.1875H1512.1C1512.1 56.4746 1512.19 56.7471 1512.38 57.0049C1512.56 57.2627 1512.81 57.4707 1513.13 57.6289C1513.46 57.7871 1513.84 57.8662 1514.26 57.8662C1514.72 57.8662 1515.1 57.7959 1515.41 57.6553C1515.71 57.5146 1515.94 57.3271 1516.09 57.0928C1516.25 56.8584 1516.33 56.6035 1516.33 56.3281C1516.33 55.9707 1516.26 55.6836 1516.12 55.4668C1515.98 55.25 1515.76 55.0918 1515.47 54.9922C1515.18 54.8867 1514.81 54.834 1514.36 54.834H1512.74V53.8408ZM1524.55 54.8164H1521.43L1521.41 53.5156H1523.96C1524.46 53.5156 1524.88 53.4658 1525.22 53.3662C1525.56 53.2666 1525.81 53.1172 1525.98 52.918C1526.15 52.7188 1526.24 52.4727 1526.24 52.1797C1526.24 51.9512 1526.19 51.752 1526.09 51.582C1525.99 51.4062 1525.85 51.2627 1525.66 51.1514C1525.46 51.0342 1525.22 50.9492 1524.93 50.8965C1524.65 50.8379 1524.32 50.8086 1523.94 50.8086H1521.86V59H1520.23V49.4902H1523.94C1524.54 49.4902 1525.09 49.543 1525.57 49.6484C1526.05 49.7539 1526.47 49.915 1526.81 50.1318C1527.15 50.3428 1527.42 50.6123 1527.6 50.9404C1527.78 51.2686 1527.87 51.6553 1527.87 52.1006C1527.87 52.3877 1527.81 52.6602 1527.69 52.918C1527.58 53.1758 1527.4 53.4043 1527.18 53.6035C1526.95 53.8027 1526.67 53.9668 1526.33 54.0957C1526 54.2188 1525.61 54.2979 1525.18 54.333L1524.55 54.8164ZM1524.55 59H1520.84L1521.65 57.6816H1524.55C1525 57.6816 1525.37 57.626 1525.67 57.5146C1525.97 57.3975 1526.19 57.2334 1526.34 57.0225C1526.49 56.8057 1526.57 56.5479 1526.57 56.249C1526.57 55.9502 1526.49 55.6953 1526.34 55.4844C1526.19 55.2676 1525.97 55.1035 1525.67 54.9922C1525.37 54.875 1525 54.8164 1524.55 54.8164H1522.08L1522.1 53.5156H1525.18L1525.77 54.0078C1526.29 54.0488 1526.73 54.1777 1527.1 54.3945C1527.46 54.6113 1527.74 54.8867 1527.92 55.2207C1528.11 55.5488 1528.2 55.9062 1528.2 56.293C1528.2 56.7383 1528.12 57.1309 1527.95 57.4707C1527.79 57.8105 1527.54 58.0947 1527.23 58.3232C1526.91 58.5459 1526.53 58.7158 1526.08 58.833C1525.63 58.9443 1525.12 59 1524.55 59ZM1529.95 54.3506V54.1484C1529.95 53.4629 1530.05 52.8271 1530.25 52.2412C1530.45 51.6494 1530.74 51.1367 1531.11 50.7031C1531.49 50.2637 1531.94 49.9238 1532.48 49.6836C1533.01 49.4375 1533.61 49.3145 1534.27 49.3145C1534.94 49.3145 1535.54 49.4375 1536.07 49.6836C1536.61 49.9238 1537.07 50.2637 1537.44 50.7031C1537.82 51.1367 1538.11 51.6494 1538.31 52.2412C1538.51 52.8271 1538.61 53.4629 1538.61 54.1484V54.3506C1538.61 55.0361 1538.51 55.6719 1538.31 56.2578C1538.11 56.8438 1537.82 57.3564 1537.44 57.7959C1537.07 58.2295 1536.61 58.5693 1536.08 58.8154C1535.55 59.0557 1534.95 59.1758 1534.29 59.1758C1533.62 59.1758 1533.02 59.0557 1532.48 58.8154C1531.95 58.5693 1531.49 58.2295 1531.11 57.7959C1530.74 57.3564 1530.45 56.8438 1530.25 56.2578C1530.05 55.6719 1529.95 55.0361 1529.95 54.3506ZM1531.58 54.1484V54.3506C1531.58 54.8252 1531.63 55.2734 1531.75 55.6953C1531.86 56.1113 1532.02 56.4805 1532.25 56.8027C1532.48 57.125 1532.76 57.3799 1533.1 57.5674C1533.44 57.749 1533.83 57.8398 1534.29 57.8398C1534.73 57.8398 1535.12 57.749 1535.46 57.5674C1535.79 57.3799 1536.08 57.125 1536.3 56.8027C1536.52 56.4805 1536.69 56.1113 1536.8 55.6953C1536.92 55.2734 1536.98 54.8252 1536.98 54.3506V54.1484C1536.98 53.6797 1536.92 53.2373 1536.8 52.8213C1536.69 52.3994 1536.52 52.0273 1536.29 51.7051C1536.07 51.377 1535.79 51.1191 1535.45 50.9316C1535.11 50.7441 1534.72 50.6504 1534.27 50.6504C1533.82 50.6504 1533.43 50.7441 1533.09 50.9316C1532.76 51.1191 1532.48 51.377 1532.25 51.7051C1532.02 52.0273 1531.86 52.3994 1531.75 52.8213C1531.63 53.2373 1531.58 53.6797 1531.58 54.1484ZM1547.1 53.6123V54.9307H1542.07V53.6123H1547.1ZM1542.42 49.4902V59H1540.79V49.4902H1542.42ZM1548.42 49.4902V59H1546.78V49.4902H1548.42ZM1550.61 54.3506V54.1484C1550.61 53.4629 1550.71 52.8271 1550.91 52.2412C1551.11 51.6494 1551.39 51.1367 1551.77 50.7031C1552.14 50.2637 1552.6 49.9238 1553.13 49.6836C1553.66 49.4375 1554.26 49.3145 1554.92 49.3145C1555.59 49.3145 1556.19 49.4375 1556.72 49.6836C1557.26 49.9238 1557.72 50.2637 1558.1 50.7031C1558.48 51.1367 1558.77 51.6494 1558.97 52.2412C1559.17 52.8271 1559.26 53.4629 1559.26 54.1484V54.3506C1559.26 55.0361 1559.17 55.6719 1558.97 56.2578C1558.77 56.8438 1558.48 57.3564 1558.1 57.7959C1557.72 58.2295 1557.27 58.5693 1556.73 58.8154C1556.21 59.0557 1555.61 59.1758 1554.94 59.1758C1554.27 59.1758 1553.67 59.0557 1553.14 58.8154C1552.61 58.5693 1552.15 58.2295 1551.77 57.7959C1551.39 57.3564 1551.11 56.8438 1550.91 56.2578C1550.71 55.6719 1550.61 55.0361 1550.61 54.3506ZM1552.23 54.1484V54.3506C1552.23 54.8252 1552.29 55.2734 1552.4 55.6953C1552.51 56.1113 1552.68 56.4805 1552.9 56.8027C1553.13 57.125 1553.41 57.3799 1553.75 57.5674C1554.09 57.749 1554.49 57.8398 1554.94 57.8398C1555.39 57.8398 1555.78 57.749 1556.11 57.5674C1556.45 57.3799 1556.73 57.125 1556.95 56.8027C1557.18 56.4805 1557.34 56.1113 1557.45 55.6953C1557.57 55.2734 1557.63 54.8252 1557.63 54.3506V54.1484C1557.63 53.6797 1557.57 53.2373 1557.45 52.8213C1557.34 52.3994 1557.17 52.0273 1556.94 51.7051C1556.72 51.377 1556.44 51.1191 1556.1 50.9316C1555.77 50.7441 1555.37 50.6504 1554.92 50.6504C1554.48 50.6504 1554.08 50.7441 1553.75 50.9316C1553.41 51.1191 1553.13 51.377 1552.9 51.7051C1552.68 52.0273 1552.51 52.3994 1552.4 52.8213C1552.29 53.2373 1552.23 53.6797 1552.23 54.1484ZM1563.07 49.4902V59H1561.44V49.4902H1563.07ZM1569.31 49.4902L1564.8 54.9395H1562.53L1562.28 53.5156H1564.14L1567.33 49.4902H1569.31ZM1567.56 59L1564.06 54.6934L1565.11 53.5156L1569.63 59H1567.56Z" fill="black"/>
<path d="M1138.4 56.6642L1131.96 53.778L1131.94 53.7698C1131.61 53.6268 1131.24 53.5694 1130.88 53.6029C1130.52 53.6363 1130.17 53.7595 1129.87 53.9612C1129.83 53.9848 1129.8 54.0103 1129.77 54.0378L1126.44 56.8747C1124.33 55.8507 1122.15 53.6905 1121.13 51.6097L1123.97 48.2314C1124 48.1972 1124.02 48.163 1124.05 48.1261C1124.25 47.8244 1124.37 47.4785 1124.4 47.1193C1124.43 46.76 1124.37 46.3986 1124.23 46.0671V46.0507L1121.34 39.5989C1121.15 39.1659 1120.83 38.8052 1120.42 38.5706C1120.01 38.336 1119.53 38.2402 1119.06 38.2974C1117.21 38.5412 1115.51 39.451 1114.28 40.8569C1113.05 42.2628 1112.37 44.0687 1112.38 45.9372C1112.38 56.7927 1121.21 65.6247 1132.06 65.6247C1133.93 65.6281 1135.74 64.9511 1137.14 63.7203C1138.55 62.4895 1139.46 60.789 1139.7 58.9364C1139.76 58.4681 1139.66 57.9938 1139.43 57.5843C1139.2 57.1748 1138.83 56.8521 1138.4 56.6642ZM1132.06 63.4372C1127.42 63.4322 1122.97 61.5868 1119.69 58.306C1116.41 55.0252 1114.57 50.577 1114.56 45.9372C1114.56 44.6021 1115.04 43.3109 1115.92 42.3045C1116.79 41.2981 1118.01 40.6455 1119.33 40.4685C1119.33 40.4739 1119.33 40.4794 1119.33 40.4849L1122.2 46.9107L1119.38 50.2931C1119.35 50.3261 1119.32 50.3613 1119.3 50.3984C1119.09 50.7141 1118.97 51.0776 1118.95 51.4536C1118.92 51.8297 1119 52.2056 1119.16 52.5448C1120.4 55.0782 1122.95 57.6116 1125.51 58.8489C1125.85 59.0114 1126.23 59.0825 1126.61 59.0552C1126.99 59.0279 1127.35 58.9031 1127.67 58.6931C1127.7 58.6694 1127.73 58.6439 1127.77 58.6165L1131.09 55.781L1137.52 58.6589H1137.53C1137.36 59.9841 1136.7 61.2001 1135.7 62.0796C1134.69 62.9591 1133.4 63.4417 1132.06 63.4372Z" fill="#EFA35A"/>
<path d="M1162.46 52.1357V53.665H1153.69V52.1357H1162.46ZM1158.89 48.4004V57.7168H1157.26V48.4004H1158.89ZM1172.55 46.2031V47.1172L1167.25 59H1165.53L1170.82 47.5391H1163.9V46.2031H1172.55ZM1178.98 53.8848V53.7969C1178.98 52.5195 1179.12 51.3652 1179.41 50.334C1179.7 49.2969 1180.06 48.3887 1180.51 47.6094C1180.96 46.8301 1181.42 46.1855 1181.92 45.6758C1182.41 45.1602 1182.86 44.7881 1183.28 44.5596L1183.62 45.6318C1183.28 45.8955 1182.92 46.2588 1182.57 46.7217C1182.21 47.1846 1181.89 47.7529 1181.59 48.4268C1181.3 49.1006 1181.06 49.8828 1180.88 50.7734C1180.7 51.6641 1180.61 52.666 1180.61 53.7793V53.9023C1180.61 55.0156 1180.7 56.0205 1180.88 56.917C1181.06 57.8076 1181.3 58.5928 1181.59 59.2725C1181.89 59.9521 1182.21 60.5293 1182.57 61.0039C1182.92 61.4844 1183.28 61.8652 1183.62 62.1465L1183.28 63.1309C1182.86 62.9023 1182.41 62.5303 1181.92 62.0146C1181.42 61.5049 1180.96 60.8604 1180.51 60.0811C1180.06 59.3076 1179.7 58.4023 1179.41 57.3652C1179.12 56.3281 1178.98 55.168 1178.98 53.8848ZM1186.65 57.6377H1186.82C1187.76 57.6377 1188.52 57.5059 1189.11 57.2422C1189.69 56.9785 1190.14 56.624 1190.46 56.1787C1190.78 55.7334 1190.99 55.2324 1191.11 54.6758C1191.23 54.1133 1191.29 53.5361 1191.29 52.9443V50.9844C1191.29 50.4043 1191.22 49.8887 1191.08 49.4375C1190.95 48.9863 1190.77 48.6084 1190.54 48.3037C1190.31 47.999 1190.05 47.7676 1189.76 47.6094C1189.46 47.4512 1189.15 47.3721 1188.82 47.3721C1188.45 47.3721 1188.11 47.4482 1187.81 47.6006C1187.52 47.7471 1187.27 47.9551 1187.07 48.2246C1186.87 48.4941 1186.71 48.8105 1186.61 49.1738C1186.5 49.5371 1186.45 49.9326 1186.45 50.3604C1186.45 50.7412 1186.5 51.1104 1186.59 51.4678C1186.69 51.8252 1186.83 52.1475 1187.02 52.4346C1187.22 52.7217 1187.46 52.9502 1187.74 53.1201C1188.04 53.2842 1188.38 53.3662 1188.77 53.3662C1189.13 53.3662 1189.47 53.2959 1189.79 53.1553C1190.11 53.0088 1190.4 52.8125 1190.64 52.5664C1190.9 52.3145 1191.09 52.0303 1191.24 51.7139C1191.39 51.3975 1191.48 51.0664 1191.5 50.7207H1192.28C1192.28 51.207 1192.18 51.6875 1191.99 52.1621C1191.8 52.6309 1191.54 53.0586 1191.2 53.4453C1190.86 53.832 1190.46 54.1426 1190 54.377C1189.54 54.6055 1189.05 54.7197 1188.51 54.7197C1187.88 54.7197 1187.33 54.5967 1186.86 54.3506C1186.4 54.1045 1186.02 53.7764 1185.72 53.3662C1185.43 52.9561 1185.21 52.499 1185.06 51.9951C1184.92 51.4854 1184.85 50.9697 1184.85 50.4482C1184.85 49.8389 1184.94 49.2676 1185.11 48.7344C1185.28 48.2012 1185.53 47.7324 1185.86 47.3281C1186.2 46.918 1186.61 46.5986 1187.1 46.3701C1187.6 46.1416 1188.17 46.0273 1188.82 46.0273C1189.56 46.0273 1190.18 46.1738 1190.7 46.4668C1191.21 46.7598 1191.63 47.1523 1191.95 47.6445C1192.28 48.1367 1192.52 48.6904 1192.67 49.3057C1192.83 49.9209 1192.9 50.5537 1192.9 51.2041V51.793C1192.9 52.4551 1192.86 53.1289 1192.77 53.8145C1192.69 54.4941 1192.53 55.1445 1192.29 55.7656C1192.05 56.3867 1191.71 56.9434 1191.26 57.4355C1190.81 57.9219 1190.22 58.3086 1189.49 58.5957C1188.77 58.877 1187.88 59.0176 1186.82 59.0176H1186.65V57.6377ZM1201.4 46.1855H1201.54V47.5654H1201.4C1200.54 47.5654 1199.82 47.7061 1199.24 47.9873C1198.66 48.2627 1198.2 48.6348 1197.86 49.1035C1197.52 49.5664 1197.27 50.0879 1197.12 50.668C1196.97 51.248 1196.9 51.8369 1196.9 52.4346V54.3154C1196.9 54.8838 1196.97 55.3877 1197.1 55.8271C1197.24 56.2607 1197.42 56.627 1197.66 56.9258C1197.89 57.2246 1198.16 57.4502 1198.45 57.6025C1198.75 57.7549 1199.06 57.8311 1199.38 57.8311C1199.75 57.8311 1200.09 57.7607 1200.38 57.6201C1200.67 57.4736 1200.92 57.2715 1201.12 57.0137C1201.33 56.75 1201.48 56.4395 1201.59 56.082C1201.69 55.7246 1201.74 55.332 1201.74 54.9043C1201.74 54.5234 1201.7 54.1572 1201.6 53.8057C1201.51 53.4482 1201.37 53.1318 1201.17 52.8564C1200.98 52.5752 1200.74 52.3555 1200.44 52.1973C1200.16 52.0332 1199.81 51.9512 1199.42 51.9512C1198.96 51.9512 1198.54 52.0625 1198.15 52.2852C1197.76 52.502 1197.44 52.7891 1197.19 53.1465C1196.95 53.498 1196.8 53.8818 1196.77 54.2979L1195.91 54.2891C1195.99 53.6328 1196.14 53.0732 1196.37 52.6104C1196.59 52.1416 1196.88 51.7607 1197.21 51.4678C1197.55 51.1689 1197.93 50.9521 1198.34 50.8174C1198.76 50.6768 1199.21 50.6064 1199.68 50.6064C1200.32 50.6064 1200.87 50.7266 1201.33 50.9668C1201.79 51.207 1202.17 51.5293 1202.47 51.9336C1202.77 52.332 1202.99 52.7832 1203.13 53.2871C1203.28 53.7852 1203.35 54.2979 1203.35 54.8252C1203.35 55.4287 1203.27 55.9941 1203.1 56.5215C1202.93 57.0488 1202.67 57.5117 1202.33 57.9102C1202 58.3086 1201.59 58.6191 1201.09 58.8418C1200.6 59.0645 1200.03 59.1758 1199.38 59.1758C1198.69 59.1758 1198.08 59.0352 1197.57 58.7539C1197.05 58.4668 1196.63 58.0859 1196.29 57.6113C1195.95 57.1367 1195.69 56.6094 1195.52 56.0293C1195.35 55.4492 1195.27 54.8604 1195.27 54.2627V53.498C1195.27 52.5957 1195.36 51.7109 1195.54 50.8438C1195.72 49.9766 1196.03 49.1914 1196.48 48.4883C1196.93 47.7852 1197.55 47.2256 1198.35 46.8096C1199.15 46.3936 1200.17 46.1855 1201.4 46.1855ZM1213.67 57.6641V59H1205.29V57.8311L1209.49 53.1641C1210 52.5898 1210.4 52.1035 1210.68 51.7051C1210.97 51.3008 1211.17 50.9404 1211.28 50.624C1211.4 50.3018 1211.46 49.9736 1211.46 49.6396C1211.46 49.2178 1211.37 48.8369 1211.19 48.4971C1211.02 48.1514 1210.77 47.876 1210.44 47.6709C1210.1 47.4658 1209.7 47.3633 1209.22 47.3633C1208.66 47.3633 1208.18 47.4746 1207.8 47.6973C1207.42 47.9141 1207.14 48.2188 1206.96 48.6113C1206.77 49.0039 1206.67 49.4551 1206.67 49.9648H1205.05C1205.05 49.2441 1205.21 48.585 1205.52 47.9873C1205.84 47.3896 1206.31 46.915 1206.93 46.5635C1207.55 46.2061 1208.32 46.0273 1209.22 46.0273C1210.03 46.0273 1210.72 46.1709 1211.3 46.458C1211.87 46.7393 1212.31 47.1377 1212.62 47.6533C1212.93 48.1631 1213.08 48.7607 1213.08 49.4463C1213.08 49.8213 1213.02 50.2021 1212.89 50.5889C1212.77 50.9697 1212.59 51.3506 1212.37 51.7314C1212.15 52.1123 1211.9 52.4873 1211.61 52.8564C1211.32 53.2256 1211.01 53.5889 1210.68 53.9463L1207.25 57.6641H1213.67ZM1219.33 53.7969V53.8848C1219.33 55.168 1219.19 56.3281 1218.9 57.3652C1218.61 58.4023 1218.25 59.3076 1217.8 60.0811C1217.36 60.8604 1216.89 61.5049 1216.4 62.0146C1215.9 62.5303 1215.45 62.9023 1215.03 63.1309L1214.69 62.1465C1215.04 61.8828 1215.38 61.5137 1215.74 61.0391C1216.09 60.5703 1216.41 59.9902 1216.71 59.2988C1217.01 58.6133 1217.25 57.8223 1217.43 56.9258C1217.61 56.0234 1217.71 55.0156 1217.71 53.9023V53.7793C1217.71 52.666 1217.61 51.6611 1217.42 50.7646C1217.22 49.8623 1216.97 49.0684 1216.66 48.3828C1216.35 47.6973 1216.03 47.1201 1215.67 46.6514C1215.33 46.1768 1215 45.8105 1214.69 45.5527L1215.03 44.5596C1215.45 44.7881 1215.9 45.1602 1216.4 45.6758C1216.89 46.1855 1217.36 46.8301 1217.8 47.6094C1218.25 48.3887 1218.61 49.2969 1218.9 50.334C1219.19 51.3652 1219.33 52.5195 1219.33 53.7969ZM1228.21 52.9092L1226.91 52.5752L1227.55 46.2031H1234.11V47.7061H1228.93L1228.54 51.1865C1228.78 51.0518 1229.07 50.9258 1229.43 50.8086C1229.79 50.6914 1230.21 50.6328 1230.68 50.6328C1231.27 50.6328 1231.8 50.7354 1232.27 50.9404C1232.74 51.1396 1233.14 51.4268 1233.46 51.8018C1233.8 52.1768 1234.05 52.6279 1234.23 53.1553C1234.4 53.6826 1234.49 54.2715 1234.49 54.9219C1234.49 55.5371 1234.41 56.1025 1234.24 56.6182C1234.07 57.1338 1233.82 57.585 1233.49 57.9717C1233.16 58.3525 1232.73 58.6484 1232.22 58.8594C1231.72 59.0703 1231.13 59.1758 1230.44 59.1758C1229.92 59.1758 1229.44 59.1055 1228.97 58.9648C1228.52 58.8184 1228.11 58.5986 1227.74 58.3057C1227.38 58.0068 1227.09 57.6377 1226.86 57.1982C1226.64 56.7529 1226.5 56.2314 1226.44 55.6338H1227.99C1228.06 56.1143 1228.2 56.5186 1228.41 56.8467C1228.62 57.1748 1228.9 57.4238 1229.24 57.5938C1229.58 57.7578 1229.98 57.8398 1230.44 57.8398C1230.83 57.8398 1231.17 57.7725 1231.47 57.6377C1231.77 57.5029 1232.02 57.3096 1232.22 57.0576C1232.43 56.8057 1232.58 56.501 1232.69 56.1436C1232.8 55.7861 1232.86 55.3848 1232.86 54.9395C1232.86 54.5352 1232.8 54.1602 1232.69 53.8145C1232.58 53.4688 1232.41 53.167 1232.19 52.9092C1231.97 52.6514 1231.71 52.4521 1231.39 52.3115C1231.07 52.165 1230.71 52.0918 1230.3 52.0918C1229.75 52.0918 1229.34 52.165 1229.06 52.3115C1228.79 52.458 1228.5 52.6572 1228.21 52.9092ZM1238.33 52.9092L1237.03 52.5752L1237.67 46.2031H1244.24V47.7061H1239.05L1238.67 51.1865C1238.9 51.0518 1239.2 50.9258 1239.55 50.8086C1239.92 50.6914 1240.33 50.6328 1240.8 50.6328C1241.39 50.6328 1241.92 50.7354 1242.39 50.9404C1242.86 51.1396 1243.26 51.4268 1243.59 51.8018C1243.92 52.1768 1244.18 52.6279 1244.35 53.1553C1244.53 53.6826 1244.62 54.2715 1244.62 54.9219C1244.62 55.5371 1244.53 56.1025 1244.36 56.6182C1244.2 57.1338 1243.95 57.585 1243.62 57.9717C1243.28 58.3525 1242.86 58.6484 1242.35 58.8594C1241.85 59.0703 1241.25 59.1758 1240.57 59.1758C1240.05 59.1758 1239.56 59.1055 1239.1 58.9648C1238.64 58.8184 1238.23 58.5986 1237.87 58.3057C1237.51 58.0068 1237.22 57.6377 1236.99 57.1982C1236.77 56.7529 1236.62 56.2314 1236.57 55.6338H1238.11C1238.18 56.1143 1238.32 56.5186 1238.54 56.8467C1238.75 57.1748 1239.02 57.4238 1239.36 57.5938C1239.71 57.7578 1240.11 57.8398 1240.57 57.8398C1240.95 57.8398 1241.29 57.7725 1241.59 57.6377C1241.89 57.5029 1242.14 57.3096 1242.35 57.0576C1242.55 56.8057 1242.71 56.501 1242.82 56.1436C1242.93 55.7861 1242.98 55.3848 1242.98 54.9395C1242.98 54.5352 1242.93 54.1602 1242.82 53.8145C1242.7 53.4688 1242.54 53.167 1242.31 52.9092C1242.1 52.6514 1241.83 52.4521 1241.51 52.3115C1241.2 52.165 1240.83 52.0918 1240.42 52.0918C1239.88 52.0918 1239.47 52.165 1239.19 52.3115C1238.91 52.458 1238.63 52.6572 1238.33 52.9092ZM1248.46 52.9092L1247.16 52.5752L1247.8 46.2031H1254.36V47.7061H1249.18L1248.79 51.1865C1249.03 51.0518 1249.32 50.9258 1249.68 50.8086C1250.04 50.6914 1250.46 50.6328 1250.93 50.6328C1251.52 50.6328 1252.05 50.7354 1252.52 50.9404C1252.99 51.1396 1253.39 51.4268 1253.71 51.8018C1254.05 52.1768 1254.3 52.6279 1254.48 53.1553C1254.65 53.6826 1254.74 54.2715 1254.74 54.9219C1254.74 55.5371 1254.66 56.1025 1254.49 56.6182C1254.32 57.1338 1254.07 57.585 1253.74 57.9717C1253.41 58.3525 1252.98 58.6484 1252.47 58.8594C1251.97 59.0703 1251.38 59.1758 1250.69 59.1758C1250.17 59.1758 1249.69 59.1055 1249.22 58.9648C1248.77 58.8184 1248.36 58.5986 1247.99 58.3057C1247.63 58.0068 1247.34 57.6377 1247.11 57.1982C1246.89 56.7529 1246.75 56.2314 1246.69 55.6338H1248.24C1248.31 56.1143 1248.45 56.5186 1248.66 56.8467C1248.87 57.1748 1249.15 57.4238 1249.49 57.5938C1249.83 57.7578 1250.23 57.8398 1250.69 57.8398C1251.08 57.8398 1251.42 57.7725 1251.72 57.6377C1252.02 57.5029 1252.27 57.3096 1252.47 57.0576C1252.68 56.8057 1252.83 56.501 1252.94 56.1436C1253.05 55.7861 1253.11 55.3848 1253.11 54.9395C1253.11 54.5352 1253.05 54.1602 1252.94 53.8145C1252.83 53.4688 1252.66 53.167 1252.44 52.9092C1252.22 52.6514 1251.96 52.4521 1251.64 52.3115C1251.32 52.165 1250.96 52.0918 1250.55 52.0918C1250 52.0918 1249.59 52.165 1249.31 52.3115C1249.04 52.458 1248.75 52.6572 1248.46 52.9092ZM1260.09 52.8916V54.2275H1255.8V52.8916H1260.09ZM1269.89 57.6641V59H1261.51V57.8311L1265.7 53.1641C1266.22 52.5898 1266.62 52.1035 1266.9 51.7051C1267.18 51.3008 1267.38 50.9404 1267.5 50.624C1267.61 50.3018 1267.67 49.9736 1267.67 49.6396C1267.67 49.2178 1267.58 48.8369 1267.41 48.4971C1267.24 48.1514 1266.99 47.876 1266.65 47.6709C1266.32 47.4658 1265.91 47.3633 1265.44 47.3633C1264.87 47.3633 1264.4 47.4746 1264.01 47.6973C1263.64 47.9141 1263.36 48.2188 1263.17 48.6113C1262.98 49.0039 1262.89 49.4551 1262.89 49.9648H1261.26C1261.26 49.2441 1261.42 48.585 1261.74 47.9873C1262.05 47.3896 1262.52 46.915 1263.14 46.5635C1263.77 46.2061 1264.53 46.0273 1265.44 46.0273C1266.25 46.0273 1266.94 46.1709 1267.51 46.458C1268.09 46.7393 1268.53 47.1377 1268.83 47.6533C1269.14 48.1631 1269.3 48.7607 1269.3 49.4463C1269.3 49.8213 1269.23 50.2021 1269.1 50.5889C1268.98 50.9697 1268.81 51.3506 1268.58 51.7314C1268.37 52.1123 1268.11 52.4873 1267.82 52.8564C1267.53 53.2256 1267.23 53.5889 1266.9 53.9463L1263.47 57.6641H1269.89ZM1273.68 52.9092L1272.38 52.5752L1273.02 46.2031H1279.59V47.7061H1274.4L1274.02 51.1865C1274.25 51.0518 1274.55 50.9258 1274.9 50.8086C1275.27 50.6914 1275.68 50.6328 1276.15 50.6328C1276.74 50.6328 1277.27 50.7354 1277.74 50.9404C1278.21 51.1396 1278.61 51.4268 1278.94 51.8018C1279.27 52.1768 1279.53 52.6279 1279.7 53.1553C1279.88 53.6826 1279.97 54.2715 1279.97 54.9219C1279.97 55.5371 1279.88 56.1025 1279.71 56.6182C1279.55 57.1338 1279.3 57.585 1278.96 57.9717C1278.63 58.3525 1278.21 58.6484 1277.7 58.8594C1277.2 59.0703 1276.6 59.1758 1275.92 59.1758C1275.4 59.1758 1274.91 59.1055 1274.45 58.9648C1273.99 58.8184 1273.58 58.5986 1273.22 58.3057C1272.86 58.0068 1272.57 57.6377 1272.34 57.1982C1272.12 56.7529 1271.97 56.2314 1271.92 55.6338H1273.46C1273.53 56.1143 1273.67 56.5186 1273.88 56.8467C1274.1 57.1748 1274.37 57.4238 1274.71 57.5938C1275.06 57.7578 1275.46 57.8398 1275.92 57.8398C1276.3 57.8398 1276.64 57.7725 1276.94 57.6377C1277.24 57.5029 1277.49 57.3096 1277.7 57.0576C1277.9 56.8057 1278.06 56.501 1278.17 56.1436C1278.28 55.7861 1278.33 55.3848 1278.33 54.9395C1278.33 54.5352 1278.28 54.1602 1278.17 53.8145C1278.05 53.4688 1277.89 53.167 1277.66 52.9092C1277.45 52.6514 1277.18 52.4521 1276.86 52.3115C1276.55 52.165 1276.18 52.0918 1275.77 52.0918C1275.23 52.0918 1274.82 52.165 1274.54 52.3115C1274.26 52.458 1273.98 52.6572 1273.68 52.9092ZM1285.31 52.8916V54.2275H1281.02V52.8916H1285.31ZM1295.11 57.6641V59H1286.73V57.8311L1290.93 53.1641C1291.44 52.5898 1291.84 52.1035 1292.12 51.7051C1292.41 51.3008 1292.61 50.9404 1292.72 50.624C1292.84 50.3018 1292.9 49.9736 1292.9 49.6396C1292.9 49.2178 1292.81 48.8369 1292.63 48.4971C1292.46 48.1514 1292.21 47.876 1291.88 47.6709C1291.54 47.4658 1291.14 47.3633 1290.66 47.3633C1290.09 47.3633 1289.62 47.4746 1289.24 47.6973C1288.86 47.9141 1288.58 48.2188 1288.4 48.6113C1288.21 49.0039 1288.11 49.4551 1288.11 49.9648H1286.49C1286.49 49.2441 1286.65 48.585 1286.96 47.9873C1287.28 47.3896 1287.75 46.915 1288.37 46.5635C1288.99 46.2061 1289.75 46.0273 1290.66 46.0273C1291.47 46.0273 1292.16 46.1709 1292.74 46.458C1293.31 46.7393 1293.75 47.1377 1294.06 47.6533C1294.37 48.1631 1294.52 48.7607 1294.52 49.4463C1294.52 49.8213 1294.46 50.2021 1294.33 50.5889C1294.21 50.9697 1294.03 51.3506 1293.81 51.7314C1293.59 52.1123 1293.34 52.4873 1293.04 52.8564C1292.76 53.2256 1292.45 53.5889 1292.12 53.9463L1288.69 57.6641H1295.11ZM1298.91 52.9092L1297.61 52.5752L1298.25 46.2031H1304.81V47.7061H1299.63L1299.24 51.1865C1299.48 51.0518 1299.77 50.9258 1300.13 50.8086C1300.49 50.6914 1300.91 50.6328 1301.38 50.6328C1301.97 50.6328 1302.5 50.7354 1302.97 50.9404C1303.44 51.1396 1303.83 51.4268 1304.16 51.8018C1304.5 52.1768 1304.75 52.6279 1304.93 53.1553C1305.1 53.6826 1305.19 54.2715 1305.19 54.9219C1305.19 55.5371 1305.11 56.1025 1304.94 56.6182C1304.77 57.1338 1304.52 57.585 1304.19 57.9717C1303.86 58.3525 1303.43 58.6484 1302.92 58.8594C1302.42 59.0703 1301.83 59.1758 1301.14 59.1758C1300.62 59.1758 1300.13 59.1055 1299.67 58.9648C1299.21 58.8184 1298.8 58.5986 1298.44 58.3057C1298.08 58.0068 1297.79 57.6377 1297.56 57.1982C1297.34 56.7529 1297.2 56.2314 1297.14 55.6338H1298.69C1298.76 56.1143 1298.9 56.5186 1299.11 56.8467C1299.32 57.1748 1299.6 57.4238 1299.94 57.5938C1300.28 57.7578 1300.68 57.8398 1301.14 57.8398C1301.53 57.8398 1301.87 57.7725 1302.17 57.6377C1302.47 57.5029 1302.72 57.3096 1302.92 57.0576C1303.13 56.8057 1303.28 56.501 1303.39 56.1436C1303.5 55.7861 1303.56 55.3848 1303.56 54.9395C1303.56 54.5352 1303.5 54.1602 1303.39 53.8145C1303.28 53.4688 1303.11 53.167 1302.89 52.9092C1302.67 52.6514 1302.41 52.4521 1302.09 52.3115C1301.77 52.165 1301.41 52.0918 1301 52.0918C1300.45 52.0918 1300.04 52.165 1299.76 52.3115C1299.48 52.458 1299.2 52.6572 1298.91 52.9092Z" fill="black"/>
<g clip-path="url(#clip0_379_1246)">
<path fill-rule="evenodd" clip-rule="evenodd" d="M80.0664 44.2592L80.0766 44.2711C80.2527 44.1755 80.4058 43.9619 80.5504 43.823C80.8815 43.5042 81.576 42.872 81.8564 42.5749C82.1148 42.3013 82.4399 42.0287 82.6702 41.7936L83.1363 41.3285C83.1867 41.2791 83.2176 41.2633 83.2655 41.2178C83.3143 41.1713 83.2802 41.2005 83.3156 41.162C83.3587 41.1151 83.3185 41.1527 83.3689 41.1091C83.4741 41.0183 83.4949 40.9795 83.5944 40.8832L84.9997 39.5222C85.0928 39.4405 85.1435 39.3834 85.23 39.2996L87.4567 37.1637C87.51 37.1127 87.5004 37.1066 87.5601 37.055L88.2674 36.3791C88.4897 36.1549 88.7216 35.9012 88.9695 35.6981L89.4209 35.2452C89.5106 35.1551 89.5823 35.1118 89.6736 35.0191L90.2545 34.4555C90.2835 34.4279 90.3164 34.3875 90.3595 34.3487L90.8268 33.8849C90.9123 33.8018 90.979 33.7601 91.0661 33.6719L92.925 31.8606C92.9728 31.8141 93.0067 31.7932 93.051 31.746C93.3104 31.4712 93.6291 31.2046 93.8648 30.9647L94.7887 30.054C94.8716 29.9735 94.9402 29.9155 95.0126 29.8305C95.1594 29.8927 97.3679 32.2285 97.6735 32.5406C98.1179 32.9941 98.5457 33.4384 99.0029 33.8977L100.306 35.2545C100.51 35.4961 100.756 35.7132 100.979 35.9384L102.29 37.2875C103.185 38.1834 104.025 39.1091 104.918 40.0063C105.14 40.2295 105.362 40.4525 105.582 40.6722C105.706 40.7973 105.79 40.9095 105.913 41.0324C106.03 41.1482 106.127 41.2521 106.246 41.3653C106.474 41.5831 106.704 41.8183 106.897 42.0437C107.088 42.267 107.337 42.4909 107.558 42.7129C107.788 42.9441 107.98 43.1629 108.208 43.3925C108.549 43.7354 109.251 44.4956 109.535 44.7526C109.773 44.9684 109.983 45.202 110.185 45.4326C110.343 45.6129 110.529 45.7569 110.692 45.9359C110.751 46.001 110.781 46.0395 110.844 46.103C111.036 46.2948 111.63 46.9559 111.841 47.1275C111.944 47.2109 112.313 47.1695 112.469 47.1695H117.801C118.494 47.1695 119.852 47.2077 120.462 47.1644L122.157 45.0355C122.302 44.8456 122.44 44.6881 122.581 44.5017L123.43 43.4355C123.567 43.2575 123.701 43.1096 123.846 42.9207L131.039 33.9093C131.125 33.7989 131.169 33.745 131.254 33.6453C131.736 33.0804 132.259 32.3879 132.73 31.7954C132.876 31.6126 133.003 31.4545 133.155 31.262L133.794 30.4649C133.852 30.3928 133.919 30.2738 134.009 30.2163C134.237 30.438 135.125 31.7011 135.367 32.0081C135.833 32.5983 136.248 33.2023 136.705 33.7829C137.398 34.6618 138.038 35.5631 138.715 36.4571L141.391 40.0082C141.749 40.4913 144.672 44.3157 144.711 44.4549L144.756 44.4395C144.564 44.0139 144.332 43.5808 144.121 43.1571L135.808 26.55C135.501 25.9316 134.774 24.5373 134.546 24L99.4441 28.3206L98.2376 27.2265C98.1833 27.1755 98.131 27.1451 98.0774 27.0928L96.7436 25.8736C96.5063 25.6817 96.2412 25.4014 96.0086 25.2L95.717 24.9328C95.6551 24.8818 95.6159 24.8523 95.5569 24.7993L94.9734 24.2659C94.9048 24.1937 94.7539 24.0411 94.6691 24.0144L93.2912 25.9069C93.141 26.1116 92.9764 26.3306 92.8341 26.5407L91.9201 27.8084C91.6052 28.2267 91.3108 28.653 91.0071 29.0783C90.3917 29.9398 89.7859 30.7616 89.1772 31.6126C88.8684 32.0444 88.5478 32.4549 88.2616 32.8787C87.7206 33.6796 87.0111 34.5723 86.4435 35.3982C85.9283 36.1475 85.1534 37.1919 84.6149 37.9345C83.4043 39.6037 82.1298 41.3365 80.9536 43.0012C80.8266 43.1808 80.0922 44.1572 80.0664 44.2592Z" fill="#17170A"/>
<path fill-rule="evenodd" clip-rule="evenodd" d="M139.782 62.1618C139.659 61.8513 138.955 59.928 138.876 59.8154L136.138 59.8202L136.131 59.972L136.993 59.9797C137.02 60.1975 136.999 65.3453 136.999 65.8342C136.999 66.1726 137.021 66.4302 136.821 66.6361C136.554 66.911 136.29 66.8205 136.131 66.901L136.129 67.0335C136.419 67.039 137.931 67.0839 138.076 67.0078L138.073 66.8882C137.376 66.8167 137.17 66.6813 137.171 65.941L137.169 60.4271C137.301 60.6558 138.357 63.527 138.487 63.865C138.707 64.4379 138.919 65.0069 139.139 65.584C139.354 66.1498 139.596 66.7416 139.785 67.3039L139.948 67.2956C140.158 66.7496 140.349 66.1232 140.532 65.5667C140.722 64.9925 140.92 64.427 141.11 63.8532L142.262 60.447L142.294 66.8815C142.11 66.8863 141.54 66.8532 141.406 66.9007L141.403 67.0078C141.5 67.0617 144.645 67.0489 144.993 67.0322L144.976 66.884H144.106V59.9761L144.98 59.972L144.978 59.8154H142.317C142.226 59.9643 141.618 61.8295 141.502 62.1676C141.398 62.4729 140.772 64.4321 140.692 64.521C140.617 64.4251 139.899 62.4601 139.782 62.1618Z" fill="#17180A"/>
<path fill-rule="evenodd" clip-rule="evenodd" d="M84.9631 59.9681C85.1921 59.9568 86.5463 59.9408 86.6615 59.9851C86.7639 60.0354 87.0947 60.9499 87.1624 61.1141C87.3231 61.5048 87.4753 61.8942 87.6434 62.2846C87.758 62.5511 87.6492 62.6759 87.5599 62.9226C87.4603 63.1975 86.9572 64.663 86.8714 64.7083L85.907 62.3497C85.7804 62.0437 84.9538 60.1182 84.9631 59.9681ZM90.6904 64.6335L90.6451 64.7204C90.5688 64.69 90.5829 64.7063 90.5427 64.613C90.505 64.3548 88.6847 60.2128 88.679 59.9693C88.8764 59.9549 89.2423 60.0104 89.3881 59.9434C89.3849 59.7823 89.4149 59.8205 89.0203 59.8221C88.0304 59.826 82.3136 59.7817 82.082 59.8398C82.0951 59.9825 82.083 59.9697 82.2533 59.9687C82.9632 59.9632 82.9405 59.8798 83.0719 60.2118L83.3591 60.9105C83.4879 61.2264 83.6127 61.5254 83.7368 61.8371C83.9853 62.4591 84.2408 63.0663 84.4944 63.6892L85.8324 66.9584C85.8652 67.0379 85.8924 67.1079 85.9252 67.1874C85.967 67.2891 85.9807 67.3122 86.1179 67.2881C86.1999 67.1691 87.2284 64.265 87.3787 63.8618C87.4479 63.6757 87.7245 62.843 87.8001 62.7452C87.9436 62.8533 89.526 67.0883 89.7084 67.2946C89.8976 67.3045 89.8702 67.2217 89.9933 66.8952C90.683 65.0685 91.3549 63.1564 92.0325 61.3143C92.169 60.9428 92.2561 60.6247 92.4816 60.3783C92.8533 59.9725 93.2827 60.0175 93.4218 59.944L93.4157 59.8359C93.2476 59.7977 91.6063 59.8045 91.4729 59.8404C91.4962 60.1191 91.708 59.8516 91.9798 60.2176C92.1345 60.4261 92.1345 60.6227 92.0366 60.8902C91.8803 61.3172 91.7355 61.7085 91.5782 62.138C91.4767 62.4151 90.675 64.5344 90.6904 64.6335Z" fill="#EFA35A"/>
<path fill-rule="evenodd" clip-rule="evenodd" d="M117.381 66.8724L117.382 59.9805C117.663 59.943 118.455 59.9632 118.699 60.0475C119.029 60.1621 119.306 60.4347 119.447 60.7109C119.683 61.1696 119.587 62.7782 119.587 63.4072C119.587 63.8784 119.587 64.3496 119.587 64.8208C119.587 65.2824 119.638 65.7135 119.459 66.1154C119.333 66.398 119.039 66.6809 118.73 66.796C118.464 66.8951 117.686 66.9214 117.381 66.8724ZM117.269 59.8153C116.942 59.8156 114.796 59.7868 114.669 59.8326L114.665 59.9398C114.825 60.0398 115.332 59.9536 115.566 59.9799L115.565 66.872C115.341 66.907 114.834 66.8409 114.667 66.9009L114.664 67.0081C114.785 67.0751 116.972 67.0334 117.296 67.0344C118.137 67.0369 118.919 67.0956 119.645 66.7556C119.802 66.6822 119.942 66.6071 120.076 66.5218C120.184 66.4525 120.39 66.303 120.454 66.2353L120.77 65.887C121.276 65.2397 121.582 64.3092 121.573 63.4072C121.564 62.4128 121.109 61.1744 120.418 60.5883C119.442 59.7605 118.546 59.8131 117.269 59.8153Z" fill="#17180A"/>
<path fill-rule="evenodd" clip-rule="evenodd" d="M128.916 59.8473C129.633 59.7507 130.216 60.2864 130.35 60.8426C130.463 61.3183 130.398 62.6773 130.398 63.247C130.398 63.7394 130.422 65.3547 130.391 65.7181C130.254 67.3399 128.118 67.4352 127.764 66.0052C127.663 65.5998 127.726 64.1105 127.726 63.5937C127.726 62.7803 127.7 61.9213 127.728 61.1133C127.734 60.9407 127.776 60.7634 127.838 60.619C127.94 60.3836 128.21 60.1064 128.434 59.9897C128.583 59.9117 128.722 59.8732 128.916 59.8473ZM132.421 63.5937C132.462 63.1463 132.345 62.4759 132.211 62.065C131.975 61.3433 131.678 60.8711 131.168 60.4201C129.93 59.3254 127.742 59.4742 126.686 60.6604C126.636 60.7162 126.615 60.7261 126.571 60.7842C126.536 60.8301 126.525 60.8484 126.48 60.9061C125.401 62.2844 125.449 64.5589 126.5 65.9674C127.64 67.4945 130.18 67.5779 131.437 66.1842C131.576 66.0312 131.707 65.866 131.822 65.6655C132.255 64.9188 132.34 64.463 132.421 63.5937Z" fill="#17180A"/>
<path fill-rule="evenodd" clip-rule="evenodd" d="M95.2524 39.6784C95.1835 39.8445 95.2304 41.4342 95.2304 41.7486C95.2304 42.442 95.2103 43.1663 95.2304 43.8556L99.7368 43.8588L99.733 39.1064L99.5882 39.1212C99.4207 39.1087 97.6888 39.3473 97.3924 39.3926C97.0338 39.4474 96.6673 39.4859 96.3103 39.5318C96.0072 39.5709 95.5274 39.6075 95.2524 39.6784Z" fill="#17170A"/>
<path fill-rule="evenodd" clip-rule="evenodd" d="M95.2377 48.6818L99.7381 49.1126L99.7333 44.5244H95.2266L95.2377 48.6818Z" fill="#17180A"/>
<path fill-rule="evenodd" clip-rule="evenodd" d="M89.7172 48.1508L94.3972 48.6111L94.4071 44.5166L89.707 44.5243L89.7172 48.1508Z" fill="#17180A"/>
<path fill-rule="evenodd" clip-rule="evenodd" d="M89.6991 43.8735L94.4215 43.8649L94.4122 39.7822L89.6914 40.4051L89.6991 43.8735Z" fill="#17180A"/>
<path fill-rule="evenodd" clip-rule="evenodd" d="M108.599 59.859C108.599 60.0017 108.619 59.9693 108.766 59.985C109.556 60.0694 109.47 60.691 109.47 61.2726C109.47 61.9808 109.515 62.8478 109.469 63.5358C109.374 63.4932 108.692 62.3445 108.581 62.1662C108.295 61.7062 108.015 61.2568 107.725 60.7869C107.015 59.6354 107.292 59.8198 106.42 59.8198C106.087 59.8198 104.372 59.7817 104.215 59.8481C104.227 59.9783 104.219 59.9667 104.375 59.968C104.52 59.9693 105.027 59.9356 105.076 59.9924C105.124 60.0492 105.094 65.1291 105.092 65.914C105.09 67.2009 104.195 66.6415 104.221 67.0071C104.334 67.0568 105.961 67.0556 106.081 67.0155C106.111 66.9446 106.106 67.0029 106.096 66.9003C105.733 66.7463 105.237 66.9898 105.241 65.8867L105.241 60.2933C105.349 60.3331 105.283 60.2744 105.359 60.3946L109.259 66.6867C109.402 66.9221 109.437 67.0472 109.589 67.0235C109.605 66.9917 109.599 67.0183 109.611 66.9529L109.615 66.7672C109.592 64.8779 109.614 62.8776 109.611 60.9787C109.611 60.6641 109.637 60.3799 109.826 60.189C109.921 60.0931 110.008 60.0485 110.151 60.0113C110.482 59.9247 110.473 60.0546 110.489 59.8429C110.392 59.8073 108.704 59.7769 108.599 59.859Z" fill="#EFA35A"/>
<path fill-rule="evenodd" clip-rule="evenodd" d="M100.186 59.9657C100.312 59.9654 100.491 59.9856 100.581 59.9442C100.577 59.7825 100.562 59.8181 100.374 59.8213C99.3546 59.8396 97.9177 59.7771 96.9888 59.8412C97.0034 60.0048 97.029 59.9715 97.2143 59.9673C97.9615 59.9493 97.8763 59.9051 97.8753 60.2332C97.8689 62.4416 97.8938 64.6802 97.8721 66.8813L97.5337 66.8851C97.3521 66.8861 96.954 66.8428 96.9862 66.973C97.0082 67.0616 97.1614 67.033 97.2682 67.033C98.1982 67.0324 99.7856 67.0712 100.561 67.0157C100.593 66.9474 100.589 67.0109 100.577 66.9053C100.382 66.8399 99.9346 66.9159 99.6813 66.8755L99.6806 60.5001C99.6806 60.4035 99.642 60.0071 99.7243 59.983C99.7294 59.9817 99.7384 59.9776 99.7448 59.9759L99.814 59.9644C99.8446 59.9618 99.9132 59.9641 99.947 59.9644C100.027 59.9654 100.107 59.9657 100.186 59.9657Z" fill="#EFA359"/>
<path fill-rule="evenodd" clip-rule="evenodd" d="M133.525 47.4606L133.53 44.2588L129.66 44.2639V48.028L133.525 47.4606Z" fill="#17170A"/>
<path fill-rule="evenodd" clip-rule="evenodd" d="M129.657 43.6347L133.53 43.6447C133.516 43.1417 133.586 40.7084 133.504 40.4521L129.656 39.9033L129.657 43.6347Z" fill="#17170A"/>
<path fill-rule="evenodd" clip-rule="evenodd" d="M137.768 46.848L137.773 44.2578L134.168 44.2626L134.174 47.3711L137.768 46.848Z" fill="#17170A"/>
<path fill-rule="evenodd" clip-rule="evenodd" d="M134.169 43.6345L137.776 43.6444C137.765 43.2326 137.822 41.2637 137.758 41.0568L134.168 40.5439L134.169 43.6345Z" fill="#17170A"/>
<path fill-rule="evenodd" clip-rule="evenodd" d="M93.9633 79.0954C93.9129 79.2211 93.8906 79.1185 93.89 79.1175C93.8185 78.9199 93.3429 77.6966 93.2628 77.6084L92.9795 77.6074C92.9489 77.7479 92.9495 79.4004 92.9817 79.5336L93.1751 79.5262L93.177 77.9699C93.3078 78.1148 93.7378 79.4033 93.8657 79.5377C94.0055 79.5342 93.978 79.5281 94.0249 79.4024L94.2814 78.7801C94.3927 78.5023 94.5057 78.2361 94.6093 77.9654C94.6135 77.9715 94.6173 77.9801 94.6189 77.9853C94.6208 77.9904 94.6256 77.9994 94.6275 78.0058C94.6719 78.1549 94.6129 79.2712 94.6515 79.5348L94.8566 79.5313L94.8451 77.6055L94.5519 77.6122C94.4763 77.7075 93.9646 78.9912 93.9633 79.0954Z" fill="#19190E"/>
<path fill-rule="evenodd" clip-rule="evenodd" d="M120.977 77.8024L121.736 77.8018L121.736 79.3363L120.729 79.3398C120.81 79.0874 120.905 78.9831 120.943 78.6566C120.977 78.3621 120.973 78.0981 120.977 77.8024ZM120.485 79.5345L121.965 79.5416L121.966 79.9999L122.171 79.9849L122.161 79.3446L121.947 79.3283L121.933 77.6045L120.781 77.6077C120.721 77.8678 120.785 78.339 120.724 78.6669C120.695 78.8247 120.657 78.9607 120.595 79.097C120.342 79.6532 120.21 78.9235 120.281 79.9909L120.481 79.9945L120.485 79.5345Z" fill="#191710"/>
<path fill-rule="evenodd" clip-rule="evenodd" d="M87.5514 77.8031L88.31 77.8022L88.3103 79.3367L87.3086 79.3405C87.3861 79.0948 87.4863 78.988 87.523 78.6586C87.5562 78.3577 87.5463 78.1056 87.5514 77.8031ZM88.5362 79.3437C88.5139 79.295 88.5324 79.3996 88.5145 79.278L88.5113 77.6209C88.2054 77.6293 87.6072 77.5873 87.344 77.6418C87.3156 77.9991 87.3718 78.3337 87.2984 78.6987C87.2678 78.8517 87.2301 79.0015 87.167 79.1224C87.1517 79.1519 87.078 79.2748 87.0652 79.2876C86.9724 79.3832 86.9989 79.3113 86.8633 79.3569L86.869 79.9968L87.0553 79.9949L87.0585 79.5349L88.5391 79.5423L88.5403 80.0003L88.7448 79.9853L88.7353 79.3428L88.5362 79.3437Z" fill="#19190E"/>
<path fill-rule="evenodd" clip-rule="evenodd" d="M100.777 77.8155L101.536 77.8005L101.537 79.3337L100.531 79.3398C100.615 79.0967 100.7 78.9796 100.739 78.6636C100.777 78.358 100.766 78.1203 100.777 77.8155ZM100.551 78.3371C100.554 78.5527 100.513 78.7897 100.446 78.9777C100.284 79.4264 100.219 79.3074 100.074 79.3568L100.078 79.9986L100.283 79.9877L100.284 79.5348L101.76 79.5351L101.763 79.9909L101.966 79.9945L101.951 79.3408L101.753 79.3331L101.749 77.634L100.586 77.626C100.587 77.7475 100.617 78.2861 100.551 78.3371Z" fill="#16190D"/>
<path fill-rule="evenodd" clip-rule="evenodd" d="M135.964 77.6145C135.921 77.8946 135.955 78.4832 135.955 78.7962C135.954 79.4397 135.877 79.5548 136.102 79.5388C136.225 79.5301 136.217 79.507 136.272 79.4185C136.358 79.2819 137.127 78.045 137.227 77.9677C137.241 78.2586 137.228 78.5816 137.228 78.8764C137.228 79.6071 137.166 79.5413 137.423 79.532C137.454 79.3989 137.454 77.7326 137.423 77.6065C137.102 77.5972 137.175 77.6546 137.016 77.8984C136.924 78.0389 136.83 78.1784 136.74 78.3141C136.639 78.4684 136.284 79.0682 136.18 79.1452C136.16 78.8629 136.176 78.5249 136.176 78.2362C136.176 77.5574 136.236 77.5648 135.964 77.6145Z" fill="#191710"/>
<path fill-rule="evenodd" clip-rule="evenodd" d="M112.663 78.6904C112.557 77.5292 114.065 77.4365 114.19 78.4521C114.248 78.9297 113.953 79.3242 113.552 79.3797C113.069 79.4467 112.701 79.1148 112.663 78.6904ZM112.435 78.7436C112.61 79.9648 114.564 79.8323 114.417 78.4296C114.361 77.8936 113.884 77.4798 113.264 77.5687C112.741 77.6441 112.344 78.1137 112.435 78.7436Z" fill="#151710"/>
<path fill-rule="evenodd" clip-rule="evenodd" d="M90.0148 78.6901C89.891 77.5377 91.4411 77.4334 91.5426 78.4499C91.6574 79.6005 90.1239 79.7054 90.0148 78.6901ZM89.7912 78.7434C89.9638 79.9706 91.9085 79.8426 91.7697 78.4265C91.645 77.1576 89.5902 77.3144 89.7912 78.7434Z" fill="#151710"/>
<path fill-rule="evenodd" clip-rule="evenodd" d="M123.307 79.5266C123.605 79.5629 123.578 79.4625 123.719 79.253C123.85 79.058 124.493 78.0146 124.563 77.9751L124.573 79.534L124.778 79.5305L124.764 77.6094C124.63 77.5972 124.565 77.5818 124.493 77.6829C124.318 77.9283 123.602 79.1151 123.506 79.1651L123.492 77.6082C123.22 77.5876 123.3 77.6611 123.301 77.9427C123.303 78.3318 123.278 79.2569 123.307 79.5266Z" fill="#15160E"/>
<path fill-rule="evenodd" clip-rule="evenodd" d="M106.813 77.8091C106.847 77.8636 106.825 77.7594 106.842 77.8893L106.82 78.5305C106.695 78.5626 106.511 78.5549 106.411 78.5061C106.139 78.501 105.923 78.244 106.081 77.973C106.2 77.7693 106.566 77.7818 106.813 77.8091ZM107.042 77.6131C106.914 77.5929 106.494 77.5974 106.358 77.6134C106.135 77.6394 105.992 77.7212 105.902 77.8466C105.804 77.9817 105.788 78.2283 105.864 78.3983C105.948 78.5847 106.062 78.6107 106.259 78.6883C106.198 78.9141 105.814 79.3426 105.789 79.5351C106.097 79.5406 106.002 79.5707 106.281 79.1082C106.559 78.6469 106.441 78.7063 106.829 78.7085C106.831 78.8105 106.819 79.4443 106.832 79.4841C106.857 79.555 107.029 79.5867 107.051 79.4632C107.078 79.3195 107.051 77.6824 107.042 77.6131Z" fill="#161911"/>
<path fill-rule="evenodd" clip-rule="evenodd" d="M131.114 78.38C131.109 78.6106 131.092 78.8384 131.027 79.0539C130.934 79.3635 130.845 79.3192 130.562 79.3529L130.543 79.5335C131.445 79.7051 131.311 78.4958 131.336 77.803L132.064 77.8129C132.069 78.169 132.017 79.2679 132.08 79.5325H132.288L132.287 77.6346L131.144 77.6211L131.144 78.1831C131.144 78.2052 131.146 78.2738 131.144 78.2912L131.114 78.38Z" fill="#191710"/>
<path fill-rule="evenodd" clip-rule="evenodd" d="M115.814 78.6334C116.17 78.5985 116.69 78.5921 116.667 79.0094C116.647 79.394 116.158 79.3641 115.813 79.3542L115.814 78.6334ZM116.356 79.504C116.747 79.5329 117.014 79.1043 116.834 78.7297C116.669 78.3868 116.209 78.4583 115.812 78.4278L115.817 77.8075C115.98 77.787 116.223 77.8011 116.395 77.8011C116.604 77.8014 116.84 77.8729 116.741 77.6227C116.613 77.5666 115.816 77.5906 115.627 77.6099L115.625 79.511C115.865 79.5245 116.125 79.5152 116.356 79.504Z" fill="#151710"/>
<path fill-rule="evenodd" clip-rule="evenodd" d="M96.4423 78.8343C96.4665 78.7063 96.7782 77.9452 96.8468 77.8971L97.2213 78.8308L96.4423 78.8343ZM95.9258 79.531C96.182 79.5499 96.1414 79.5477 96.2241 79.3459C96.396 78.9254 96.2139 79.0242 97.3176 79.0393C97.3837 79.1958 97.4446 79.4187 97.5381 79.5339L97.7397 79.5329C97.7343 79.43 97.0012 77.7043 96.924 77.6064L96.7476 77.6068C96.671 77.7271 95.9347 79.4345 95.9258 79.531Z" fill="#151710"/>
<path fill-rule="evenodd" clip-rule="evenodd" d="M104.403 77.8056C104.406 77.8116 104.412 77.8132 104.413 77.8235L104.43 77.8889C104.45 78.0923 104.408 79.1694 104.433 79.5142L104.615 79.5136L104.616 77.6214C104.329 77.6208 103.724 77.5903 103.473 77.6384C103.45 78.0006 103.493 78.3727 103.443 78.7374C103.385 79.1515 103.342 79.3503 102.913 79.3455L102.898 79.5361C103.794 79.6785 103.668 78.5279 103.68 77.8017L104.403 77.8056Z" fill="#19190E"/>
<path fill-rule="evenodd" clip-rule="evenodd" d="M128.617 79.3293L128.617 78.6284L129.529 78.6255L129.519 78.4321L128.616 78.4325L128.617 77.8025C128.823 77.7999 129.029 77.8015 129.235 77.8015C129.445 77.8015 129.679 77.8737 129.581 77.6225C129.461 77.5702 128.637 77.5985 128.439 77.6078C128.36 77.7566 128.399 79.2372 128.409 79.5163L129.608 79.5173L129.606 79.3582C129.439 79.3543 129.27 79.3569 129.102 79.3569C128.892 79.3572 128.707 79.3813 128.617 79.3293Z" fill="#19190E"/>
<path fill-rule="evenodd" clip-rule="evenodd" d="M134.792 79.4901L134.785 79.3393L133.785 79.3406L133.788 78.6272L134.695 78.626L134.686 78.4313L133.785 78.4338L133.79 77.8026C134.007 77.7968 134.604 77.8427 134.763 77.7843L134.766 77.6492C134.628 77.5816 133.788 77.6117 133.582 77.6226L133.583 79.5141C133.802 79.5202 134.646 79.5584 134.792 79.4901Z" fill="#19190E"/>
<path fill-rule="evenodd" clip-rule="evenodd" d="M109.82 79.5267C110.07 79.5681 110.024 79.5123 110.022 79.2769L110.025 77.8007L111.037 77.8055L111.047 79.5348L111.223 79.5274L111.222 77.6211L109.821 77.6256L109.82 79.5267Z" fill="#151710"/>
<path fill-rule="evenodd" clip-rule="evenodd" d="M118.308 79.3234L118.308 78.628L119.235 78.6255L119.226 78.4321L118.305 78.4279L118.31 77.8018L119.29 77.7998L119.278 77.6045L118.12 77.6099L118.117 79.5117L119.311 79.5143L119.313 79.3607L118.543 79.3587C118.349 79.3578 118.363 79.377 118.308 79.3234Z" fill="#19190E"/>
<path fill-rule="evenodd" clip-rule="evenodd" d="M126.485 77.8023L126.491 79.5309L126.684 79.5315L126.693 77.802L127.322 77.7988L127.314 77.6057H125.998C125.918 77.6057 125.89 77.5838 125.855 77.6409C125.834 77.6756 125.845 77.7625 125.864 77.7818C125.905 77.8231 126.389 77.802 126.485 77.8023Z" fill="#191710"/>
<path fill-rule="evenodd" clip-rule="evenodd" d="M95.2401 48.6813L95.229 44.5239H99.7357L99.7405 49.1121C99.7874 49.0322 99.7654 48.6444 99.7654 48.5501C99.7654 47.9801 99.7915 44.7164 99.7532 44.5072C99.565 44.4729 95.3853 44.4748 95.2136 44.5091C95.1741 44.6945 95.1993 47.694 95.1996 48.2033C95.1996 48.3663 95.1687 48.6412 95.2401 48.6813Z" fill="#655A43"/>
<path fill-rule="evenodd" clip-rule="evenodd" d="M89.7171 48.1508L89.7069 44.5243L94.407 44.5166L94.3971 48.6111C94.4472 48.5351 94.4319 48.4671 94.4306 48.3638C94.4239 47.7348 94.458 44.7283 94.4185 44.5079C94.2459 44.4698 89.8932 44.4698 89.6939 44.5095C89.6406 44.7604 89.6875 47.2617 89.6789 47.9644C89.676 48.1925 89.6868 48.1306 89.7171 48.1508Z" fill="#655A43"/>
<path fill-rule="evenodd" clip-rule="evenodd" d="M95.2518 39.6784C95.1931 39.7117 95.2176 39.6354 95.1969 39.773C95.1953 39.782 95.1982 39.8898 95.1982 39.9081C95.2062 40.5643 95.1711 43.6456 95.2106 43.8826L99.7509 43.8714C99.7904 43.6664 99.7882 39.2861 99.7483 39.0927C99.6615 39.0789 99.644 39.0734 99.5875 39.1212L99.7324 39.1065L99.7362 43.8589L95.2298 43.8557C95.2097 43.1663 95.2298 42.4421 95.2298 41.7486C95.2298 41.4342 95.1829 39.8445 95.2518 39.6784Z" fill="#61533D"/>
<path fill-rule="evenodd" clip-rule="evenodd" d="M133.525 47.4609C133.563 47.4153 133.539 47.5164 133.56 47.3784L133.559 47.0573C133.56 46.4983 133.591 44.4794 133.548 44.2414C133.327 44.2016 130.474 44.2356 129.871 44.2282C129.783 44.2273 129.699 44.2064 129.66 44.2642L133.53 44.259L133.525 47.4609Z" fill="#665A3D"/>
<path fill-rule="evenodd" clip-rule="evenodd" d="M137.768 46.8485C137.807 46.802 137.789 46.8572 137.803 46.7648L137.802 46.5239C137.802 46.0617 137.829 44.4524 137.79 44.2414C137.6 44.2064 135.424 44.2282 135.042 44.2282C134.949 44.2282 134.219 44.1888 134.168 44.2632L137.773 44.2584L137.768 46.8485Z" fill="#655A43"/>
<path fill-rule="evenodd" clip-rule="evenodd" d="M129.66 43.6347C129.719 43.6938 129.698 43.6707 129.899 43.6687C130.488 43.663 133.344 43.6947 133.548 43.6582C133.592 43.4269 133.559 41.6951 133.559 41.2156C133.559 41.0379 133.599 40.4836 133.507 40.4521C133.589 40.7084 133.519 43.1417 133.533 43.6447L129.66 43.6347Z" fill="#61533D"/>
<path fill-rule="evenodd" clip-rule="evenodd" d="M134.168 43.6343C134.21 43.6757 134.15 43.6635 134.272 43.6718C134.616 43.6959 137.733 43.668 137.791 43.6577C137.828 43.4617 137.801 41.8072 137.802 41.3485C137.802 41.2436 137.833 41.098 137.757 41.0566C137.821 41.2635 137.764 43.2324 137.775 43.6442L134.168 43.6343Z" fill="#5C513C"/>
<path fill-rule="evenodd" clip-rule="evenodd" d="M136.738 77.2732C136.535 77.3027 136.494 77.1751 136.435 77.0625C136.256 77.075 136.264 77.1395 136.359 77.2877C136.514 77.5289 137.103 77.5145 137.09 77.0705C136.838 77.0526 136.98 77.2383 136.738 77.2732Z" fill="#151710"/>
<path fill-rule="evenodd" clip-rule="evenodd" d="M109.82 79.527L109.82 77.6259L111.222 77.6214L111.222 79.5276C111.24 79.493 111.229 79.5623 111.248 79.4635L111.251 79.2765C111.248 78.9099 111.273 77.7933 111.236 77.5957L109.803 77.6095C109.763 77.8263 109.791 78.3351 109.791 78.583C109.791 78.7745 109.756 79.4115 109.82 79.527Z" fill="#61533D"/>
<path fill-rule="evenodd" clip-rule="evenodd" d="M104.403 77.8056L104.415 79.5396L104.631 79.5313C104.658 79.386 104.658 77.7405 104.629 77.609C104.494 77.5794 103.952 77.5971 103.741 77.5964C103.7 77.5964 103.616 77.5907 103.58 77.5939C103.464 77.6041 103.509 77.582 103.473 77.6385C103.724 77.5904 104.329 77.6208 104.616 77.6215L104.615 79.5136L104.433 79.5143C104.408 79.1695 104.45 78.0923 104.43 77.889L104.413 77.8235C104.412 77.8133 104.406 77.8117 104.403 77.8056Z" fill="#61533D"/>
<path fill-rule="evenodd" clip-rule="evenodd" d="M118.307 79.3239C118.362 79.3774 118.348 79.3582 118.543 79.3591L119.313 79.3611L119.31 79.5147L118.116 79.5121L118.119 77.6104C118.103 77.6411 118.112 77.5796 118.094 77.6761C118.064 77.8381 118.099 79.5205 118.101 79.5426L119.333 79.5314L119.326 79.3322L118.307 79.3239Z" fill="#61533D"/>
<path fill-rule="evenodd" clip-rule="evenodd" d="M128.616 79.3289C128.707 79.3809 128.892 79.3569 129.101 79.3565C129.269 79.3565 129.438 79.354 129.606 79.3578L129.607 79.5169L128.408 79.5159C128.398 79.2369 128.359 77.7563 128.438 77.6074C128.387 77.6344 128.38 77.5446 128.384 77.8358C128.385 77.9157 128.384 77.9962 128.384 78.0761C128.384 78.2361 128.384 78.3962 128.384 78.5562C128.384 78.8266 128.358 79.2853 128.394 79.5432L129.628 79.5313L129.62 79.3299L128.616 79.3289Z" fill="#655A43"/>
<path fill-rule="evenodd" clip-rule="evenodd" d="M134.795 79.4907C134.649 79.559 133.804 79.5208 133.585 79.5148L133.585 77.6232C133.791 77.6123 134.631 77.5822 134.769 77.6499C134.733 77.5806 134.793 77.5995 134.649 77.5918L133.559 77.6094L133.572 79.5318C133.736 79.5622 134.019 79.5449 134.196 79.5452C134.379 79.5452 134.769 79.5844 134.795 79.4907Z" fill="#655A43"/>
<path fill-rule="evenodd" clip-rule="evenodd" d="M116.355 79.5044C116.125 79.5157 115.864 79.525 115.624 79.5115L115.627 77.6104C115.562 77.7358 115.601 79.4794 115.608 79.5333C115.717 79.5468 116.321 79.5747 116.355 79.5044Z" fill="#61533D"/>
<path fill-rule="evenodd" clip-rule="evenodd" d="M88.5359 79.3438L88.527 77.6091C88.3723 77.5761 88.1001 77.5979 87.9304 77.5976C87.8242 77.5976 87.718 77.5982 87.612 77.5979C87.5722 77.5976 87.4841 77.5918 87.4509 77.595C87.3278 77.6062 87.3792 77.5832 87.3438 77.6419C87.6069 77.5873 88.2051 77.6293 88.511 77.621L88.5142 79.2781C88.5321 79.3996 88.5136 79.2951 88.5359 79.3438Z" fill="#5D5233"/>
<path fill-rule="evenodd" clip-rule="evenodd" d="M131.117 78.3804L131.147 78.2915C131.149 78.2742 131.147 78.2055 131.147 78.1834L131.147 77.6214L132.291 77.6349C132.226 77.5717 132.126 77.5948 131.994 77.5955C131.783 77.5971 131.269 77.5823 131.122 77.6096L131.117 78.3804Z" fill="#5D5442"/>
<path fill-rule="evenodd" clip-rule="evenodd" d="M100.551 78.3373C100.616 78.2863 100.587 77.7477 100.586 77.6261L101.749 77.6342C101.706 77.5848 101.765 77.6184 101.695 77.5986C101.695 77.5982 101.624 77.5941 101.62 77.5938L100.561 77.6098L100.551 78.3373Z" fill="#5D5442"/>
<path fill-rule="evenodd" clip-rule="evenodd" d="M106.41 78.5056C106.511 78.5544 106.695 78.5621 106.82 78.53L106.841 77.8888C106.825 77.7589 106.846 77.8631 106.812 77.8086L106.813 78.5107L106.41 78.5056Z" fill="#776A55"/>
<path fill-rule="evenodd" clip-rule="evenodd" d="M90.6907 64.6337C90.6674 64.6474 90.6425 64.6691 90.6387 64.6621C90.6345 64.6551 90.6202 64.6666 90.6096 64.6733L90.543 64.6133C90.5832 64.7061 90.5691 64.6898 90.6454 64.7202L90.6907 64.6337Z" fill="#E7B888"/>
<path fill-rule="evenodd" clip-rule="evenodd" d="M144.754 44.4395L144.709 44.4548C144.744 44.4921 144.651 44.5068 144.752 44.4879C144.842 44.3776 144.758 44.4442 144.754 44.4395Z" fill="#8E846F"/>
<path fill-rule="evenodd" clip-rule="evenodd" d="M80.0766 44.2706L80.0664 44.2588C80.0033 44.3015 80.0294 44.2515 80.0039 44.3389C80.075 44.3111 80.0431 44.3312 80.0766 44.2706Z" fill="#504732"/>
<path fill-rule="evenodd" clip-rule="evenodd" d="M93.8906 79.1167C93.8913 79.1177 93.9136 79.2198 93.964 79.0947L93.8906 79.1167Z" fill="#675A46"/>
</g>
<defs>
<clipPath id="clip0_379_1246">
<rect width="65" height="56" fill="white" transform="translate(80 24)"/>
</clipPath>
</defs>
</svg>
